700 0 1 0           
30 Autodesk Translation Framework 20 ASM 229.3.0.65535 NT 24 Wed Feb 21 19:24:48 2024 
1 9.999999999999999547e-07 1.000000000000000036e-10 
body $1 -1 $-1 $2 $-1 $3 #
rgb_color-st-attrib $-1 -1 $4 $-1 $0 0.7490196078431372584 0.7490196078431372584 0.7490196078431372584 #
lump $-1 -1 $-1 $-1 $5 $0 #
transform $-1 -1 1 0 0 0 1 0 0 0 1 0 0 0 1 no_rotate no_reflect no_shear #
DXID-attrib $-1 -1 $-1 $1 $0 @10 ASM ENTITY @103 PIEZA3-TAREA1.IPT|:|6A582A53F7A901504DEA11D312E6AC4B03CDD905|:|DA4B9237BACCCDF19C0760CAB7AEC4A8359010B0 #
shell $-1 -1 $-1 $-1 $-1 $6 $-1 $2 #
face $7 -1 $-1 $8 $9 $5 $-1 $10 reversed single #
DXID-attrib $-1 -1 $-1 $-1 $6 @10 ASM ENTITY @36 23084f73-cd45-481b-89a1-01f7f5c0fbd3 #
face $11 -1 $-1 $12 $13 $5 $-1 $14 reversed single #
loop $-1 -1 $-1 $15 $16 $6 #
cone-surface $-1 -1 $-1 22.50000000000000355 25 -35.00000000000000711 0 -1 0 5 0 0 1 I I 0 1 5 forward I I I I #
DXID-attrib $-1 -1 $-1 $-1 $8 @10 ASM ENTITY @36 fb441b7e-8889-4f49-a9f8-5cf8e612795c #
face $17 -1 $-1 $18 $19 $5 $-1 $20 reversed single #
loop $-1 -1 $-1 $21 $22 $8 #
cone-surface $-1 -1 $-1 22.50000000000000355 25 39.99999999999998579 0 -1 0 5 0 0 1 I I 0 1 5 forward I I I I #
loop $-1 -1 $-1 $-1 $23 $6 #
coedge $-1 -1 $-1 $16 $16 $24 $25 reversed $9 $-1 #
DXID-attrib $-1 -1 $-1 $-1 $12 @10 ASM ENTITY @36 ba03b529-30ed-4c3e-947e-4cacb07f57da #
face $26 -1 $-1 $27 $28 $5 $-1 $29 forward single #
loop $-1 -1 $-1 $-1 $30 $12 #
cone-surface $-1 -1 $-1 37.49999999999999289 34.93469176570526002 8.056305040934645945 -1 0 3.552713678800501127e-16 -8.919301923696962759e-15 0 -25.10560301247911497 1 I I 0 1 25.10560301247911497 forward I I I I #
loop $-1 -1 $-1 $-1 $31 $8 #
coedge $-1 -1 $-1 $22 $22 $32 $33 reversed $13 $-1 #
coedge $-1 -1 $-1 $23 $23 $34 $35 reversed $15 $-1 #
coedge $-1 -1 $-1 $24 $24 $16 $25 forward $36 $-1 #
edge $-1 -1 $-1 $37 0 $37 6.283185307179586232 $24 $38 forward @7 unknown #
DXID-attrib $-1 -1 $-1 $-1 $18 @10 ASM ENTITY @36 65929b11-814f-4363-98c4-b20010bf01a0 #
face $39 -1 $-1 $40 $41 $5 $-1 $42 forward single #
loop $-1 -1 $-1 $-1 $43 $18 #
plane-surface $-1 -1 $-1 12.49999999999999112 34.93469176570526002 8.056305040934654826 1 0 -3.108624468950439102e-16 -3.108624468950439102e-15 0 -10 forward_v I I I I #
coedge $-1 -1 $-1 $44 $45 $46 $47 reversed $19 $-1 #
coedge $-1 -1 $-1 $31 $31 $48 $49 reversed $21 $-1 #
coedge $-1 -1 $-1 $32 $32 $22 $33 forward $50 $-1 #
edge $-1 -1 $-1 $51 -3.141592653589793116 $51 3.141592653589793116 $32 $52 forward @7 unknown #
coedge $-1 -1 $-1 $34 $34 $23 $35 forward $53 $-1 #
edge $-1 -1 $-1 $54 0 $54 6.283185307179586232 $34 $55 forward @7 unknown #
loop $-1 -1 $-1 $56 $24 $57 #
vertex $-1 -1 $-1 $25 $58 #
ellipse-curve $-1 -1 $-1 22.50000000000000355 0 -35.00000000000000711 0 1 0 5 0 0 1 I I #
DXID-attrib $-1 -1 $-1 $-1 $27 @10 ASM ENTITY @36 5cf57be2-5e1f-45e5-80ef-61a53ec26bf7 #
face $59 -1 $-1 $60 $61 $5 $-1 $62 forward single #
loop $-1 -1 $-1 $63 $64 $27 #
cone-surface $-1 -1 $-1 -12.49999999999999645 24.99999999999997868 -14.9999999999999627 0 -0.8660254037844387076 -0.499999999999999889 -10 -7.691850745534253293e-16 1.332267629550188046e-15 1 I I 0 -1 10 forward I I I I #
coedge $-1 -1 $-1 $65 $66 $67 $68 reversed $28 $-1 #
coedge $-1 -1 $-1 $69 $30 $70 $71 reversed $19 $-1 #
coedge $-1 -1 $-1 $30 $69 $65 $72 forward $19 $-1 #
coedge $-1 -1 $-1 $67 $73 $30 $47 forward $74 $-1 #
edge $-1 -1 $-1 $75 0 $76 2.499999999999999112 $46 $77 forward @7 unknown #
coedge $-1 -1 $-1 $48 $48 $31 $49 forward $56 $-1 #
edge $-1 -1 $-1 $78 0 $78 6.283185307179586232 $48 $79 forward @7 unknown #
loop $-1 -1 $-1 $74 $32 $80 #
vertex $-1 -1 $-1 $33 $81 #
ellipse-curve $-1 -1 $-1 22.50000000000000355 15 39.99999999999998579 -0 -1 -0 5 0 0 1 I I #
loop $-1 -1 $-1 $82 $34 $83 #
vertex $-1 -1 $-1 $35 $84 #
ellipse-curve $-1 -1 $-1 22.50000000000000355 25 -35.00000000000000711 -0 -1 -0 5 0 0 1 I I #
loop $-1 -1 $-1 $85 $48 $57 #
face $86 -1 $-1 $-1 $36 $5 $-1 $87 reversed single #
point $-1 -1 $-1 27.50000000000000355 0 -35.00000000000000711 #
DXID-attrib $-1 -1 $-1 $-1 $40 @10 ASM ENTITY @36 12678a60-deea-48f3-9291-2fe8e8ad6961 #
face $88 -1 $-1 $89 $90 $5 $-1 $91 reversed single #
loop $-1 -1 $-1 $-1 $92 $40 #
plane-surface $-1 -1 $-1 -12.49999999999999645 14.84455543377231379 -17.41025403784436776 -8.881784197001249119e-17 -0.8660254037844387076 -0.499999999999999889 0 4.999999999999999112 -8.660254037844387298 forward_v I I I I #
loop $-1 -1 $-1 $-1 $93 $27 #
coedge $-1 -1 $-1 $64 $64 $94 $95 reversed $41 $-1 #
coedge $-1 -1 $-1 $66 $43 $45 $72 reversed $28 $-1 #
coedge $-1 -1 $-1 $43 $65 $96 $97 forward $28 $-1 #
coedge $-1 -1 $-1 $98 $46 $43 $68 forward $74 $-1 #
edge $-1 -1 $-1 $76 -1.928919333774199218 $99 0.1707644444778553816 $67 $100 forward @7 unknown #
coedge $-1 -1 $-1 $45 $44 $101 $102 reversed $19 $-1 #
coedge $-1 -1 $-1 $103 $104 $44 $71 forward $105 $-1 #
edge $-1 -1 $-1 $106 0.4068474884815766468 $75 2.224176570083659321 $70 $107 forward @7 unknown #
edge $108 -1 $-1 $109 0.4068474884815765358 $76 2.224176570083660209 $45 $110 forward @7 unknown #
coedge $-1 -1 $-1 $46 $111 $103 $112 forward $74 $-1 #
loop $-1 -1 $-1 $-1 $67 $80 #
vertex $-1 -1 $-1 $47 $113 #
vertex $-1 -1 $-1 $47 $114 #
straight-curve $-1 -1 $-1 37.49999999999999289 15 23.31734585820930761 -10 0 3.552713678800500929e-15 I I #
vertex $-1 -1 $-1 $49 $115 #
ellipse-curve $-1 -1 $-1 22.50000000000000355 0 39.99999999999998579 0 1 0 5 0 0 1 I I #
face $116 -1 $-1 $117 $50 $5 $-1 $118 forward single #
point $-1 -1 $-1 17.50000000000000355 15 39.99999999999998579 #
loop $-1 -1 $-1 $-1 $119 $83 #
face $120 -1 $-1 $80 $53 $5 $-1 $121 forward single #
point $-1 -1 $-1 27.50000000000000355 25 -35.00000000000000711 #
loop $-1 -1 $-1 $122 $94 $57 #
DXID-attrib $-1 -1 $-1 $-1 $57 @10 ASM ENTITY @36 a7a182ac-1575-43ee-a192-7cea3450ac6a #
plane-surface $-1 -1 $-1 0 0 -4.440892098500626162e-15 0 1 0 0 0 10 forward_v I I I I #
DXID-attrib $-1 -1 $-1 $-1 $60 @10 ASM ENTITY @36 19dbb1c9-a6be-4cab-8392-8a1bace592c4 #
face $123 -1 $-1 $83 $124 $5 $-1 $125 forward single #
loop $-1 -1 $-1 $126 $127 $60 #
plane-surface $-1 -1 $-1 -12.49999999999999645 23.50480947161670287 -12.41025403784436598 -8.881784197001249119e-17 -0.8660254037844387076 -0.499999999999999889 0 4.999999999999999112 -8.660254037844387298 forward_v I I I I #
coedge $-1 -1 $-1 $128 $128 $129 $130 reversed $61 $-1 #
coedge $-1 -1 $-1 $93 $93 $131 $132 forward $63 $-1 #
coedge $-1 -1 $-1 $94 $94 $64 $95 forward $85 $-1 #
edge $-1 -1 $-1 $133 -3.141592653589793116 $133 3.141592653589793116 $94 $134 forward @7 unknown #
coedge $-1 -1 $-1 $127 $135 $66 $97 reversed $90 $-1 #
edge $136 -1 $-1 $109 0 $99 2.000000000000000444 $96 $137 forward @7 unknown #
coedge $-1 -1 $-1 $138 $67 $135 $139 forward $74 $-1 #
vertex $-1 -1 $-1 $68 $140 #
straight-curve $-1 -1 $-1 12.49999999999999645 15 4.028152520467325637 -3.108624468950439102e-15 0 -10 I I #
coedge $-1 -1 $-1 $141 $119 $69 $102 forward $82 $-1 #
edge $142 -1 $-1 $109 5.000000000000000888 $106 7.500000000000000888 $101 $143 forward @7 unknown #
coedge $-1 -1 $-1 $144 $70 $73 $112 reversed $105 $-1 #
coedge $-1 -1 $-1 $70 $145 $141 $146 reversed $105 $-1 #
loop $-1 -1 $-1 $-1 $70 $147 #
vertex $-1 -1 $-1 $71 $148 #
ellipse-curve $-1 -1 $-1 37.49999999999999289 34.93469176570526002 8.056305040934645945 -1 0 3.108624468950439102e-16 -8.919301923696962759e-15 0 -25.10560301247911497 1 I I #
DXID-attrib $-1 -1 $-1 $-1 $72 @10 ASM ENTITY @36 a4210362-959c-4f4b-afef-f172662871fa #
vertex $-1 -1 $-1 $102 $149 #
ellipse-curve $-1 -1 $-1 12.49999999999999112 34.93469176570526002 8.056305040934654826 -1 0 3.108624468950439102e-16 -7.804389183234843203e-15 0 -25.10560301247911497 1 I I #
coedge $-1 -1 $-1 $73 $150 $151 $152 forward $74 $-1 #
edge $153 -1 $-1 $154 0 $75 2.668265414179067374 $103 $155 forward @7 unknown #
point $-1 -1 $-1 37.49999999999999289 15 23.31734585820930761 #
point $-1 -1 $-1 12.50000000000000178 15 23.31734585820931827 #
point $-1 -1 $-1 27.50000000000000355 0 39.99999999999998579 #
DXID-attrib $-1 -1 $-1 $-1 $80 @10 ASM ENTITY @36 d56e8916-1f60-486d-8531-961428703eff #
face $156 -1 $-1 $147 $157 $5 $-1 $158 forward single #
plane-surface $-1 -1 $-1 0 15 0 0 1 0 0 0 10 forward_v I I I I #
coedge $-1 -1 $-1 $101 $129 $159 $160 forward $82 $-1 #
DXID-attrib $-1 -1 $-1 $-1 $83 @10 ASM ENTITY @36 dccb560b-0b0c-46bd-b98e-4b558fc9705e #
plane-surface $-1 -1 $-1 0 25 -32.5 0 1 0 0 0 10 forward_v I I I I #
loop $-1 -1 $-1 $-1 $161 $57 #
DXID-attrib $-1 -1 $-1 $-1 $89 @10 ASM ENTITY @36 9df58577-4b6e-4f5d-8a05-524f236889c7 #
loop $-1 -1 $-1 $-1 $159 $89 #
cone-surface $-1 -1 $-1 -12.49999999999999645 24.99999999999997868 -14.9999999999999627 0 -0.8660254037844387076 -0.499999999999999889 -25 2.028149780611956157e-14 -3.51285846537958142e-14 1 I I 0 1 25 forward I I I I #
loop $-1 -1 $-1 $-1 $131 $60 #
coedge $-1 -1 $-1 $162 $96 $163 $164 reversed $90 $-1 #
coedge $-1 -1 $-1 $92 $92 $165 $166 forward $61 $-1 #
coedge $-1 -1 $-1 $119 $167 $92 $130 forward $82 $-1 #
edge $-1 -1 $-1 $168 -2.427775637731989455 $169 1.177775637731989677 $129 $170 forward @7 unknown #
coedge $-1 -1 $-1 $131 $131 $93 $132 reversed $126 $-1 #
edge $171 -1 $-1 $172 -3.141592653589793116 $172 3.141592653589793116 $93 $173 forward @7 unknown #
vertex $-1 -1 $-1 $95 $174 #
ellipse-curve $-1 -1 $-1 -12.49999999999999822 0 -29.43375672974061885 0 1 0 2.059172543335732877e-15 -5.551115123125782702e-16 11.54700538379251462 0.8660254037844385966 I I #
coedge $-1 -1 $-1 $96 $162 $98 $139 reversed $90 $-1 #
DXID-attrib $-1 -1 $-1 $-1 $97 @10 ASM ENTITY @36 bf8796c2-61c6-4db1-befd-34d7b7f698d7 #
straight-curve $-1 -1 $-1 12.50000000000000888 25 -15.00000000000000711 1.538370149106851053e-15 -4.999999999999999112 8.660254037844387298 F 0 F 3.098076211353316012 #
coedge $-1 -1 $-1 $175 $98 $176 $177 forward $74 $-1 #
edge $-1 -1 $-1 $99 -1.875000000000000888 $178 3.125000000000000888 $98 $179 forward @7 unknown #
point $-1 -1 $-1 12.50000000000001066 15 2.320508075688771932 #
coedge $-1 -1 $-1 $180 $101 $104 $146 forward $82 $-1 #
DXID-attrib $-1 -1 $-1 $-1 $102 @10 ASM ENTITY @36 24bf32c3-a004-4329-9076-29ddca493c56 #
straight-curve $-1 -1 $-1 -37.5 25 -14.99999999999999645 10 0 -1.776356839400250267e-15 I I #
coedge $-1 -1 $-1 $181 $103 $182 $183 reversed $105 $-1 #
coedge $-1 -1 $-1 $104 $181 $184 $185 forward $105 $-1 #
edge $186 -1 $-1 $106 -0 $187 3.5 $104 $188 forward @7 unknown #
face $189 -1 $-1 $190 $105 $5 $-1 $191 forward single #
point $-1 -1 $-1 37.50000000000000711 25 -15.00000000000000888 #
point $-1 -1 $-1 12.50000000000000888 25 -15.00000000000000711 #
coedge $-1 -1 $-1 $111 $175 $192 $193 forward $74 $-1 #
coedge $-1 -1 $-1 $194 $182 $111 $152 reversed $195 $-1 #
edge $196 -1 $-1 $197 2.999999999999999556 $154 7.5 $151 $198 forward @7 unknown #
DXID-attrib $-1 -1 $-1 $-1 $112 @10 ASM ENTITY @36 bf154e57-b8a7-4ff1-82de-4ba59625493d #
vertex $-1 -1 $-1 $152 $199 #
straight-curve $-1 -1 $-1 37.50000000000000711 15 49.99999999999998579 -3.108624468950439102e-15 0 -10 I I #
DXID-attrib $-1 -1 $-1 $-1 $117 @10 ASM ENTITY @36 c107435e-3ca7-400f-8909-2f2a13e95d5c #
loop $-1 -1 $-1 $-1 $200 $117 #
plane-surface $-1 -1 $-1 37.49999999999997868 0 -50 0 0 -1 -10 0 0 forward_v I I I I #
coedge $-1 -1 $-1 $165 $163 $119 $160 reversed $124 $-1 #
edge $-1 -1 $-1 $169 0.8054035005744382136 $109 1.570796326794893449 $119 $201 forward @7 unknown #
coedge $-1 -1 $-1 $202 $203 $204 $205 reversed $122 $-1 #
coedge $-1 -1 $-1 $135 $127 $206 $207 reversed $90 $-1 #
coedge $-1 -1 $-1 $159 $208 $127 $164 forward $124 $-1 #
edge $209 -1 $-1 $210 -2.465300280936467769e-17 $109 3.141592653589789563 $163 $211 forward @7 unknown #
coedge $-1 -1 $-1 $208 $159 $128 $166 reversed $124 $-1 #
edge $212 -1 $-1 $168 0.7653928262204549027 $169 2.37619982736933455 $165 $213 forward @7 unknown #
coedge $-1 -1 $-1 $129 $214 $208 $215 forward $82 $-1 #
vertex $-1 -1 $-1 $130 $216 #
vertex $-1 -1 $-1 $130 $217 #
straight-curve $-1 -1 $-1 -6.25 25 -35.00000000000000711 10 0 -1.776356839400250267e-15 I I #
DXID-attrib $-1 -1 $-1 $-1 $132 @10 ASM ENTITY @36 910fb5d1-e109-4a7a-b2f9-028ef4317203 #
vertex $-1 -1 $-1 $132 $218 #
ellipse-curve $-1 -1 $-1 -12.49999999999999645 24.99999999999997868 -14.9999999999999627 8.881784197001249119e-17 0.8660254037844387076 0.499999999999999889 -10 0 1.776356839400250267e-15 1 I I #
point $-1 -1 $-1 -12.50000000000000178 5.551115123125782702e-16 -40.9807621135331317 #
coedge $-1 -1 $-1 $150 $138 $219 $220 forward $74 $-1 #
coedge $-1 -1 $-1 $206 $221 $138 $177 reversed $222 $-1 #
edge $223 -1 $-1 $178 5.232050807568878525 $224 6.5 $176 $225 forward @7 unknown #
vertex $-1 -1 $-1 $207 $226 #
straight-curve $-1 -1 $-1 -6.249999999999996447 15 2.320508075688781702 -10 0 1.776356839400250267e-15 I I #
coedge $-1 -1 $-1 $214 $141 $227 $228 forward $82 $-1 #
coedge $-1 -1 $-1 $145 $144 $229 $230 forward $105 $-1 #
coedge $-1 -1 $-1 $151 $231 $144 $183 forward $195 $-1 #
edge $232 -1 $-1 $233 0 $154 1.5 $182 $234 forward @7 unknown #
coedge $-1 -1 $-1 $200 $227 $145 $185 reversed $157 $-1 #
edge $235 -1 $-1 $236 0 $187 2.5 $145 $237 forward @7 unknown #
DXID-attrib $-1 -1 $-1 $-1 $146 @10 ASM ENTITY @36 cf75d1c2-20f4-4e69-8148-7e485c937194 #
vertex $-1 -1 $-1 $146 $238 #
straight-curve $-1 -1 $-1 37.50000000000000711 25 -15.00000000000000888 -1.268826313857321591e-15 -0 -10 I I #
DXID-attrib $-1 -1 $-1 $-1 $147 @10 ASM ENTITY @36 a5e4e281-1ecc-4097-9c8c-f856bf95c06c #
face $239 -1 $-1 $240 $195 $5 $-1 $241 forward single #
plane-surface $-1 -1 $-1 37.50000000000000711 0 49.99999999999998579 1 0 -3.108624468950439102e-16 -3.108624468950439102e-15 0 -10 forward_v I I I I #
coedge $-1 -1 $-1 $242 $243 $150 $193 reversed $244 $-1 #
edge $245 -1 $-1 $246 -2.220446049250313081e-16 $197 3.499999999999999112 $192 $247 forward @7 unknown #
coedge $-1 -1 $-1 $231 $151 $243 $248 reversed $195 $-1 #
loop $-1 -1 $-1 $-1 $231 $190 #
DXID-attrib $-1 -1 $-1 $-1 $152 @10 ASM ENTITY @36 87e55dd6-6bc0-4db1-8e01-1dc21369119e #
vertex $-1 -1 $-1 $193 $249 #
straight-curve $-1 -1 $-1 -37.49999999999999289 15 50 10 0 -2.368475785867000488e-15 I I #
point $-1 -1 $-1 37.50000000000000711 15 49.99999999999998579 #
coedge $-1 -1 $-1 $250 $184 $202 $251 forward $157 $-1 #
ellipse-curve $-1 -1 $-1 -12.49999999999999645 25 -14.99999999999994849 -0 -1 -0 4.056299561223912945e-14 0 -28.86751345948128744 0.8660254037844387076 I I #
coedge $-1 -1 $-1 $229 $161 $200 $251 reversed $122 $-1 #
coedge $-1 -1 $-1 $161 $252 $253 $254 reversed $122 $-1 #
coedge $-1 -1 $-1 $221 $255 $161 $205 forward $222 $-1 #
edge $256 -1 $-1 $257 0 $258 6.5 $204 $259 forward @7 unknown #
coedge $-1 -1 $-1 $260 $176 $162 $207 forward $222 $-1 #
edge $261 -1 $-1 $178 1.098076211353314902 $210 3.098076211353315568 $206 $262 forward @7 unknown #
coedge $-1 -1 $-1 $163 $165 $167 $215 reversed $124 $-1 #
DXID-attrib $-1 -1 $-1 $-1 $164 @10 ASM ENTITY @36 663baac7-23ad-4c19-bbb3-872a6fa04903 #
vertex $-1 -1 $-1 $164 $263 #
ellipse-curve $-1 -1 $-1 -12.49999999999999645 24.99999999999997868 -14.9999999999999627 -8.881784197001250351e-17 -0.8660254037844387076 -0.499999999999999889 -25 2.220446049250312765e-14 -3.401836162917065766e-14 1 F -2.465300280936467769e-17 F 3.141592653589789563 #
DXID-attrib $-1 -1 $-1 $-1 $166 @10 ASM ENTITY @36 4886b9e9-351f-4973-ac76-cd78c2c89384 #
ellipse-curve $-1 -1 $-1 -12.49999999999999645 16.33974596215558961 -19.99999999999996092 -8.881784197001250351e-17 -0.8660254037844387076 -0.499999999999999889 -25 2.220446049250312765e-14 -3.401836162917065766e-14 1 I I #
coedge $-1 -1 $-1 $167 $180 $260 $264 forward $82 $-1 #
edge $-1 -1 $-1 $210 -1.570796326794896114 $168 -0.8054035005744415443 $167 $201 forward @7 unknown #
point $-1 -1 $-1 -30.52775637731989633 25 -35.00000000000000711 #
point $-1 -1 $-1 5.52775637731989633 25 -35.00000000000001421 #
point $-1 -1 $-1 -2.499999999999995559 24.99999999999997868 -14.99999999999996447 #
coedge $-1 -1 $-1 $265 $266 $175 $220 reversed $267 $-1 #
edge $268 -1 $-1 $224 0 $246 2.999999999999999112 $219 $269 forward @7 unknown #
coedge $-1 -1 $-1 $176 $204 $265 $270 forward $222 $-1 #
loop $-1 -1 $-1 $-1 $260 $271 #
DXID-attrib $-1 -1 $-1 $-1 $177 @10 ASM ENTITY @36 15eaf151-f63a-4ffa-a703-de136b9cb06c #
vertex $-1 -1 $-1 $177 $272 #
straight-curve $-1 -1 $-1 -37.50000000000000711 15 -50 1.776356839400250465e-15 0 10 I I #
point $-1 -1 $-1 -37.50000000000000711 15 2.320508075688784366 #
coedge $-1 -1 $-1 $184 $250 $180 $228 reversed $157 $-1 #
edge $273 -1 $-1 $187 4.440892098500626162e-16 $274 7.500000000000001776 $227 $275 forward @7 unknown #
coedge $-1 -1 $-1 $276 $202 $181 $230 reversed $122 $-1 #
edge $277 -1 $-1 $233 0 $236 9.999999999999998224 $181 $278 forward @7 unknown #
coedge $-1 -1 $-1 $182 $194 $276 $279 forward $195 $-1 #
DXID-attrib $-1 -1 $-1 $-1 $183 @10 ASM ENTITY @36 d52343e8-d1b2-4ddb-a589-16c5ad7fb65e #
vertex $-1 -1 $-1 $183 $280 #
straight-curve $-1 -1 $-1 37.50000000000000711 0 49.99999999999998579 0 10 0 I I #
DXID-attrib $-1 -1 $-1 $-1 $185 @10 ASM ENTITY @36 855db3ed-75e2-4d8b-8b80-5ca768c527ed #
vertex $-1 -1 $-1 $251 $281 #
straight-curve $-1 -1 $-1 37.49999999999997868 0 -50 0 10 0 I I #
point $-1 -1 $-1 37.50000000000000711 25 -50.00000000000000711 #
DXID-attrib $-1 -1 $-1 $-1 $190 @10 ASM ENTITY @36 719865e1-1807-41da-bf44-741edfe1b0cb #
face $282 -1 $-1 $283 $244 $5 $-1 $284 forward single #
plane-surface $-1 -1 $-1 -7.499999999999995559 0 49.99999999999999289 2.368475785867000587e-16 0 1 10 0 -2.368475785867000488e-15 forward_v I I I I #
coedge $-1 -1 $-1 $285 $192 $266 $286 reversed $244 $-1 #
coedge $-1 -1 $-1 $192 $285 $194 $248 forward $244 $-1 #
loop $-1 -1 $-1 $-1 $285 $240 #
DXID-attrib $-1 -1 $-1 $-1 $193 @10 ASM ENTITY @36 e34f0817-cea9-4bed-8da2-42142a4c080f #
vertex $-1 -1 $-1 $220 $287 #
straight-curve $-1 -1 $-1 -7.500000000000015987 15 14.99999999999999112 5.709718412357949725e-15 0 10 I I #
edge $288 -1 $-1 $289 0 $197 1.5 $243 $290 forward @7 unknown #
point $-1 -1 $-1 -7.499999999999995559 15 49.99999999999998579 #
coedge $-1 -1 $-1 $227 $200 $255 $291 forward $157 $-1 #
edge $292 -1 $-1 $236 0 $257 7.499999999999998224 $200 $293 forward @7 unknown #
coedge $-1 -1 $-1 $203 $276 $285 $294 reversed $122 $-1 #
coedge $-1 -1 $-1 $266 $265 $203 $254 forward $267 $-1 #
edge $295 -1 $-1 $258 0 $296 2.999999999999999112 $253 $297 forward @7 unknown #
coedge $-1 -1 $-1 $204 $260 $250 $291 reversed $222 $-1 #
DXID-attrib $-1 -1 $-1 $-1 $205 @10 ASM ENTITY @36 181cc1fc-0bc7-46ee-acf5-104d72a168ad #
vertex $-1 -1 $-1 $251 $298 #
vertex $-1 -1 $-1 $254 $299 #
straight-curve $-1 -1 $-1 -37.50000000000000711 0 -50 1.776356839400250465e-15 0 10 F 0 F 6.5 #
coedge $-1 -1 $-1 $255 $206 $214 $264 reversed $222 $-1 #
DXID-attrib $-1 -1 $-1 $-1 $207 @10 ASM ENTITY @36 845d976f-88c2-4fd2-897a-c597f008cbd2 #
straight-curve $-1 -1 $-1 -37.50000000000000711 9.509618943233427046 11.83012701892219631 4.195371431847654937e-15 4.999999999999999112 -8.660254037844387298 F 0 F 3.098076211353315568 #
point $-1 -1 $-1 -37.49999999999999289 25 -14.99999999999999645 #
edge $300 -1 $-1 $274 0 $210 3.500000000000000444 $260 $301 forward @7 unknown #
coedge $-1 -1 $-1 $253 $219 $221 $270 reversed $267 $-1 #
coedge $-1 -1 $-1 $219 $253 $242 $286 forward $267 $-1 #
loop $-1 -1 $-1 $-1 $253 $283 #
DXID-attrib $-1 -1 $-1 $-1 $220 @10 ASM ENTITY @36 482083bc-bfa4-4b26-b0b6-15ca807d3d8d #
straight-curve $-1 -1 $-1 -37.50000000000000711 15 15 10 0 -3.70074341541718952e-15 I I #
edge $302 -1 $-1 $258 0 $224 1.5 $221 $303 forward @7 unknown #
face $304 -1 $-1 $57 $222 $5 $-1 $305 forward single #
point $-1 -1 $-1 -37.50000000000000711 15 15 #
DXID-attrib $-1 -1 $-1 $-1 $228 @10 ASM ENTITY @36 88de9602-b594-451d-bb88-b727cc5de9ba #
vertex $-1 -1 $-1 $228 $306 #
straight-curve $-1 -1 $-1 37.50000000000000711 25 -50.00000000000000711 -10 0 1.184237892933500047e-15 I I #
coedge $-1 -1 $-1 $252 $229 $231 $279 reversed $122 $-1 #
DXID-attrib $-1 -1 $-1 $-1 $230 @10 ASM ENTITY @36 b65c470a-7ca8-4ec7-a9b5-86f8ac5514b6 #
straight-curve $-1 -1 $-1 37.50000000000000711 0 49.99999999999998579 -3.108624468950439102e-15 0 -10 F 0 F 9.999999999999998224 #
edge $307 -1 $-1 $289 2.999999999999999556 $233 7.5 $231 $308 forward @7 unknown #
point $-1 -1 $-1 37.50000000000000711 0 49.99999999999998579 #
point $-1 -1 $-1 37.49999999999997868 0 -50 #
DXID-attrib $-1 -1 $-1 $-1 $240 @10 ASM ENTITY @36 5030306d-da86-4af5-af30-0ed0b35daa8a #
face $309 -1 $-1 $271 $267 $5 $-1 $310 forward single #
plane-surface $-1 -1 $-1 -7.500000000000015987 0 14.99999999999998934 -1 0 5.709718412357949331e-16 5.709718412357949725e-15 0 10 forward_v I I I I #
coedge $-1 -1 $-1 $243 $242 $252 $294 forward $244 $-1 #
edge $311 -1 $-1 $296 0 $246 1.5 $266 $312 forward @7 unknown #
point $-1 -1 $-1 -7.500000000000017764 15 14.99999999999999112 #
DXID-attrib $-1 -1 $-1 $-1 $248 @10 ASM ENTITY @36 e747213c-61ee-4c23-807c-6860974686ba #
vertex $-1 -1 $-1 $279 $313 #
straight-curve $-1 -1 $-1 -7.499999999999995559 0 49.99999999999998579 0 10 0 I I #
edge $314 -1 $-1 $257 0 $274 2.5 $255 $315 forward @7 unknown #
DXID-attrib $-1 -1 $-1 $-1 $251 @10 ASM ENTITY @36 be5b9bd6-f7d7-4644-8ff5-29c306ba07a5 #
straight-curve $-1 -1 $-1 37.49999999999997868 0 -50 -10 0 0 F 0 F 7.499999999999998224 #
edge $316 -1 $-1 $296 -2.220446049250313081e-16 $289 3.499999999999999112 $285 $317 forward @7 unknown #
DXID-attrib $-1 -1 $-1 $-1 $254 @10 ASM ENTITY @36 3407aeaf-14ea-48a6-853b-539de8add285 #
vertex $-1 -1 $-1 $294 $318 #
straight-curve $-1 -1 $-1 -37.50000000000000711 0 15 10 0 -3.70074341541718952e-15 F 0 F 2.999999999999999112 #
point $-1 -1 $-1 -37.50000000000000711 0 -50 #
point $-1 -1 $-1 -37.50000000000000711 0 15 #
DXID-attrib $-1 -1 $-1 $-1 $264 @10 ASM ENTITY @36 e982be24-51f6-481d-8726-c8b0427459b7 #
straight-curve $-1 -1 $-1 -37.50000000000000711 25 -50 0 0 10 I I #
DXID-attrib $-1 -1 $-1 $-1 $270 @10 ASM ENTITY @36 3958710c-113b-4c66-95db-e6b4ab16004e #
straight-curve $-1 -1 $-1 -37.50000000000000711 0 15 0 10 0 I I #
DXID-attrib $-1 -1 $-1 $-1 $271 @10 ASM ENTITY @36 2150c5eb-52c6-47e5-a098-3ff7e01e4256 #
plane-surface $-1 -1 $-1 -37.50000000000000711 0 -50 -1 0 1.776356839400250563e-16 1.776356839400250465e-15 0 10 forward_v I I I I #
point $-1 -1 $-1 -37.50000000000001421 25 -50 #
DXID-attrib $-1 -1 $-1 $-1 $279 @10 ASM ENTITY @36 20f5596d-a253-4567-b824-227b2f271587 #
straight-curve $-1 -1 $-1 -37.49999999999999289 0 50 10 0 -2.368475785867000488e-15 F 2.999999999999999556 F 7.5 #
DXID-attrib $-1 -1 $-1 $-1 $283 @10 ASM ENTITY @36 3c18d40c-6512-429f-8d84-b57b379e4710 #
plane-surface $-1 -1 $-1 -37.50000000000000711 0 15 3.700743415417189619e-16 0 1 10 0 -3.70074341541718952e-15 forward_v I I I I #
DXID-attrib $-1 -1 $-1 $-1 $286 @10 ASM ENTITY @36 5197738c-8fa6-44a9-8037-52be118fc4ef #
straight-curve $-1 -1 $-1 -7.500000000000015987 0 14.99999999999998934 0 10 0 I I #
point $-1 -1 $-1 -7.499999999999995559 0 49.99999999999998579 #
DXID-attrib $-1 -1 $-1 $-1 $291 @10 ASM ENTITY @36 b2182cde-963a-4c21-9d0c-5a4e53e28eb1 #
straight-curve $-1 -1 $-1 -37.50000000000000711 0 -50 0 10 0 I I #
DXID-attrib $-1 -1 $-1 $-1 $294 @10 ASM ENTITY @36 a3a87b76-d560-45d4-9f55-4f2f91487623 #
straight-curve $-1 -1 $-1 -7.500000000000015987 0 14.99999999999999112 5.709718412357949725e-15 0 10 F -2.220446049250313081e-16 F 3.499999999999999112 #
point $-1 -1 $-1 -7.500000000000015987 0 14.99999999999998934 #
End-of-ACIS-data 