700 0 1 0           
30 Autodesk Translation Framework 20 ASM 229.3.0.65535 NT 24 Wed Feb 21 19:26:41 2024 
25.39999999999999858 9.999999999999999547e-07 1.000000000000000036e-10 
body $1 -1 $-1 $2 $-1 $3 #
rgb_color-st-attrib $-1 -1 $4 $-1 $0 0.7490196078431372584 0.7490196078431372584 0.7490196078431372584 #
lump $-1 -1 $-1 $-1 $5 $0 #
transform $-1 -1 1 0 0 0 1 0 0 0 1 0 0 0 1 no_rotate no_reflect no_shear #
DXID-attrib $-1 -1 $-1 $1 $0 @10 ASM ENTITY @103 PIEZA6-TAREA1.IPT|:|1FEDBDEE68FEF5B64EB72EBA8EB8EC2B69136D85|:|DA4B9237BACCCDF19C0760CAB7AEC4A8359010B0 #
shell $-1 -1 $-1 $-1 $-1 $6 $-1 $2 #
face $7 -1 $-1 $8 $9 $5 $-1 $10 forward single #
DXID-attrib $-1 -1 $-1 $-1 $6 @10 ASM ENTITY @36 23d0d1fb-67bd-410a-b417-473bb809899d #
face $11 -1 $-1 $12 $13 $5 $-1 $14 forward single #
loop $-1 -1 $-1 $-1 $15 $6 #
plane-surface $-1 -1 $-1 0 1.25 0 0 1 0 0 0 0.3937007874015747699 forward_v I I I I #
DXID-attrib $-1 -1 $-1 $-1 $8 @10 ASM ENTITY @36 efe17ee5-f66b-43ed-86e3-44de8880b977 #
face $16 -1 $-1 $17 $18 $5 $-1 $19 forward single #
loop $-1 -1 $-1 $-1 $20 $8 #
cone-surface $-1 -1 $-1 0 1.75 0 0 -1 0 0.75 0 0 1 I I 0 1 0.75 forward I I I I #
coedge $-1 -1 $-1 $15 $15 $21 $22 reversed $9 $-1 #
DXID-attrib $-1 -1 $-1 $-1 $12 @10 ASM ENTITY @36 57db5370-c117-473e-bd72-baae7fe57adc #
face $23 -1 $-1 $24 $25 $5 $-1 $26 forward single #
loop $-1 -1 $-1 $27 $21 $12 #
cone-surface $-1 -1 $-1 0 1.75 0 0 -1 0 -0.375 0 0 1 I I 0 -1 0.375 forward I I I I #
coedge $-1 -1 $-1 $28 $29 $30 $31 reversed $13 $-1 #
coedge $-1 -1 $-1 $21 $21 $15 $22 forward $18 $-1 #
edge $32 -1 $-1 $33 -6.283185307179586232 $33 -0 $21 $34 forward @7 unknown #
DXID-attrib $-1 -1 $-1 $-1 $17 @10 ASM ENTITY @36 d24befb9-6e9d-40c1-be4e-8fe74fc3ed84 #
face $35 -1 $-1 $36 $37 $5 $-1 $26 forward single #
loop $-1 -1 $-1 $-1 $38 $17 #
plane-surface $-1 -1 $-1 -5.245148147835384788e-16 0 -1.75 -1 0 0 0 0 0.3937007874015747699 forward_v I I I I #
loop $-1 -1 $-1 $-1 $39 $12 #
coedge $-1 -1 $-1 $40 $20 $41 $42 reversed $13 $-1 #
coedge $-1 -1 $-1 $20 $40 $43 $44 reversed $13 $-1 #
coedge $-1 -1 $-1 $45 $46 $20 $31 forward $37 $-1 #
edge $-1 -1 $-1 $47 -0.7559833627374366039 $48 0 $30 $49 forward @7 unknown #
DXID-attrib $-1 -1 $-1 $-1 $22 @10 ASM ENTITY @36 4435646f-7c5a-4358-b16a-168c55ce7481 #
vertex $-1 -1 $-1 $22 $50 #
ellipse-curve $-1 -1 $-1 0 1.25 0 0 -1 0 0.375 0 0 1 I I #
DXID-attrib $-1 -1 $-1 $-1 $24 @10 ASM ENTITY @36 1e0645d2-16fe-4ea1-b7cb-820a179670c3 #
face $51 -1 $-1 $52 $53 $5 $-1 $54 forward single #
loop $-1 -1 $-1 $-1 $30 $24 #
coedge $-1 -1 $-1 $55 $56 $40 $57 forward $25 $-1 #
coedge $-1 -1 $-1 $39 $39 $58 $59 reversed $27 $-1 #
coedge $-1 -1 $-1 $29 $28 $38 $57 reversed $13 $-1 #
coedge $-1 -1 $-1 $60 $61 $28 $42 forward $53 $-1 #
edge $-1 -1 $-1 $62 -3.121230311069458807 $47 3.121230311069456143 $41 $63 forward @7 unknown #
coedge $-1 -1 $-1 $64 $65 $29 $44 forward $66 $-1 #
edge $67 -1 $-1 $48 1.570796326794897224 $68 4.712388980384688786 $43 $69 forward @7 unknown #
coedge $-1 -1 $-1 $70 $30 $65 $71 reversed $37 $-1 #
coedge $-1 -1 $-1 $30 $70 $60 $72 forward $37 $-1 #
vertex $-1 -1 $-1 $42 $73 #
vertex $-1 -1 $-1 $44 $74 #
straight-curve $-1 -1 $-1 -5.245148147835384788e-16 1.75 -0.75 0 0.3937007874015747699 0 I I #
point $-1 -1 $-1 0.375 1.25 0 #
DXID-attrib $-1 -1 $-1 $-1 $36 @10 ASM ENTITY @36 e8d6143e-ca5d-49c2-be34-e665c44bc29f #
face $75 -1 $-1 $76 $77 $5 $-1 $78 forward single #
loop $-1 -1 $-1 $-1 $41 $36 #
cone-surface $-1 -1 $-1 0.3750000000000007216 -5.086204776939824568e-17 1.749999999999999556 -5.245148147835385774e-16 0 -1 1.5 0 -7.867722221753078661e-16 1 I I 0 1 1.5 forward I I I I #
coedge $-1 -1 $-1 $79 $38 $61 $80 forward $25 $-1 #
coedge $-1 -1 $-1 $38 $79 $64 $81 reversed $25 $-1 #
edge $-1 -1 $-1 $68 0 $62 0.7559833627374366039 $38 $82 forward @7 unknown #
coedge $-1 -1 $-1 $58 $58 $39 $59 forward $83 $-1 #
edge $-1 -1 $-1 $84 -4.712388980384688786 $84 1.570796326794897446 $58 $85 forward @7 unknown #
coedge $-1 -1 $-1 $86 $41 $46 $72 reversed $53 $-1 #
coedge $-1 -1 $-1 $41 $87 $55 $80 reversed $53 $-1 #
vertex $-1 -1 $-1 $80 $88 #
intcurve-curve $-1 -1 $-1 forward { surfintcur full nubs 3 open 13 
	-3.121230311069458807 3 -2.717204699749821373 2 -2.313179088430185715 2 -1.505127865790910846 2 -0.752563932895455423 2 
	-0.3762819664477277115 2 0 3 0.3762819664477271564 2 0.7525639328954543128 2 1.505127865790908626 2 
	2.313179088430182162 2 2.717204699749819152 2 3.121230311069456143 3 
	2.622574073917692394e-16 1.452368754827781272 0.75 
	-0.05133807296857673119 1.439113321385536048 0.75 
	-0.1033120312785354156 1.422729080562150195 0.7446574280508341248 
	-0.2047940384994911545 1.384477991440001832 0.7233584607480361139 
	-0.2543065124249209163 1.362615131438851046 0.7074159890722067079 
	-0.3946562281030752684 1.291749179131673975 0.6458971784091362967 
	-0.4771575506797015032 1.237136082155807948 0.5861492634958288539 
	-0.6020722921797605487 1.140667457162311438 0.455630082864410979 
	-0.6558039396889537853 1.090968331964312199 0.3764626952121942205 
	-0.7112387058897438052 1.034783895403450504 0.2428274140906599987 
	-0.7256790667893847635 1.01917292248924829 0.1957608578032521973 
	-0.7450653673281991685 0.9978283562252137084 0.0990455354655293968 
	-0.75 0.9921567416492212965 0.04938083549182810394 
	-0.750000000000000111 0.9921567416492212965 3.496765431890256525e-16 
	-0.750000000000000222 0.9921567416492212965 -0.04938083549182735454 
	-0.7450653673281992795 0.9978283562252134864 -0.09904553546552878618 
	-0.7256790667893850966 1.01917292248924829 -0.19576085780325167 
	-0.7112387058897441383 1.034783895403450504 -0.2428274140906594436 
	-0.6558039396889542294 1.090968331964311977 -0.3764626952121937209 
	-0.6020722921797609928 1.140667457162311438 -0.4556300828644100909 
	-0.4771575506797022803 1.237136082155807948 -0.5861492634958279657 
	-0.3946562281030762676 1.291749179131673753 -0.6458971784091356305 
	-0.2543065124249219155 1.362615131438851046 -0.7074159890722061528 
	-0.2047940384994919594 1.38447799144000161 -0.7233584607480358919 
	-0.1033120312785362066 1.422729080562150195 -0.7446574280508340138 
	-0.05133807296857771651 1.439113321385536048 -0.75 
	-7.867722221753077675e-16 1.452368754827781272 -0.75 
	0.0002025975211817814057 
	
	cone 0 1.75 0 0 -1 0 0.75 0 0 1 I I 0 1 0.75 forward I I I I 
	cone 0.3750000000000007216 -5.086204776939824568e-17 1.749999999999999556 -5.245148147835385774e-16 0 -1 1.5 0 -7.867722221753078661e-16 1 I I 0 1 1.5 forward I I I I 
	nullbs 
	nullbs 
	I I 
	0 
	0 
	0 
	} I I #
coedge $-1 -1 $-1 $89 $43 $56 $81 forward $66 $-1 #
coedge $-1 -1 $-1 $43 $90 $45 $71 forward $66 $-1 #
loop $-1 -1 $-1 $-1 $43 $91 #
DXID-attrib $-1 -1 $-1 $-1 $44 @10 ASM ENTITY @36 f444ce09-4355-46c5-bb54-b8958cb1ba31 #
vertex $-1 -1 $-1 $81 $92 #
ellipse-curve $-1 -1 $-1 0 1.75 0 0 1 0 0.75 0 0 1 I I #
coedge $-1 -1 $-1 $46 $45 $93 $94 reversed $37 $-1 #
edge $95 -1 $-1 $96 0 $48 2.540000000000000036 $45 $97 forward @7 unknown #
edge $-1 -1 $-1 $98 -8.890000000000000568 $47 -6.350000000000000533 $46 $99 forward @7 unknown #
point $-1 -1 $-1 -1.835801851742384725e-15 1.452368754827780828 -0.75 #
point $-1 -1 $-1 -5.245148147835384788e-16 1.75 -0.75 #
DXID-attrib $-1 -1 $-1 $-1 $52 @10 ASM ENTITY @36 e0f05146-f1a2-4244-b683-a388ba9a935d #
face $100 -1 $-1 $101 $102 $5 $-1 $103 forward single #
loop $-1 -1 $-1 $-1 $104 $52 #
plane-surface $-1 -1 $-1 -0.9999999999999992228 -1.748382715945128263e-16 1.750000000000000222 -1 0 5.245148147835385774e-16 0 0.3937007874015747699 0 forward_v I I I I #
coedge $-1 -1 $-1 $56 $55 $105 $106 forward $25 $-1 #
edge $-1 -1 $-1 $62 -2.540000000000000036 $107 1.805218114802020597e-30 $55 $99 forward @7 unknown #
edge $108 -1 $-1 $68 6.350000000000000533 $109 8.889999999999998792 $56 $97 forward @7 unknown #
straight-curve $-1 -1 $-1 -5.245148147835384788e-16 1.75 0.75 0 -0.3937007874015747699 0 I I #
loop $-1 -1 $-1 $66 $58 $91 #
vertex $-1 -1 $-1 $59 $110 #
ellipse-curve $-1 -1 $-1 0 1.75 0 -0 -1 -0 0.375 0 0 1 I I #
coedge $-1 -1 $-1 $111 $60 $112 $113 reversed $53 $-1 #
coedge $-1 -1 $-1 $61 $111 $114 $115 reversed $53 $-1 #
point $-1 -1 $-1 -1.049029629567076958e-15 1.452368754827780828 0.75 #
coedge $-1 -1 $-1 $116 $64 $117 $118 forward $66 $-1 #
coedge $-1 -1 $-1 $65 $119 $120 $121 forward $66 $-1 #
face $122 -1 $-1 $123 $83 $5 $-1 $124 forward single #
point $-1 -1 $-1 -5.245148147835384788e-16 1.75 0.75 #
coedge $-1 -1 $-1 $120 $112 $70 $94 forward $102 $-1 #
edge $125 -1 $-1 $98 3.689016637262564569 $96 4.445000000000000284 $93 $126 forward @7 unknown #
DXID-attrib $-1 -1 $-1 $-1 $71 @10 ASM ENTITY @36 b3ec6f2e-dc46-49b0-bbe3-481681f847d7 #
vertex $-1 -1 $-1 $94 $127 #
straight-curve $-1 -1 $-1 -5.245148147835384788e-16 1.75 -1.75 0 0 0.3937007874015747699 I I #
vertex $-1 -1 $-1 $94 $128 #
straight-curve $-1 -1 $-1 -5.245148147835384788e-16 1.452368754827780828 1.75 2.065018955840702791e-16 0 0.3937007874015747699 I I #
DXID-attrib $-1 -1 $-1 $-1 $76 @10 ASM ENTITY @36 5c067fbf-8123-4b5d-9313-11e7cad1a3b9 #
face $129 -1 $-1 $130 $131 $5 $-1 $132 forward single #
loop $-1 -1 $-1 $-1 $133 $76 #
plane-surface $-1 -1 $-1 0.9999999999999995559 0 -1.750000000000000222 -3.496765431890256032e-16 0 -1 -0.3937007874015747699 0 1.37667930389380145e-16 forward_v I I I I #
coedge $-1 -1 $-1 $134 $135 $136 $137 reversed $77 $-1 #
coedge $-1 -1 $-1 $114 $117 $79 $106 reversed $138 $-1 #
edge $139 -1 $-1 $107 3.689016637262564569 $109 4.445000000000000284 $105 $140 forward @7 unknown #
vertex $-1 -1 $-1 $106 $141 #
DXID-attrib $-1 -1 $-1 $-1 $81 @10 ASM ENTITY @36 2d31e33a-0720-4f95-bb0c-05215a7045d4 #
vertex $-1 -1 $-1 $106 $142 #
point $-1 -1 $-1 -5.245148147835384788e-16 1.75 0.375 #
coedge $-1 -1 $-1 $87 $86 $134 $143 reversed $53 $-1 #
coedge $-1 -1 $-1 $93 $144 $86 $113 forward $102 $-1 #
edge $145 -1 $-1 $146 -2.730454791267445724 $98 -1.823476581936975149 $86 $147 forward @7 unknown #
coedge $-1 -1 $-1 $136 $105 $87 $115 forward $138 $-1 #
edge $148 -1 $-1 $107 1.823476581936975149 $149 2.730454791267445724 $114 $150 forward @7 unknown #
coedge $-1 -1 $-1 $151 $89 $152 $153 forward $66 $-1 #
coedge $-1 -1 $-1 $105 $154 $89 $118 reversed $138 $-1 #
edge $155 -1 $-1 $109 2.539999999999996927 $156 5.080000000000000071 $117 $157 forward @7 unknown #
coedge $-1 -1 $-1 $90 $158 $159 $160 forward $66 $-1 #
coedge $-1 -1 $-1 $161 $93 $90 $121 reversed $102 $-1 #
edge $162 -1 $-1 $163 0 $96 2.54000000000000048 $120 $164 forward @7 unknown #
DXID-attrib $-1 -1 $-1 $-1 $91 @10 ASM ENTITY @36 5ec2463a-380f-4b06-bf04-84853c2f695a #
face $165 -1 $-1 $-1 $166 $5 $-1 $167 reversed single #
plane-surface $-1 -1 $-1 1.374999999999999778 1.75 -3.496765431890256525e-16 0 1 0 0 0 0.3937007874015747699 forward_v I I I I #
DXID-attrib $-1 -1 $-1 $-1 $94 @10 ASM ENTITY @36 4659fdf9-58a5-4f90-aed8-fadd274fc989 #
straight-curve $-1 -1 $-1 -5.245148147835384788e-16 0 -1.75 0 0.3937007874015747699 0 I I #
point $-1 -1 $-1 -5.245148147835384788e-16 1.75 -1.75 #
point $-1 -1 $-1 -1.005320061668448825e-15 1.452368754827781272 -1.75 #
DXID-attrib $-1 -1 $-1 $-1 $101 @10 ASM ENTITY @36 bec5c580-5bd1-486d-a42c-107e33979f4e #
face $168 -1 $-1 $169 $170 $5 $-1 $171 forward single #
loop $-1 -1 $-1 $-1 $172 $101 #
plane-surface $-1 -1 $-1 0.999999999999999889 0 -0.625000000000000111 1 0 -2.997227513048791941e-16 -1.180010831908973199e-16 0 -0.3937007874015747699 forward_v I I I I #
coedge $-1 -1 $-1 $144 $161 $173 $174 forward $102 $-1 #
coedge $-1 -1 $-1 $175 $104 $111 $143 forward $77 $-1 #
coedge $-1 -1 $-1 $104 $175 $176 $177 reversed $77 $-1 #
coedge $-1 -1 $-1 $178 $114 $104 $137 forward $138 $-1 #
edge $179 -1 $-1 $149 -0 $180 1.522676508651788163 $136 $181 forward @7 unknown #
loop $-1 -1 $-1 $-1 $178 $182 #
DXID-attrib $-1 -1 $-1 $-1 $106 @10 ASM ENTITY @36 7fc86aef-9ce7-4bbe-b0be-2565d700623b #
straight-curve $-1 -1 $-1 -5.245148147835384788e-16 0 1.749999999999999334 0 0.3937007874015747699 0 I I #
point $-1 -1 $-1 8.304817900739361959e-16 1.452368754827781272 1.75 #
point $-1 -1 $-1 -5.245148147835384788e-16 1.75 1.749999999999999334 #
edge $183 -1 $-1 $149 0 $146 8.890000000000000568 $111 $184 forward @7 unknown #
coedge $-1 -1 $-1 $112 $133 $175 $185 forward $102 $-1 #
DXID-attrib $-1 -1 $-1 $-1 $113 @10 ASM ENTITY @36 4932e797-ebce-4edf-8ee1-883e21e5a293 #
vertex $-1 -1 $-1 $143 $186 #
ellipse-curve $-1 -1 $-1 0.3749999999999988898 -5.086204776939824568e-17 -1.750000000000000222 -5.245148147835385774e-16 0 -1 1.5 0 -7.867722221753078661e-16 1 I I #
DXID-attrib $-1 -1 $-1 $-1 $115 @10 ASM ENTITY @36 076bf1b7-93d0-497f-8a30-01f22387e1cd #
vertex $-1 -1 $-1 $115 $187 #
ellipse-curve $-1 -1 $-1 0.3750000000000007216 -5.086204776939824568e-17 1.749999999999999556 5.245148147835385774e-16 0 1 1.5 0 -7.867722221753078661e-16 1 F 1.823476581936975149 F 2.730454791267445724 #
coedge $-1 -1 $-1 $188 $116 $189 $190 forward $66 $-1 #
coedge $-1 -1 $-1 $191 $192 $116 $153 reversed $193 $-1 #
edge $194 -1 $-1 $156 0 $195 2.857499999999999485 $152 $196 forward @7 unknown #
coedge $-1 -1 $-1 $117 $178 $191 $197 forward $138 $-1 #
DXID-attrib $-1 -1 $-1 $-1 $118 @10 ASM ENTITY @36 3999a5da-a545-4c5f-9c17-ff22ebc5de05 #
vertex $-1 -1 $-1 $197 $198 #
straight-curve $-1 -1 $-1 -0.9999999999999992228 1.75 1.750000000000000222 0.3937007874015747699 0 -2.065018955840702791e-16 I I #
coedge $-1 -1 $-1 $119 $199 $200 $201 forward $66 $-1 #
coedge $-1 -1 $-1 $202 $203 $119 $160 reversed $131 $-1 #
edge $204 -1 $-1 $205 6.032499999999998863 $163 8.890000000000000568 $159 $206 forward @7 unknown #
coedge $-1 -1 $-1 $133 $120 $203 $207 reversed $102 $-1 #
DXID-attrib $-1 -1 $-1 $-1 $121 @10 ASM ENTITY @36 b8864015-8451-40b7-a8a4-2612a2a49d66 #
vertex $-1 -1 $-1 $207 $208 #
straight-curve $-1 -1 $-1 0.9999999999999995559 1.75 -1.750000000000000222 -0.3937007874015747699 0 1.37667930389380145e-16 I I #
DXID-attrib $-1 -1 $-1 $-1 $123 @10 ASM ENTITY @36 ea38e0f8-f1eb-4c80-ab97-e1d27caf468e #
loop $-1 -1 $-1 $-1 $209 $123 #
plane-surface $-1 -1 $-1 1.374999999999999778 0 -3.496765431890256525e-16 0 1 0 0 0 0.3937007874015747699 forward_v I I I I #
DXID-attrib $-1 -1 $-1 $-1 $130 @10 ASM ENTITY @36 372cd08f-3b55-41cb-bffd-fcfa13fab7c2 #
face $210 -1 $-1 $211 $212 $5 $-1 $213 forward single #
loop $-1 -1 $-1 $-1 $214 $130 #
plane-surface $-1 -1 $-1 1.750000000000000222 0 -0.6250000000000006661 -5.994455026097583882e-16 0 -1 -0.3937007874015747699 0 2.360021663817946399e-16 forward_v I I I I #
coedge $-1 -1 $-1 $203 $202 $215 $216 forward $131 $-1 #
coedge $-1 -1 $-1 $215 $176 $133 $174 reversed $166 $-1 #
edge $217 -1 $-1 $218 0 $219 5.080000000000000959 $133 $220 forward @7 unknown #
coedge $-1 -1 $-1 $135 $134 $144 $185 reversed $77 $-1 #
coedge $-1 -1 $-1 $173 $209 $135 $177 forward $166 $-1 #
edge $221 -1 $-1 $180 0 $219 8.890000000000000568 $176 $222 forward @7 unknown #
coedge $-1 -1 $-1 $154 $136 $209 $223 forward $138 $-1 #
DXID-attrib $-1 -1 $-1 $-1 $137 @10 ASM ENTITY @36 8fcbcfde-6ba4-4a8a-ba77-b69785cbc90b #
vertex $-1 -1 $-1 $137 $224 #
straight-curve $-1 -1 $-1 -0.9999999999999992228 0.5994789404140895561 1.750000000000000222 -0 -0.3937007874015747699 -0 F -0 F 1.522676508651788163 #
face $225 -1 $-1 $91 $138 $5 $-1 $226 forward single #
DXID-attrib $-1 -1 $-1 $-1 $143 @10 ASM ENTITY @36 867948b3-9234-4698-a81b-710d5bce97d6 #
straight-curve $-1 -1 $-1 -0.9999999999999992228 0.5994789404140895561 1.750000000000000222 -2.065018955840702791e-16 0 -0.3937007874015747699 I I #
edge $227 -1 $-1 $219 -1.522676508651788163 $146 0 $175 $228 forward @7 unknown #
point $-1 -1 $-1 -1.00000000000000111 0.5994789404140895561 -1.749999999999999556 #
point $-1 -1 $-1 -0.9999999999999992228 0.5994789404140895561 1.750000000000000222 #
coedge $-1 -1 $-1 $229 $151 $230 $231 forward $66 $-1 #
coedge $-1 -1 $-1 $232 $233 $151 $190 reversed $234 $-1 #
edge $235 -1 $-1 $195 0 $236 1.905000000000000249 $189 $237 forward @7 unknown #
coedge $-1 -1 $-1 $238 $152 $154 $197 reversed $193 $-1 #
coedge $-1 -1 $-1 $152 $238 $232 $239 forward $193 $-1 #
loop $-1 -1 $-1 $-1 $238 $240 #
DXID-attrib $-1 -1 $-1 $-1 $153 @10 ASM ENTITY @36 8d355995-8b1d-4f0f-aeff-638562ffe3fb #
vertex $-1 -1 $-1 $239 $241 #
straight-curve $-1 -1 $-1 1.000000000000000666 1.75 1.749999999999999334 -1.180010831908973199e-16 0 -0.3937007874015747699 I I #
edge $242 -1 $-1 $243 0 $156 4.445000000000000284 $154 $244 forward @7 unknown #
point $-1 -1 $-1 1.000000000000000666 1.75 1.749999999999999334 #
coedge $-1 -1 $-1 $158 $245 $246 $247 forward $66 $-1 #
coedge $-1 -1 $-1 $248 $249 $158 $201 reversed $170 $-1 #
edge $250 -1 $-1 $251 2.539999999999999147 $205 4.445000000000000284 $200 $252 forward @7 unknown #
coedge $-1 -1 $-1 $172 $159 $249 $253 reversed $131 $-1 #
coedge $-1 -1 $-1 $159 $172 $161 $207 forward $131 $-1 #
DXID-attrib $-1 -1 $-1 $-1 $160 @10 ASM ENTITY @36 3ae48567-dbe3-4e2c-b354-c8a23aa40f29 #
vertex $-1 -1 $-1 $253 $254 #
straight-curve $-1 -1 $-1 1.000000000000000666 1.75 1.749999999999999334 -1.180010831908973199e-16 0 -0.3937007874015747699 I I #
edge $255 -1 $-1 $218 0 $163 4.445000000000000284 $203 $256 forward @7 unknown #
point $-1 -1 $-1 0.9999999999999995559 1.75 -1.750000000000000666 #
coedge $-1 -1 $-1 $176 $257 $178 $223 reversed $166 $-1 #
DXID-attrib $-1 -1 $-1 $-1 $169 @10 ASM ENTITY @36 5cf1c457-a2cf-4f47-af98-b941e3684eb1 #
face $258 -1 $-1 $259 $260 $5 $-1 $261 forward single #
loop $-1 -1 $-1 $-1 $262 $169 #
plane-surface $-1 -1 $-1 1.750000000000000222 0 -0.4375000000000006661 1 0 0 -0 -0 -0.3937007874015747699 forward_v I I I I #
coedge $-1 -1 $-1 $249 $248 $263 $264 forward $170 $-1 #
coedge $-1 -1 $-1 $263 $173 $172 $216 reversed $166 $-1 #
edge $265 -1 $-1 $266 6.032499999999998863 $218 8.890000000000000568 $172 $267 forward @7 unknown #
DXID-attrib $-1 -1 $-1 $-1 $174 @10 ASM ENTITY @36 c281f79f-8217-4e18-9a9e-203af7e1ac36 #
vertex $-1 -1 $-1 $216 $268 #
vertex $-1 -1 $-1 $177 $269 #
straight-curve $-1 -1 $-1 0.9999999999999995559 0 -1.750000000000000222 -0.3937007874015747699 0 1.37667930389380145e-16 F 0 F 5.080000000000000959 #
DXID-attrib $-1 -1 $-1 $-1 $177 @10 ASM ENTITY @36 b7dfd170-83df-4c97-835c-ac6152fcdce1 #
straight-curve $-1 -1 $-1 -0.9999999999999992228 -1.321543578572956558e-16 1.750000000000000222 -2.065018955840702791e-16 0 -0.3937007874015747699 I I #
edge $270 -1 $-1 $180 -3.552713678800500929e-15 $243 5.080000000000000071 $178 $271 forward @7 unknown #
point $-1 -1 $-1 -0.9999999999999992228 -1.321543578572956558e-16 1.750000000000000222 #
DXID-attrib $-1 -1 $-1 $-1 $182 @10 ASM ENTITY @36 dd7c25ce-7b24-499c-938c-b3bc7b673966 #
plane-surface $-1 -1 $-1 -5.245148147835384788e-16 0 1.75 5.245148147835385774e-16 0 1 0.3937007874015747699 0 -2.065018955840702791e-16 forward_v I I I I #
DXID-attrib $-1 -1 $-1 $-1 $185 @10 ASM ENTITY @36 51651dd1-f7c8-4526-a860-4e6a158dedd2 #
straight-curve $-1 -1 $-1 -1.00000000000000111 0.5994789404140895561 -1.749999999999999556 0 0.3937007874015747699 0 I I #
coedge $-1 -1 $-1 $272 $188 $273 $274 forward $66 $-1 #
coedge $-1 -1 $-1 $275 $276 $188 $231 reversed $277 $-1 #
edge $278 -1 $-1 $236 0 $279 0.4762500000000000622 $230 $280 forward @7 unknown #
coedge $-1 -1 $-1 $281 $189 $192 $239 reversed $234 $-1 #
coedge $-1 -1 $-1 $189 $281 $275 $282 forward $234 $-1 #
loop $-1 -1 $-1 $-1 $281 $283 #
DXID-attrib $-1 -1 $-1 $-1 $190 @10 ASM ENTITY @36 c33c55f2-f90e-43da-8684-dc82455cc77b #
vertex $-1 -1 $-1 $282 $284 #
straight-curve $-1 -1 $-1 1.000000000000000222 1.75 0.6249999999999995559 0.3937007874015747699 0 -3.146695551757261372e-16 I I #
coedge $-1 -1 $-1 $192 $191 $257 $285 forward $193 $-1 #
edge $286 -1 $-1 $287 0 $195 4.445000000000000284 $192 $288 forward @7 unknown #
face $289 -1 $-1 $182 $193 $5 $-1 $290 forward single #
point $-1 -1 $-1 1.000000000000000222 1.75 0.6249999999999995559 #
DXID-attrib $-1 -1 $-1 $-1 $197 @10 ASM ENTITY @36 2abcfc4f-4d15-4ee4-95db-018347b5bfb8 #
vertex $-1 -1 $-1 $223 $291 #
straight-curve $-1 -1 $-1 1.000000000000000666 0 1.749999999999999334 0 0.3937007874015747699 0 I I #
coedge $-1 -1 $-1 $199 $292 $293 $294 forward $66 $-1 #
coedge $-1 -1 $-1 $295 $296 $199 $247 reversed $212 $-1 #
edge $297 -1 $-1 $298 -0 $251 0.4762500000000002842 $246 $299 forward @7 unknown #
coedge $-1 -1 $-1 $214 $200 $296 $300 reversed $170 $-1 #
coedge $-1 -1 $-1 $200 $214 $202 $253 forward $170 $-1 #
DXID-attrib $-1 -1 $-1 $-1 $201 @10 ASM ENTITY @36 b25f9890-9675-4fc7-afdb-75022311b517 #
vertex $-1 -1 $-1 $300 $301 #
straight-curve $-1 -1 $-1 2.75 1.75 -0.6250000000000013323 -0.3937007874015747699 0 2.360021663817946399e-16 I I #
edge $302 -1 $-1 $266 0 $205 4.445000000000000284 $249 $303 forward @7 unknown #
point $-1 -1 $-1 0.999999999999999889 1.75 -0.625000000000000111 #
DXID-attrib $-1 -1 $-1 $-1 $207 @10 ASM ENTITY @36 55aa3559-bcc1-4b77-b9c9-47607546dbbc #
straight-curve $-1 -1 $-1 0.9999999999999995559 0 -1.750000000000000222 0 0.3937007874015747699 0 I I #
coedge $-1 -1 $-1 $209 $304 $238 $285 reversed $166 $-1 #
DXID-attrib $-1 -1 $-1 $-1 $211 @10 ASM ENTITY @36 d1c26f5f-55a9-42ba-be64-ad7066839644 #
face $305 -1 $-1 $306 $307 $5 $-1 $308 forward single #
loop $-1 -1 $-1 $-1 $309 $211 #
plane-surface $-1 -1 $-1 1.937500000000000444 0 -0.4375000000000007772 -4.662353909187006071e-16 0 -1 -0.3937007874015747699 0 1.835572405191734444e-16 forward_v I I I I #
coedge $-1 -1 $-1 $296 $295 $310 $311 forward $212 $-1 #
coedge $-1 -1 $-1 $310 $215 $214 $264 reversed $166 $-1 #
edge $312 -1 $-1 $313 2.539999999999999147 $266 4.445000000000000284 $214 $314 forward @7 unknown #
DXID-attrib $-1 -1 $-1 $-1 $216 @10 ASM ENTITY @36 6bb02e2d-98e6-4021-b942-34dd7a8c7c2b #
vertex $-1 -1 $-1 $264 $315 #
straight-curve $-1 -1 $-1 1.000000000000000666 0 1.749999999999999334 -1.180010831908973199e-16 0 -0.3937007874015747699 F 6.032499999999998863 F 8.890000000000000568 #
point $-1 -1 $-1 0.9999999999999995559 0 -1.750000000000000222 #
point $-1 -1 $-1 -1.00000000000000111 -1.748382715945128263e-16 -1.749999999999999556 #
DXID-attrib $-1 -1 $-1 $-1 $223 @10 ASM ENTITY @36 30c524e7-1ccf-46f4-9d1e-dbd668a7aea6 #
straight-curve $-1 -1 $-1 -0.9999999999999992228 0 1.750000000000000222 0.3937007874015747699 0 -2.065018955840702791e-16 F -3.552713678800500929e-15 F 5.080000000000000071 #
coedge $-1 -1 $-1 $316 $229 $317 $318 forward $66 $-1 #
coedge $-1 -1 $-1 $319 $320 $229 $274 reversed $321 $-1 #
edge $322 -1 $-1 $279 0 $323 0.4762500000000002842 $273 $324 forward @7 unknown #
coedge $-1 -1 $-1 $325 $230 $233 $282 reversed $277 $-1 #
coedge $-1 -1 $-1 $230 $325 $319 $326 forward $277 $-1 #
loop $-1 -1 $-1 $-1 $325 $327 #
DXID-attrib $-1 -1 $-1 $-1 $231 @10 ASM ENTITY @36 9588666c-e4ca-4926-893f-e393d89e5605 #
vertex $-1 -1 $-1 $326 $328 #
straight-curve $-1 -1 $-1 1.750000000000000222 1.75 0.6249999999999988898 0 0 -0.3937007874015747699 I I #
coedge $-1 -1 $-1 $233 $232 $304 $329 forward $234 $-1 #
edge $330 -1 $-1 $331 0 $236 4.445000000000000284 $233 $332 forward @7 unknown #
face $333 -1 $-1 $240 $234 $5 $-1 $334 forward single #
point $-1 -1 $-1 1.75 1.75 0.6249999999999988898 #
edge $335 -1 $-1 $243 0 $287 2.857499999999999485 $238 $336 forward @7 unknown #
DXID-attrib $-1 -1 $-1 $-1 $239 @10 ASM ENTITY @36 b3aa5221-11c7-4707-b031-84618eaf6bf4 #
vertex $-1 -1 $-1 $285 $337 #
straight-curve $-1 -1 $-1 1.000000000000000222 0 0.6249999999999995559 0 0.3937007874015747699 0 I I #
DXID-attrib $-1 -1 $-1 $-1 $240 @10 ASM ENTITY @36 ac522160-580a-46ba-b425-432a3b6e1a94 #
plane-surface $-1 -1 $-1 1.000000000000000666 0 1.749999999999999334 1 0 -2.997227513048791941e-16 -1.180010831908973199e-16 0 -0.3937007874015747699 forward_v I I I I #
point $-1 -1 $-1 1.000000000000000666 0 1.749999999999999334 #
coedge $-1 -1 $-1 $245 $338 $339 $340 forward $66 $-1 #
coedge $-1 -1 $-1 $341 $342 $245 $294 reversed $260 $-1 #
edge $343 -1 $-1 $344 0 $298 0.4762500000000002842 $293 $345 forward @7 unknown #
coedge $-1 -1 $-1 $262 $246 $342 $346 reversed $212 $-1 #
coedge $-1 -1 $-1 $246 $262 $248 $300 forward $212 $-1 #
DXID-attrib $-1 -1 $-1 $-1 $247 @10 ASM ENTITY @36 1faee087-a990-4bda-b8d7-b8e9bad7423d #
vertex $-1 -1 $-1 $346 $347 #
straight-curve $-1 -1 $-1 1.750000000000000222 1.75 -0.4375000000000006661 -0 -0 -0.3937007874015747699 I I #
edge $348 -1 $-1 $313 0 $251 4.445000000000000284 $296 $349 forward @7 unknown #
point $-1 -1 $-1 1.75 1.75 -0.6250000000000007772 #
DXID-attrib $-1 -1 $-1 $-1 $253 @10 ASM ENTITY @36 57526e7b-d6d3-477f-aec9-80930ee3c55f #
straight-curve $-1 -1 $-1 0.999999999999999889 0 -0.625000000000000222 0 0.3937007874015747699 0 I I #
coedge $-1 -1 $-1 $257 $350 $281 $329 reversed $166 $-1 #
DXID-attrib $-1 -1 $-1 $-1 $259 @10 ASM ENTITY @36 19f5aadb-deba-4c2a-ad05-66827a5fcd10 #
face $351 -1 $-1 $352 $353 $5 $-1 $354 forward single #
loop $-1 -1 $-1 $-1 $355 $259 #
plane-surface $-1 -1 $-1 1.937500000000000444 0 -0.6250000000000007772 -1 0 0 0 0 0.3937007874015747699 forward_v I I I I #
coedge $-1 -1 $-1 $342 $341 $356 $357 forward $260 $-1 #
coedge $-1 -1 $-1 $356 $263 $262 $311 reversed $166 $-1 #
edge $358 -1 $-1 $359 -0 $313 0.4762500000000002842 $262 $360 forward @7 unknown #
DXID-attrib $-1 -1 $-1 $-1 $264 @10 ASM ENTITY @36 e35ee6bd-97a0-47f0-b0c0-8753f8a94bf1 #
vertex $-1 -1 $-1 $311 $361 #
straight-curve $-1 -1 $-1 2.75 0 -0.6250000000000013323 -0.3937007874015747699 0 2.360021663817946399e-16 F 2.539999999999999147 F 4.445000000000000284 #
point $-1 -1 $-1 0.999999999999999889 0 -0.625000000000000222 #
coedge $-1 -1 $-1 $362 $272 $363 $364 forward $66 $-1 #
coedge $-1 -1 $-1 $365 $366 $272 $318 reversed $367 $-1 #
edge $368 -1 $-1 $323 0 $369 0.4762500000000000622 $317 $370 forward @7 unknown #
coedge $-1 -1 $-1 $371 $273 $276 $326 reversed $321 $-1 #
coedge $-1 -1 $-1 $273 $371 $365 $372 forward $321 $-1 #
loop $-1 -1 $-1 $-1 $371 $373 #
DXID-attrib $-1 -1 $-1 $-1 $274 @10 ASM ENTITY @36 fff1c8cc-f63f-46aa-bd28-6000285b5669 #
vertex $-1 -1 $-1 $372 $374 #
straight-curve $-1 -1 $-1 1.750000000000000222 1.75 0.4374999999999988343 0.3937007874015747699 0 0 I I #
coedge $-1 -1 $-1 $276 $275 $350 $375 forward $277 $-1 #
edge $376 -1 $-1 $377 0 $279 4.445000000000000284 $276 $378 forward @7 unknown #
face $379 -1 $-1 $283 $277 $5 $-1 $380 forward single #
point $-1 -1 $-1 1.75 1.75 0.4374999999999989453 #
edge $381 -1 $-1 $287 0 $331 1.905000000000000249 $281 $382 forward @7 unknown #
DXID-attrib $-1 -1 $-1 $-1 $282 @10 ASM ENTITY @36 41ba6861-d921-4ff2-8177-4a1c8c13ad0c #
vertex $-1 -1 $-1 $329 $383 #
straight-curve $-1 -1 $-1 1.750000000000000222 0 0.6249999999999988898 0 0.3937007874015747699 0 I I #
DXID-attrib $-1 -1 $-1 $-1 $283 @10 ASM ENTITY @36 a7726dc2-dc45-4b59-b7d1-7c772b33b1b0 #
plane-surface $-1 -1 $-1 1.000000000000000222 0 0.6249999999999995559 7.99260670146344419e-16 0 1 0.3937007874015747699 0 -3.146695551757261372e-16 forward_v I I I I #
DXID-attrib $-1 -1 $-1 $-1 $285 @10 ASM ENTITY @36 f3f7b649-9bc4-4b05-b06d-cf17d174b5f8 #
straight-curve $-1 -1 $-1 1.000000000000000666 0 1.749999999999999334 -1.180010831908973199e-16 0 -0.3937007874015747699 F 0 F 2.857499999999999485 #
point $-1 -1 $-1 1.000000000000000222 0 0.6249999999999995559 #
coedge $-1 -1 $-1 $292 $362 $384 $385 forward $66 $-1 #
coedge $-1 -1 $-1 $386 $387 $292 $340 reversed $307 $-1 #
edge $388 -1 $-1 $389 0 $344 0.4762500000000000622 $339 $390 forward @7 unknown #
coedge $-1 -1 $-1 $309 $293 $387 $391 reversed $260 $-1 #
coedge $-1 -1 $-1 $293 $309 $295 $346 forward $260 $-1 #
DXID-attrib $-1 -1 $-1 $-1 $294 @10 ASM ENTITY @36 5e970ffa-9577-4867-9f27-366afbe443aa #
vertex $-1 -1 $-1 $391 $392 #
straight-curve $-1 -1 $-1 1.937500000000000444 1.75 -0.4375000000000007772 -0.3937007874015747699 0 1.835572405191734444e-16 I I #
edge $393 -1 $-1 $359 0 $298 4.445000000000000284 $342 $394 forward @7 unknown #
point $-1 -1 $-1 1.75 1.75 -0.4375000000000006661 #
DXID-attrib $-1 -1 $-1 $-1 $300 @10 ASM ENTITY @36 ace3c10c-e32f-49ca-b39c-f164419395ba #
straight-curve $-1 -1 $-1 1.750000000000000222 0 -0.6250000000000007772 0 0.3937007874015747699 0 I I #
coedge $-1 -1 $-1 $304 $395 $325 $375 reversed $166 $-1 #
DXID-attrib $-1 -1 $-1 $-1 $306 @10 ASM ENTITY @36 b7345af9-7b0d-4b7e-b924-ed2696910114 #
face $396 -1 $-1 $397 $398 $5 $-1 $399 forward single #
loop $-1 -1 $-1 $-1 $400 $306 #
plane-surface $-1 -1 $-1 2.75 0 -0.6250000000000013323 -5.994455026097583882e-16 0 -1 -0.3937007874015747699 0 2.360021663817946399e-16 forward_v I I I I #
coedge $-1 -1 $-1 $387 $386 $401 $402 forward $307 $-1 #
coedge $-1 -1 $-1 $401 $310 $309 $357 reversed $166 $-1 #
edge $403 -1 $-1 $404 0 $359 0.4762500000000002842 $309 $405 forward @7 unknown #
DXID-attrib $-1 -1 $-1 $-1 $311 @10 ASM ENTITY @36 f65064c9-b443-4c27-b7e8-114f67c72d29 #
vertex $-1 -1 $-1 $357 $406 #
straight-curve $-1 -1 $-1 1.750000000000000222 0 -0.4375000000000006661 -0 -0 -0.3937007874015747699 F -0 F 0.4762500000000002842 #
point $-1 -1 $-1 1.750000000000000222 0 -0.6250000000000007772 #
coedge $-1 -1 $-1 $338 $316 $407 $408 forward $66 $-1 #
coedge $-1 -1 $-1 $409 $410 $316 $364 reversed $411 $-1 #
edge $412 -1 $-1 $369 2.381250000000000533 $413 4.445000000000000284 $363 $414 forward @7 unknown #
coedge $-1 -1 $-1 $415 $317 $320 $372 reversed $367 $-1 #
coedge $-1 -1 $-1 $317 $415 $409 $416 forward $367 $-1 #
loop $-1 -1 $-1 $-1 $415 $417 #
DXID-attrib $-1 -1 $-1 $-1 $318 @10 ASM ENTITY @36 2b65d95c-b76c-42f9-9b41-50cdaa8af344 #
vertex $-1 -1 $-1 $416 $418 #
straight-curve $-1 -1 $-1 1.937500000000000444 1.75 0.4374999999999988343 0 0 0.3937007874015747699 I I #
coedge $-1 -1 $-1 $320 $319 $395 $419 forward $321 $-1 #
edge $420 -1 $-1 $421 0 $323 4.445000000000000284 $320 $422 forward @7 unknown #
face $423 -1 $-1 $327 $321 $5 $-1 $424 forward single #
point $-1 -1 $-1 1.9375 1.75 0.4374999999999989453 #
edge $425 -1 $-1 $331 0 $377 0.4762500000000000622 $325 $426 forward @7 unknown #
DXID-attrib $-1 -1 $-1 $-1 $326 @10 ASM ENTITY @36 5499e940-df8f-49d8-94d8-59187fcae661 #
vertex $-1 -1 $-1 $375 $427 #
straight-curve $-1 -1 $-1 1.750000000000000222 0 0.4374999999999988343 0 0.3937007874015747699 0 I I #
DXID-attrib $-1 -1 $-1 $-1 $327 @10 ASM ENTITY @36 0ef6d7cb-5171-4725-8ff5-bcf9590b6f7e #
plane-surface $-1 -1 $-1 1.750000000000000222 0 0.6249999999999988898 1 0 0 0 0 -0.3937007874015747699 forward_v I I I I #
DXID-attrib $-1 -1 $-1 $-1 $329 @10 ASM ENTITY @36 33c807f0-56d3-4f2e-b6e2-af69956c53fa #
straight-curve $-1 -1 $-1 1.000000000000000222 0 0.6249999999999995559 0.3937007874015747699 0 -3.146695551757261372e-16 F 0 F 1.905000000000000249 #
point $-1 -1 $-1 1.750000000000000222 0 0.6249999999999988898 #
coedge $-1 -1 $-1 $428 $429 $338 $385 reversed $353 $-1 #
edge $430 -1 $-1 $431 0 $389 2.063749999999998863 $384 $432 forward @7 unknown #
coedge $-1 -1 $-1 $355 $339 $429 $433 reversed $307 $-1 #
coedge $-1 -1 $-1 $339 $355 $341 $391 forward $307 $-1 #
DXID-attrib $-1 -1 $-1 $-1 $340 @10 ASM ENTITY @36 40e079f7-47cd-4557-9ab2-dbdba1496b4e #
vertex $-1 -1 $-1 $433 $434 #
straight-curve $-1 -1 $-1 1.937500000000000444 1.75 -0.6250000000000007772 0 0 0.3937007874015747699 I I #
edge $435 -1 $-1 $404 0 $344 4.445000000000000284 $387 $436 forward @7 unknown #
point $-1 -1 $-1 1.9375 1.75 -0.4375000000000006661 #
DXID-attrib $-1 -1 $-1 $-1 $346 @10 ASM ENTITY @36 d9f6db4c-061d-490d-886d-194479c0621f #
straight-curve $-1 -1 $-1 1.750000000000000222 0 -0.4375000000000006661 0 0.3937007874015747699 0 I I #
coedge $-1 -1 $-1 $350 $437 $371 $419 reversed $166 $-1 #
DXID-attrib $-1 -1 $-1 $-1 $352 @10 ASM ENTITY @36 f417d2ff-98fb-4888-b04f-dfc144619f0e #
face $438 -1 $-1 $417 $411 $5 $-1 $439 forward single #
loop $-1 -1 $-1 $-1 $440 $352 #
plane-surface $-1 -1 $-1 2.750000000000000444 0 0.6249999999999981126 1 0 -2.797412345512206403e-16 -1.101343443115041751e-16 -0 -0.3937007874015747699 forward_v I I I I #
coedge $-1 -1 $-1 $429 $428 $441 $442 forward $353 $-1 #
coedge $-1 -1 $-1 $441 $356 $355 $402 reversed $166 $-1 #
edge $443 -1 $-1 $444 0 $404 0.4762500000000000622 $355 $445 forward @7 unknown #
DXID-attrib $-1 -1 $-1 $-1 $357 @10 ASM ENTITY @36 3f71f0dd-1d88-494e-8f85-a9adf7ae3e43 #
vertex $-1 -1 $-1 $402 $446 #
straight-curve $-1 -1 $-1 1.937500000000000444 0 -0.4375000000000007772 -0.3937007874015747699 0 1.835572405191734444e-16 F 0 F 0.4762500000000002842 #
point $-1 -1 $-1 1.750000000000000222 0 -0.4375000000000006661 #
coedge $-1 -1 $-1 $447 $448 $362 $408 reversed $398 $-1 #
edge $449 -1 $-1 $413 -0 $431 3.174999999999998934 $407 $450 forward @7 unknown #
coedge $-1 -1 $-1 $451 $363 $366 $416 reversed $411 $-1 #
coedge $-1 -1 $-1 $363 $451 $447 $452 forward $411 $-1 #
loop $-1 -1 $-1 $-1 $451 $397 #
DXID-attrib $-1 -1 $-1 $-1 $364 @10 ASM ENTITY @36 f254f216-01d8-4e5b-966e-441bfb56b6f3 #
vertex $-1 -1 $-1 $452 $453 #
straight-curve $-1 -1 $-1 1.000000000000000222 1.75 0.6249999999999995559 0.3937007874015747699 0 -3.146695551757261372e-16 I I #
coedge $-1 -1 $-1 $366 $365 $437 $454 forward $367 $-1 #
edge $455 -1 $-1 $456 0 $369 4.445000000000000284 $366 $457 forward @7 unknown #
face $458 -1 $-1 $373 $367 $5 $-1 $459 forward single #
point $-1 -1 $-1 1.9375 1.75 0.6249999999999988898 #
edge $460 -1 $-1 $377 0 $421 0.4762500000000002842 $371 $461 forward @7 unknown #
DXID-attrib $-1 -1 $-1 $-1 $372 @10 ASM ENTITY @36 b7a3994d-e0e9-4c99-b4f3-d11d8affc58e #
vertex $-1 -1 $-1 $419 $462 #
straight-curve $-1 -1 $-1 1.937500000000000444 0 0.4374999999999988343 0 0.3937007874015747699 0 I I #
DXID-attrib $-1 -1 $-1 $-1 $373 @10 ASM ENTITY @36 9aa1af94-9e7f-44f4-bf15-a38a07ffb4d8 #
plane-surface $-1 -1 $-1 1.750000000000000222 0 0.4374999999999988343 0 0 1 0.3937007874015747699 0 0 forward_v I I I I #
DXID-attrib $-1 -1 $-1 $-1 $375 @10 ASM ENTITY @36 b7bf0e51-4137-4b63-8d9e-8efa530f4783 #
straight-curve $-1 -1 $-1 1.750000000000000222 0 0.6249999999999988898 0 0 -0.3937007874015747699 F 0 F 0.4762500000000000622 #
point $-1 -1 $-1 1.750000000000000222 0 0.4374999999999988343 #
coedge $-1 -1 $-1 $400 $384 $448 $463 reversed $353 $-1 #
coedge $-1 -1 $-1 $384 $400 $386 $433 forward $353 $-1 #
DXID-attrib $-1 -1 $-1 $-1 $385 @10 ASM ENTITY @36 55ebd174-352c-4e8f-9323-483d0831df75 #
vertex $-1 -1 $-1 $463 $464 #
straight-curve $-1 -1 $-1 2.75 1.75 -0.6250000000000013323 -0.3937007874015747699 0 2.360021663817946399e-16 I I #
edge $465 -1 $-1 $444 0 $389 4.445000000000000284 $429 $466 forward @7 unknown #
point $-1 -1 $-1 1.9375 1.75 -0.6250000000000007772 #
DXID-attrib $-1 -1 $-1 $-1 $391 @10 ASM ENTITY @36 50a74add-6e50-4cee-9cd4-f4281f731a14 #
straight-curve $-1 -1 $-1 1.937500000000000444 0 -0.4375000000000007772 0 0.3937007874015747699 0 I I #
coedge $-1 -1 $-1 $395 $467 $415 $454 reversed $166 $-1 #
DXID-attrib $-1 -1 $-1 $-1 $397 @10 ASM ENTITY @36 a82f2c4f-14ba-4d45-9357-52f4a3f2558b #
plane-surface $-1 -1 $-1 1.937500000000000444 0 0.6249999999999987788 7.99260670146344419e-16 0 1 0.3937007874015747699 0 -3.146695551757261372e-16 forward_v I I I I #
coedge $-1 -1 $-1 $448 $447 $468 $469 forward $398 $-1 #
coedge $-1 -1 $-1 $468 $401 $400 $442 reversed $166 $-1 #
edge $470 -1 $-1 $471 0 $444 2.063749999999998863 $400 $472 forward @7 unknown #
DXID-attrib $-1 -1 $-1 $-1 $402 @10 ASM ENTITY @36 af23791a-f817-4e27-b26d-3e35dc91df59 #
vertex $-1 -1 $-1 $442 $473 #
straight-curve $-1 -1 $-1 1.937500000000000444 0 -0.6250000000000007772 0 0 0.3937007874015747699 F 0 F 0.4762500000000000622 #
point $-1 -1 $-1 1.937500000000000444 0 -0.4375000000000007772 #
coedge $-1 -1 $-1 $440 $407 $410 $452 reversed $398 $-1 #
coedge $-1 -1 $-1 $407 $440 $428 $463 forward $398 $-1 #
DXID-attrib $-1 -1 $-1 $-1 $408 @10 ASM ENTITY @36 baeda73a-4b06-40e0-878e-38affcb93675 #
straight-curve $-1 -1 $-1 2.750000000000000444 1.75 0.6249999999999981126 -1.101343443115041751e-16 -0 -0.3937007874015747699 I I #
coedge $-1 -1 $-1 $410 $409 $467 $474 forward $411 $-1 #
edge $475 -1 $-1 $476 0 $413 4.445000000000000284 $410 $477 forward @7 unknown #
point $-1 -1 $-1 2.750000000000000444 1.75 0.6249999999999981126 #
edge $478 -1 $-1 $421 0 $456 0.4762500000000000622 $415 $479 forward @7 unknown #
DXID-attrib $-1 -1 $-1 $-1 $416 @10 ASM ENTITY @36 b2760b7b-e8a6-48b8-80b9-6c95d0b325ad #
vertex $-1 -1 $-1 $454 $480 #
straight-curve $-1 -1 $-1 1.937500000000000444 0 0.6249999999999988898 0 0.3937007874015747699 0 I I #
DXID-attrib $-1 -1 $-1 $-1 $417 @10 ASM ENTITY @36 ccfefb30-4c75-4fbd-9c4f-ec3615eaf569 #
plane-surface $-1 -1 $-1 1.937500000000000444 0 0.4374999999999988343 -1 0 0 0 0 0.3937007874015747699 forward_v I I I I #
DXID-attrib $-1 -1 $-1 $-1 $419 @10 ASM ENTITY @36 0f6443af-6bf5-4648-add7-d3be82cd4670 #
straight-curve $-1 -1 $-1 1.750000000000000222 0 0.4374999999999988343 0.3937007874015747699 0 0 F 0 F 0.4762500000000002842 #
point $-1 -1 $-1 1.937500000000000444 0 0.4374999999999988343 #
edge $481 -1 $-1 $471 0 $431 4.445000000000000284 $448 $482 forward @7 unknown #
point $-1 -1 $-1 2.749999999999999556 1.75 -0.6250000000000014433 #
DXID-attrib $-1 -1 $-1 $-1 $433 @10 ASM ENTITY @36 706c9cba-9c46-40b8-b92c-05c58fd4bacf #
straight-curve $-1 -1 $-1 1.937500000000000444 0 -0.6250000000000007772 0 0.3937007874015747699 0 I I #
coedge $-1 -1 $-1 $437 $468 $451 $474 reversed $166 $-1 #
coedge $-1 -1 $-1 $467 $441 $440 $469 reversed $166 $-1 #
edge $483 -1 $-1 $476 -0 $471 3.174999999999998934 $440 $484 forward @7 unknown #
DXID-attrib $-1 -1 $-1 $-1 $442 @10 ASM ENTITY @36 b4c1d5bc-d6ff-486c-8ad5-ec0d9940b3d4 #
vertex $-1 -1 $-1 $469 $485 #
straight-curve $-1 -1 $-1 2.75 0 -0.6250000000000013323 -0.3937007874015747699 0 2.360021663817946399e-16 F 0 F 2.063749999999998863 #
point $-1 -1 $-1 1.937500000000000444 0 -0.6250000000000007772 #
edge $486 -1 $-1 $456 2.381250000000000533 $476 4.445000000000000284 $451 $487 forward @7 unknown #
DXID-attrib $-1 -1 $-1 $-1 $452 @10 ASM ENTITY @36 69a625bc-b244-4572-ae25-c8dbc2d11374 #
vertex $-1 -1 $-1 $474 $488 #
straight-curve $-1 -1 $-1 2.750000000000000444 0 0.6249999999999981126 0 0.3937007874015747699 0 I I #
DXID-attrib $-1 -1 $-1 $-1 $454 @10 ASM ENTITY @36 74cfc5f2-06e9-4346-9ead-fd22d188938f #
straight-curve $-1 -1 $-1 1.937500000000000444 0 0.4374999999999988343 0 0 0.3937007874015747699 F 0 F 0.4762500000000000622 #
point $-1 -1 $-1 1.937500000000000444 0 0.6249999999999988898 #
DXID-attrib $-1 -1 $-1 $-1 $463 @10 ASM ENTITY @36 c49c3be0-a58f-4453-85a4-456c17f89bd0 #
straight-curve $-1 -1 $-1 2.75 0 -0.6250000000000013323 0 0.3937007874015747699 0 I I #
DXID-attrib $-1 -1 $-1 $-1 $469 @10 ASM ENTITY @36 325ec6b9-6b95-4d1c-9e8d-ddd0790d3644 #
straight-curve $-1 -1 $-1 2.750000000000000444 0 0.6249999999999981126 -1.101343443115041751e-16 -0 -0.3937007874015747699 F -0 F 3.174999999999998934 #
point $-1 -1 $-1 2.75 0 -0.6250000000000013323 #
DXID-attrib $-1 -1 $-1 $-1 $474 @10 ASM ENTITY @36 bcc35129-1f95-4c3f-b9bd-4ffaf98ffe04 #
straight-curve $-1 -1 $-1 1.000000000000000222 0 0.6249999999999995559 0.3937007874015747699 0 -3.146695551757261372e-16 F 2.381250000000000533 F 4.445000000000000284 #
point $-1 -1 $-1 2.750000000000000444 0 0.6249999999999981126 #
End-of-ACIS-data 