700 0 1 0           
30 Autodesk Translation Framework 20 ASM 229.3.0.65535 NT 24 Wed Feb 21 19:24:27 2024 
25.39999999999999858 9.999999999999999547e-07 1.000000000000000036e-10 
body $1 -1 $-1 $2 $-1 $3 #
rgb_color-st-attrib $-1 -1 $4 $-1 $0 0.7490196078431372584 0.7490196078431372584 0.7490196078431372584 #
lump $-1 -1 $-1 $-1 $5 $0 #
transform $-1 -1 1 0 0 0 1 0 0 0 1 0 0 0 1 no_rotate no_reflect no_shear #
DXID-attrib $-1 -1 $-1 $1 $0 @10 ASM ENTITY @103 PIEZA1-TAREA1.IPT|:|B0FD47A0D9CF8ED3C714808E01281BDBE5F966AB|:|DA4B9237BACCCDF19C0760CAB7AEC4A8359010B0 #
shell $-1 -1 $-1 $-1 $-1 $6 $-1 $2 #
face $7 -1 $-1 $8 $9 $5 $-1 $10 reversed single #
DXID-attrib $-1 -1 $-1 $-1 $6 @10 ASM ENTITY @36 a71afecc-5a6c-4172-9169-708e8d2ecd25 #
face $11 -1 $-1 $12 $13 $5 $-1 $14 reversed single #
loop $-1 -1 $-1 $-1 $15 $6 #
plane-surface $-1 -1 $-1 -1.30069239642026524 -0.6354850513682164248 0.4250000000000000999 -3.496765431890249623e-16 -2.018858463394823131e-16 1 -0.3409548833796999245 -0.1968503937007879401 -1.589652333381744671e-16 forward_v I I I I #
DXID-attrib $-1 -1 $-1 $-1 $8 @10 ASM ENTITY @36 448145bc-a4b8-4748-99a7-82affc7609a3 #
face $16 -1 $-1 $17 $18 $5 $-1 $19 reversed single #
loop $-1 -1 $-1 $-1 $20 $8 #
cone-surface $-1 -1 $-1 -1.132987298107781537 -0.5386604677130307772 0.375000000000000222 0.5000000000000017764 -0.8660254037844375974 0 0.1732050807568875084 0.1000000000000003386 8.075433853579263681e-17 1 I I 0 1 0.1999999999999999833 forward I I I I #
coedge $-1 -1 $-1 $21 $22 $23 $24 reversed $9 $-1 #
DXID-attrib $-1 -1 $-1 $-1 $12 @10 ASM ENTITY @36 01a9bfad-35ac-467b-8fd3-dd1f4cc61013 #
face $25 -1 $-1 $26 $27 $5 $-1 $28 forward single #
loop $-1 -1 $-1 $-1 $29 $12 #
plane-surface $-1 -1 $-1 -1.566000000000000503 -0.7886604677130317764 0.3250000000000001221 1.025507504740882443e-16 5.920770339181326762e-17 -1 0.3409548833796999245 0.1968503937007879401 4.662023889119137883e-17 forward_v I I I I #
coedge $-1 -1 $-1 $30 $31 $32 $33 reversed $13 $-1 #
coedge $-1 -1 $-1 $34 $15 $31 $35 forward $9 $-1 #
coedge $-1 -1 $-1 $15 $34 $36 $37 reversed $9 $-1 #
coedge $-1 -1 $-1 $38 $32 $15 $24 forward $39 $-1 #
edge $-1 -1 $-1 $40 1.211932088369586324 $41 1.990063203401245762 $23 $42 forward @7 unknown #
DXID-attrib $-1 -1 $-1 $-1 $17 @10 ASM ENTITY @36 71c0b8b9-3dca-4c3f-ae14-c9bcae457f44 #
face $43 -1 $-1 $44 $45 $5 $-1 $46 forward single #
loop $-1 -1 $-1 $-1 $47 $17 #
plane-surface $-1 -1 $-1 -1.465999999999999748 -0.9618655484699188962 0 0.5000000000000013323 -0.8660254037844379305 0 0.3409548833796999245 0.1968503937007879123 0 forward_v I I I I #
coedge $-1 -1 $-1 $48 $49 $50 $51 reversed $18 $-1 #
coedge $-1 -1 $-1 $52 $20 $49 $53 forward $13 $-1 #
coedge $-1 -1 $-1 $20 $52 $21 $35 reversed $13 $-1 #
coedge $-1 -1 $-1 $23 $50 $20 $33 forward $39 $-1 #
edge $-1 -1 $-1 $54 -2.888912398447713858 $40 2.888912398447714303 $32 $55 forward @7 unknown #
coedge $-1 -1 $-1 $22 $21 $47 $56 reversed $9 $-1 #
edge $57 -1 $-1 $40 0 $58 0.5080000000000000071 $31 $59 forward @7 unknown #
coedge $-1 -1 $-1 $60 $61 $22 $37 forward $62 $-1 #
edge $-1 -1 $-1 $41 2.65599192130011184e-16 $63 0.5080000000000002292 $36 $64 forward @7 unknown #
coedge $-1 -1 $-1 $65 $23 $61 $66 forward $39 $-1 #
loop $-1 -1 $-1 $-1 $50 $44 #
vertex $-1 -1 $-1 $24 $67 #
vertex $-1 -1 $-1 $66 $68 #
straight-curve $-1 -1 $-1 -0.8874782325660969251 -0.3969157426340453321 0.4250000000000002665 -0.3409548833796999245 -0.1968503937007879401 -1.589652333381744918e-16 I I #
DXID-attrib $-1 -1 $-1 $-1 $26 @10 ASM ENTITY @36 d74b046d-ea7f-4638-9065-894d9f404b95 #
face $69 -1 $-1 $70 $39 $5 $-1 $71 forward single #
loop $-1 -1 $-1 $-1 $72 $26 #
plane-surface $-1 -1 $-1 -1.565999999999999837 -0.7886604677130312213 0 -0.8660254037844382635 -0.5000000000000007772 0 0.1968503937007876903 -0.3409548833797000911 0 forward_v I I I I #
coedge $-1 -1 $-1 $73 $74 $34 $56 forward $27 $-1 #
coedge $-1 -1 $-1 $75 $29 $72 $76 reversed $18 $-1 #
coedge $-1 -1 $-1 $29 $75 $30 $53 reversed $18 $-1 #
coedge $-1 -1 $-1 $32 $77 $29 $51 forward $39 $-1 #
edge $-1 -1 $-1 $78 -1.600997645885416265 $54 -0.8228665308537566059 $50 $79 forward @7 unknown #
coedge $-1 -1 $-1 $31 $30 $73 $80 reversed $13 $-1 #
edge $81 -1 $-1 $54 0 $82 0.5080000000000000071 $49 $83 forward @7 unknown #
vertex $-1 -1 $-1 $33 $84 #
ellipse-curve $-1 -1 $-1 -1.132987298107781315 -0.5386604677130311103 0.375000000000000222 0.5000000000000014433 -0.8660254037844379305 0 0.1732050807568875084 0.1000000000000003386 8.075433853579263681e-17 1 I I #
edge $-1 -1 $-1 $63 -0.3890655575158302182 $58 0.389065557515829219 $47 $85 forward @7 unknown #
DXID-attrib $-1 -1 $-1 $-1 $35 @10 ASM ENTITY @36 b1d246e2-a1b7-4c7e-babc-570eac9c8ee8 #
vertex $-1 -1 $-1 $56 $86 #
straight-curve $-1 -1 $-1 -1.30069239642026524 -0.6354850513682164248 0.4250000000000000999 0.1968503937007880789 -0.3409548833796998135 0 I I #
coedge $-1 -1 $-1 $87 $36 $74 $88 forward $62 $-1 #
coedge $-1 -1 $-1 $36 $87 $38 $66 reversed $62 $-1 #
loop $-1 -1 $-1 $-1 $36 $89 #
vertex $-1 -1 $-1 $88 $90 #
straight-curve $-1 -1 $-1 -1.565999999999999837 -0.7886604677130312213 0.4249999999999999889 0.1968503937007876625 -0.3409548833797000911 -1.844040009743998843e-31 I I #
coedge $-1 -1 $-1 $91 $38 $92 $93 reversed $39 $-1 #
edge $94 -1 $-1 $41 1.079500000000000126 $95 1.905000000000000027 $38 $96 forward @7 unknown #
point $-1 -1 $-1 -1.30069239642026524 -0.6354850513682164248 0.4250000000000000999 #
point $-1 -1 $-1 -1.566000000000000503 -0.7886604677130317764 0.4249999999999999889 #
DXID-attrib $-1 -1 $-1 $-1 $44 @10 ASM ENTITY @36 1bee8d23-2d05-4b0d-b3ba-c5132a3441f5 #
face $97 -1 $-1 $98 $99 $5 $-1 $100 reversed single #
plane-surface $-1 -1 $-1 -0.4742640687119283882 -0.1583464338998741006 0 -0.5000000000000014433 0.8660254037844379305 0 -0.3409548833796999245 -0.1968503937007879401 -0 forward_v I I I I #
coedge $-1 -1 $-1 $101 $102 $48 $76 forward $45 $-1 #
coedge $-1 -1 $-1 $103 $47 $52 $80 forward $27 $-1 #
coedge $-1 -1 $-1 $47 $104 $60 $88 reversed $27 $-1 #
coedge $-1 -1 $-1 $49 $48 $103 $105 reversed $18 $-1 #
edge $-1 -1 $-1 $106 -0.5079999999999998961 $78 1.189933451467013821e-16 $72 $107 forward @7 unknown #
coedge $-1 -1 $-1 $50 $108 $101 $109 forward $39 $-1 #
vertex $-1 -1 $-1 $76 $110 #
straight-curve $-1 -1 $-1 -1.020132034355964556 -0.4735034508064528969 0.3250000000000001776 0.3409548833796999245 0.1968503937007879401 4.662023889119139116e-17 I I #
edge $-1 -1 $-1 $58 -2.888912398447714303 $82 2.888912398447713858 $73 $111 forward @7 unknown #
DXID-attrib $-1 -1 $-1 $-1 $53 @10 ASM ENTITY @36 fee25b41-ba65-443c-bbf5-2f91ced46eb2 #
vertex $-1 -1 $-1 $80 $112 #
straight-curve $-1 -1 $-1 -1.30069239642026524 -0.6354850513682164248 0.3250000000000001221 0.1968503937007880789 -0.3409548833796998135 0 I I #
point $-1 -1 $-1 -1.30069239642026524 -0.6354850513682164248 0.3250000000000001221 #
straight-curve $-1 -1 $-1 -1.333346198210132449 -0.8852778402975115535 0.4250000000000000999 0.3409548833796999245 0.1968503937007879123 1.589652333381744671e-16 I I #
point $-1 -1 $-1 -1.200692396420264929 -0.8086901321251039887 0.4250000000000000999 #
coedge $-1 -1 $-1 $61 $60 $113 $114 reversed $62 $-1 #
edge $115 -1 $-1 $63 1.079500000000000126 $116 1.905000000000000027 $60 $117 forward @7 unknown #
face $118 -1 $-1 $119 $62 $5 $-1 $46 forward single #
point $-1 -1 $-1 -1.466000000000000192 -0.9618655484699192293 0.4249999999999999889 #
coedge $-1 -1 $-1 $108 $65 $120 $121 reversed $39 $-1 #
coedge $-1 -1 $-1 $113 $122 $65 $93 forward $123 $-1 #
edge $124 -1 $-1 $125 -1.645406930227272463e-16 $95 3.201995291770829866 $65 $126 forward @7 unknown #
DXID-attrib $-1 -1 $-1 $-1 $66 @10 ASM ENTITY @36 d075cc84-500a-4112-be4f-8da62e0fd0eb #
vertex $-1 -1 $-1 $66 $127 #
straight-curve $-1 -1 $-1 -1.565999999999999837 -0.7886604677130312213 0 0 0 0.3937007874015747699 I I #
DXID-attrib $-1 -1 $-1 $-1 $70 @10 ASM ENTITY @36 d6b9e199-741a-478d-a23d-ecab82f2f0d9 #
face $128 -1 $-1 $129 $130 $5 $-1 $131 reversed single #
loop $-1 -1 $-1 $132 $133 $70 #
cone-surface $-1 -1 $-1 0.999999999999999889 0.1000000000000000611 0.375 0 -1 0 0.1249999999999999861 0 0 1 I I 0 1 0.1249999999999999861 forward I I I I #
coedge $-1 -1 $-1 $134 $72 $77 $109 reversed $45 $-1 #
coedge $-1 -1 $-1 $72 $134 $135 $136 forward $45 $-1 #
coedge $-1 -1 $-1 $135 $73 $75 $105 forward $27 $-1 #
coedge $-1 -1 $-1 $74 $137 $138 $139 reversed $27 $-1 #
edge $-1 -1 $-1 $82 -0.7781311150316588821 $106 6.066371422017443672e-16 $103 $140 forward @7 unknown #
vertex $-1 -1 $-1 $76 $141 #
straight-curve $-1 -1 $-1 -1.565999999999999837 -0.7886604677130314434 0.3250000000000001221 -0.1968503937007876625 0.3409548833797000911 5.338010554522101798e-32 I I #
coedge $-1 -1 $-1 $77 $91 $142 $143 forward $39 $-1 #
edge $144 -1 $-1 $145 0 $78 0.8255000000000003446 $77 $96 forward @7 unknown #
point $-1 -1 $-1 -1.566000000000000503 -0.7886604677130317764 0.3250000000000001221 #
ellipse-curve $-1 -1 $-1 -1.032987298107781227 -0.7118655484699181191 0.375000000000000222 -0.5000000000000013323 0.8660254037844379305 0 0.1732050807568875084 0.1000000000000003386 8.075433853579263681e-17 1 I I #
point $-1 -1 $-1 -1.200692396420264929 -0.8086901321251039887 0.3250000000000001221 #
coedge $-1 -1 $-1 $138 $92 $87 $114 forward $123 $-1 #
edge $146 -1 $-1 $95 0 $116 0.5080000000000001181 $87 $147 forward @7 unknown #
DXID-attrib $-1 -1 $-1 $-1 $88 @10 ASM ENTITY @36 1941308a-42a8-4e0f-a817-edfb87cf9d8e #
vertex $-1 -1 $-1 $88 $148 #
straight-curve $-1 -1 $-1 -1.465999999999999748 -0.9618655484699188962 0 0 0 0.3937007874015747699 I I #
DXID-attrib $-1 -1 $-1 $-1 $89 @10 ASM ENTITY @36 9221123a-15f4-4e46-a7ea-047c26501562 #
face $149 -1 $-1 $150 $151 $5 $-1 $152 forward single #
coedge $-1 -1 $-1 $153 $154 $91 $121 forward $151 $-1 #
edge $155 -1 $-1 $156 0 $125 1.905000000000000027 $120 $157 forward @7 unknown #
coedge $-1 -1 $-1 $92 $158 $153 $159 forward $123 $-1 #
loop $-1 -1 $-1 $160 $161 $162 #
DXID-attrib $-1 -1 $-1 $-1 $93 @10 ASM ENTITY @36 de05d018-b2a0-4d63-a56e-4c3f54b35b8e #
vertex $-1 -1 $-1 $121 $163 #
straight-curve $-1 -1 $-1 -0.4742640687119284992 -0.1583464338998741283 0.75 -0.3409548833796999245 -0.1968503937007879401 -0 I I #
point $-1 -1 $-1 -1.566000000000000281 -0.7886604677130312213 0.75 #
DXID-attrib $-1 -1 $-1 $-1 $98 @10 ASM ENTITY @36 a5c9c8c1-da65-4243-9ae7-abf3fdff4d78 #
face $164 -1 $-1 $165 $166 $5 $-1 $167 forward single #
loop $-1 -1 $-1 $168 $169 $98 #
cone-surface $-1 -1 $-1 1.75 0.05000000000000034278 0.375 0 -1 0 0.1249999999999999861 0 0 1 I I 0 1 0.1249999999999999861 forward I I I I #
loop $-1 -1 $-1 $-1 $170 $70 #
coedge $-1 -1 $-1 $133 $133 $171 $172 reversed $99 $-1 #
coedge $-1 -1 $-1 $102 $101 $173 $174 forward $45 $-1 #
coedge $-1 -1 $-1 $175 $103 $102 $136 reversed $27 $-1 #
edge $176 -1 $-1 $177 0 $106 0.8255000000000003446 $102 $117 forward @7 unknown #
coedge $-1 -1 $-1 $104 $175 $178 $179 forward $27 $-1 #
coedge $-1 -1 $-1 $180 $113 $104 $139 forward $123 $-1 #
edge $181 -1 $-1 $116 0 $182 3.201995291770829422 $104 $183 forward @7 unknown #
straight-curve $-1 -1 $-1 -1.46599999999999997 -0.9618655484699191183 0.3250000000000001221 -0.3409548833796999245 -0.1968503937007879123 -4.662023889119137883e-17 I I #
point $-1 -1 $-1 -1.466000000000000192 -0.9618655484699192293 0.3250000000000001221 #
coedge $-1 -1 $-1 $184 $173 $108 $143 reversed $185 $-1 #
edge $186 -1 $-1 $156 -1.645406930227272463e-16 $145 3.201995291770829866 $108 $187 forward @7 unknown #
DXID-attrib $-1 -1 $-1 $-1 $109 @10 ASM ENTITY @36 7aa10ed5-fd8f-49f8-b2c7-819d1745e081 #
vertex $-1 -1 $-1 $143 $188 #
DXID-attrib $-1 -1 $-1 $-1 $114 @10 ASM ENTITY @36 57b96ee6-bfc7-45d6-9629-f7b194d8475b #
straight-curve $-1 -1 $-1 -1.565999999999999837 -0.7886604677130312213 0.75 0.1968503937007876625 -0.3409548833797000911 0 I I #
point $-1 -1 $-1 -1.465999999999999748 -0.9618655484699191183 0.75 #
DXID-attrib $-1 -1 $-1 $-1 $119 @10 ASM ENTITY @36 4fbf45e3-a8fb-4804-aaee-690de54c8f8b #
face $189 -1 $-1 $190 $191 $5 $-1 $192 forward single #
loop $-1 -1 $-1 $-1 $154 $119 #
cone-surface $-1 -1 $-1 0 0 0 0 0 1 0.4898979485566355985 0.09999999999999999167 0 1 I I 0 1 0.4999999999999999445 forward I I I I #
coedge $-1 -1 $-1 $193 $120 $122 $159 reversed $151 $-1 #
coedge $-1 -1 $-1 $120 $193 $184 $194 forward $151 $-1 #
DXID-attrib $-1 -1 $-1 $-1 $121 @10 ASM ENTITY @36 c5c84dd3-b1b5-4e2a-8aaf-c5ebf79c5725 #
vertex $-1 -1 $-1 $194 $195 #
straight-curve $-1 -1 $-1 -0.4742640687119283882 -0.1583464338998741561 0 0 0 0.3937007874015747699 I I #
coedge $-1 -1 $-1 $122 $196 $197 $198 forward $123 $-1 #
edge $199 -1 $-1 $200 0 $125 3.262475587607430949 $153 $201 forward @7 unknown #
loop $-1 -1 $-1 $-1 $202 $162 #
coedge $-1 -1 $-1 $196 $203 $204 $205 forward $123 $-1 #
face $206 -1 $-1 $207 $123 $5 $-1 $208 forward single #
point $-1 -1 $-1 -0.4742640687119284992 -0.1583464338998741283 0.75 #
DXID-attrib $-1 -1 $-1 $-1 $129 @10 ASM ENTITY @36 9faabb2c-d1f5-4790-9d3d-fdd567eda756 #
face $209 -1 $-1 $210 $211 $5 $-1 $212 forward single #
loop $-1 -1 $-1 $-1 $213 $129 #
cone-surface $-1 -1 $-1 1.75 0.05000000000000034278 0.375 0 -1 0 0 0 0.375 1 I I 0 1 0.375 forward I I I I #
loop $-1 -1 $-1 $-1 $214 $98 #
coedge $-1 -1 $-1 $169 $169 $215 $216 reversed $130 $-1 #
coedge $-1 -1 $-1 $170 $170 $217 $218 reversed $132 $-1 #
coedge $-1 -1 $-1 $171 $171 $133 $172 forward $219 $-1 #
edge $-1 -1 $-1 $220 0 $220 6.283185307179586232 $171 $221 forward @7 unknown #
coedge $-1 -1 $-1 $142 $222 $134 $174 reversed $185 $-1 #
edge $223 -1 $-1 $145 0 $177 0.5080000000000001181 $134 $224 forward @7 unknown #
coedge $-1 -1 $-1 $137 $135 $222 $225 forward $27 $-1 #
DXID-attrib $-1 -1 $-1 $-1 $136 @10 ASM ENTITY @36 fac29f51-72be-41dc-b7c8-3b4ee9f021a3 #
vertex $-1 -1 $-1 $174 $226 #
coedge $-1 -1 $-1 $227 $228 $137 $179 reversed $229 $-1 #
edge $230 -1 $-1 $231 0 $182 1.905000000000000027 $137 $232 forward @7 unknown #
coedge $-1 -1 $-1 $233 $138 $228 $234 forward $123 $-1 #
DXID-attrib $-1 -1 $-1 $-1 $139 @10 ASM ENTITY @36 561d52a9-6512-4317-ac67-06ae12b73193 #
vertex $-1 -1 $-1 $179 $235 #
straight-curve $-1 -1 $-1 -1.465999999999999748 -0.9618655484699188962 0.75 0.3409548833796999245 0.1968503937007879123 0 I I #
coedge $-1 -1 $-1 $236 $142 $154 $194 reversed $185 $-1 #
loop $-1 -1 $-1 $237 $238 $207 #
DXID-attrib $-1 -1 $-1 $-1 $143 @10 ASM ENTITY @36 6f1d521f-908b-4413-b8ed-b81b99e11214 #
straight-curve $-1 -1 $-1 -0.4742640687119284992 -0.1583464338998741283 0 -0.3409548833796999245 -0.1968503937007879401 -0 F -1.645406930227272463e-16 F 3.201995291770829866 #
point $-1 -1 $-1 -1.565999999999999837 -0.7886604677130312213 0 #
DXID-attrib $-1 -1 $-1 $-1 $150 @10 ASM ENTITY @36 8d161a5a-8f9f-4d73-8f91-6de1718f2a86 #
face $239 -1 $-1 $240 $241 $5 $-1 $242 forward single #
loop $-1 -1 $-1 $243 $217 $150 #
plane-surface $-1 -1 $-1 1.5 0.1000000000000001305 0 -1.298172828265331979e-16 1 0 -0.3937007874015747699 -5.11091664671390508e-17 0 forward_v I I I I #
coedge $-1 -1 $-1 $154 $153 $244 $245 reversed $151 $-1 #
edge $246 -1 $-1 $247 0 $156 3.262475587607430949 $154 $248 forward @7 unknown #
point $-1 -1 $-1 -0.4742640687119283882 -0.1583464338998741561 0 #
coedge $-1 -1 $-1 $158 $161 $249 $250 forward $123 $-1 #
coedge $-1 -1 $-1 $251 $244 $158 $198 reversed $243 $-1 #
edge $252 -1 $-1 $253 0 $200 2.565659210666145551 $197 $254 forward @7 unknown #
DXID-attrib $-1 -1 $-1 $-1 $159 @10 ASM ENTITY @36 540aaeb5-f77f-4e14-8ba7-8544fad56d31 #
vertex $-1 -1 $-1 $245 $255 #
ellipse-curve $-1 -1 $-1 0 0 0.75 0 0 1 0.4898979485566355985 0.09999999999999999167 0 1 I I #
coedge $-1 -1 $-1 $202 $202 $256 $257 forward $160 $-1 #
coedge $-1 -1 $-1 $161 $258 $259 $260 forward $123 $-1 #
coedge $-1 -1 $-1 $261 $262 $161 $205 reversed $263 $-1 #
edge $264 -1 $-1 $265 0 $266 0.6350000000000002309 $204 $267 forward @7 unknown #
DXID-attrib $-1 -1 $-1 $-1 $162 @10 ASM ENTITY @36 40bc0396-52a0-41bd-adc3-d83443f98aa0 #
face $268 -1 $-1 $-1 $185 $5 $-1 $269 reversed single #
plane-surface $-1 -1 $-1 0.09199999999999994293 -0.2309327742349594759 0.75 0 0 1 0.3937007874015747699 0 0 forward_v I I I I #
DXID-attrib $-1 -1 $-1 $-1 $165 @10 ASM ENTITY @36 61911d1f-161c-41e7-b4c0-a465d16ef233 #
face $270 -1 $-1 $271 $272 $5 $-1 $273 forward single #
loop $-1 -1 $-1 $274 $256 $165 #
cone-surface $-1 -1 $-1 0 0 0 0 0 1 -0.3749999999999999445 0 0 1 I I 0 -1 0.3749999999999999445 forward I I I I #
coedge $-1 -1 $-1 $259 $275 $261 $276 reversed $166 $-1 #
coedge $-1 -1 $-1 $214 $214 $277 $278 reversed $168 $-1 #
coedge $-1 -1 $-1 $215 $215 $169 $216 forward $272 $-1 #
edge $-1 -1 $-1 $279 0 $279 6.283185307179586232 $215 $280 forward @7 unknown #
coedge $-1 -1 $-1 $217 $217 $170 $218 forward $191 $-1 #
edge $-1 -1 $-1 $281 0 $281 6.283185307179586232 $217 $282 forward @7 unknown #
loop $-1 -1 $-1 $283 $171 $284 #
vertex $-1 -1 $-1 $172 $285 #
ellipse-curve $-1 -1 $-1 0.999999999999999889 -0.1000000000000001443 0.375 -2.812707794574886119e-16 1 0 0.1249999999999999861 0 0 1 I I #
coedge $-1 -1 $-1 $173 $286 $175 $225 reversed $185 $-1 #
DXID-attrib $-1 -1 $-1 $-1 $174 @10 ASM ENTITY @36 59c60a8b-e47e-402d-a195-9e8e046d99b9 #
straight-curve $-1 -1 $-1 -1.565999999999999837 -0.7886604677130312213 0 0.1968503937007876625 -0.3409548833797000911 0 F 0 F 0.5080000000000001181 #
edge $287 -1 $-1 $177 0 $231 3.201995291770829422 $175 $288 forward @7 unknown #
point $-1 -1 $-1 -1.465999999999999748 -0.9618655484699188962 0 #
coedge $-1 -1 $-1 $289 $178 $286 $290 forward $229 $-1 #
coedge $-1 -1 $-1 $178 $289 $180 $234 reversed $229 $-1 #
loop $-1 -1 $-1 $-1 $227 $291 #
DXID-attrib $-1 -1 $-1 $-1 $179 @10 ASM ENTITY @36 c0cadd4e-bda1-430e-a05a-0a085d071ece #
vertex $-1 -1 $-1 $225 $292 #
straight-curve $-1 -1 $-1 -0.3742640687119282994 -0.3315515146567619142 0 0 0 0.3937007874015747699 I I #
coedge $-1 -1 $-1 $293 $180 $294 $295 forward $123 $-1 #
edge $296 -1 $-1 $182 0 $297 2.215278036410831763 $228 $298 forward @7 unknown #
point $-1 -1 $-1 -0.3742640687119283549 -0.3315515146567619142 0.75 #
coedge $-1 -1 $-1 $299 $184 $300 $301 reversed $185 $-1 #
loop $-1 -1 $-1 $-1 $302 $207 #
coedge $-1 -1 $-1 $303 $299 $304 $305 reversed $185 $-1 #
DXID-attrib $-1 -1 $-1 $-1 $190 @10 ASM ENTITY @36 90a8260f-7268-4073-bf2f-b074e2440e47 #
face $306 -1 $-1 $162 $307 $5 $-1 $308 forward single #
loop $-1 -1 $-1 $-1 $309 $190 #
plane-surface $-1 -1 $-1 1.5 0.05000000000000030115 0 1 0 0 0 0.3937007874015747699 0 forward_v I I I I #
loop $-1 -1 $-1 $-1 $300 $150 #
coedge $-1 -1 $-1 $197 $300 $193 $245 forward $243 $-1 #
edge $310 -1 $-1 $247 0 $200 1.905000000000000027 $244 $311 forward @7 unknown #
DXID-attrib $-1 -1 $-1 $-1 $194 @10 ASM ENTITY @36 5ca4c911-b6f6-4e96-a1f6-beb6e75e7ee2 #
vertex $-1 -1 $-1 $301 $312 #
ellipse-curve $-1 -1 $-1 0 0 0 0 0 1 0.4898979485566355985 0.09999999999999999167 0 1 F 0 F 3.262475587607430949 #
coedge $-1 -1 $-1 $313 $314 $196 $250 reversed $241 $-1 #
edge $315 -1 $-1 $266 0.3810000000000004494 $253 0.5080000000000000071 $249 $316 forward @7 unknown #
coedge $-1 -1 $-1 $300 $197 $314 $317 reversed $243 $-1 #
DXID-attrib $-1 -1 $-1 $-1 $198 @10 ASM ENTITY @36 97accb01-2a10-485b-ae5f-2206a86120d9 #
vertex $-1 -1 $-1 $317 $318 #
straight-curve $-1 -1 $-1 1.5 0.1000000000000001305 0.75 -0.3937007874015747699 -5.11091664671390508e-17 0 I I #
point $-1 -1 $-1 0.4898979485566355985 0.09999999999999999167 0.75 #
coedge $-1 -1 $-1 $256 $256 $202 $257 reversed $211 $-1 #
edge $319 -1 $-1 $320 -3.141592653589793116 $320 3.141592653589793116 $256 $321 forward @7 unknown #
coedge $-1 -1 $-1 $203 $293 $322 $323 forward $123 $-1 #
coedge $-1 -1 $-1 $324 $213 $203 $260 reversed $166 $-1 #
edge $325 -1 $-1 $326 0 $265 0.2539999999999998925 $203 $327 forward @7 tangent #
coedge $-1 -1 $-1 $304 $204 $213 $276 forward $263 $-1 #
coedge $-1 -1 $-1 $204 $304 $313 $328 forward $263 $-1 #
loop $-1 -1 $-1 $-1 $304 $240 #
DXID-attrib $-1 -1 $-1 $-1 $205 @10 ASM ENTITY @36 7e5194ae-c585-42c9-8715-40aad0b105ff #
vertex $-1 -1 $-1 $276 $329 #
vertex $-1 -1 $-1 $328 $330 #
straight-curve $-1 -1 $-1 1.75 0.05000000000000034278 0.75 -0.3937007874015747699 -6.883396519469006016e-17 0 I I #
DXID-attrib $-1 -1 $-1 $-1 $207 @10 ASM ENTITY @36 11bb79a8-817d-4274-b64f-952e1f1405d9 #
plane-surface $-1 -1 $-1 0.09199999999999994293 -0.2309327742349594759 0 0 0 1 0.3937007874015747699 0 0 forward_v I I I I #
DXID-attrib $-1 -1 $-1 $-1 $210 @10 ASM ENTITY @36 d91d6202-1ed5-4341-bdd0-c77e64f70440 #
face $331 -1 $-1 $284 $332 $5 $-1 $333 forward single #
loop $-1 -1 $-1 $334 $215 $210 #
plane-surface $-1 -1 $-1 1.5 -0.04999999999999969053 0 3.496765431890255539e-16 -1 0 0.3937007874015747699 1.376679303893801203e-16 0 forward_v I I I I #
loop $-1 -1 $-1 $-1 $335 $165 #
coedge $-1 -1 $-1 $213 $324 $303 $336 forward $166 $-1 #
edge $337 -1 $-1 $265 0 $338 3.141592653589793116 $261 $339 forward @7 unknown #
coedge $-1 -1 $-1 $277 $277 $214 $278 forward $307 $-1 #
edge $-1 -1 $-1 $340 0 $340 6.283185307179586232 $277 $341 forward @7 unknown #
vertex $-1 -1 $-1 $216 $342 #
ellipse-curve $-1 -1 $-1 1.75 -0.04999999999999969053 0.375 -3.496765431890255539e-16 1 0 0.1249999999999999861 0 0 1 I I #
vertex $-1 -1 $-1 $218 $343 #
ellipse-curve $-1 -1 $-1 0.999999999999999889 0.1000000000000001305 0.375 1.298172828265331979e-16 -1 0 0.1249999999999999861 0 0 1 I I #
loop $-1 -1 $-1 $-1 $344 $284 #
face $345 -1 $-1 $291 $219 $5 $-1 $346 forward single #
point $-1 -1 $-1 1.124999999999999778 -0.09999999999999990841 0.375 #
coedge $-1 -1 $-1 $222 $347 $227 $290 reversed $185 $-1 #
DXID-attrib $-1 -1 $-1 $-1 $225 @10 ASM ENTITY @36 006c0af1-e8fb-43c2-bcc0-94ff85918c54 #
straight-curve $-1 -1 $-1 -1.465999999999999748 -0.9618655484699188962 0 0.3409548833796999245 0.1968503937007879123 0 F 0 F 3.201995291770829422 #
coedge $-1 -1 $-1 $228 $227 $348 $349 forward $229 $-1 #
edge $350 -1 $-1 $231 0 $351 2.215278036410831763 $227 $352 forward @7 unknown #
face $353 -1 $-1 $89 $229 $5 $-1 $354 forward single #
point $-1 -1 $-1 -0.3742640687119282994 -0.3315515146567619142 0 #
coedge $-1 -1 $-1 $258 $233 $355 $356 forward $123 $-1 #
coedge $-1 -1 $-1 $348 $357 $233 $295 reversed $283 $-1 #
edge $358 -1 $-1 $297 0 $359 2.565659210666145551 $294 $360 forward @7 unknown #
DXID-attrib $-1 -1 $-1 $-1 $234 @10 ASM ENTITY @36 09c20c26-79a7-4227-a194-ddc8d917c6f4 #
vertex $-1 -1 $-1 $349 $361 #
ellipse-curve $-1 -1 $-1 0 0 0.75 0 0 1 -0.3742640687119282994 -0.3315515146567619142 0 1 I I #
coedge $-1 -1 $-1 $238 $236 $309 $362 reversed $185 $-1 #
coedge $-1 -1 $-1 $244 $251 $236 $301 forward $243 $-1 #
edge $363 -1 $-1 $364 0 $247 2.565659210666145551 $300 $365 forward @7 unknown #
coedge $-1 -1 $-1 $302 $302 $335 $366 reversed $237 $-1 #
coedge $-1 -1 $-1 $367 $238 $275 $336 reversed $185 $-1 #
coedge $-1 -1 $-1 $262 $261 $238 $305 forward $263 $-1 #
edge $368 -1 $-1 $338 0 $369 0.6350000000000002309 $304 $370 forward @7 unknown #
DXID-attrib $-1 -1 $-1 $-1 $240 @10 ASM ENTITY @36 a7bbbae9-4e0b-46d1-8aa5-5ff2176465ef #
loop $-1 -1 $-1 $263 $277 $240 #
plane-surface $-1 -1 $-1 1.75 0.05000000000000034278 0 -1.74838271594512777e-16 1 0 -0.3937007874015747699 -6.883396519469006016e-17 0 forward_v I I I I #
coedge $-1 -1 $-1 $314 $313 $299 $362 forward $241 $-1 #
DXID-attrib $-1 -1 $-1 $-1 $245 @10 ASM ENTITY @36 ad9c4540-e2b5-4050-a1f9-81a3c93bd247 #
straight-curve $-1 -1 $-1 0.4898979485566355985 0.09999999999999999167 0 0 0 0.3937007874015747699 I I #
point $-1 -1 $-1 0.4898979485566355985 0.09999999999999999167 0 #
coedge $-1 -1 $-1 $309 $249 $262 $328 reversed $241 $-1 #
coedge $-1 -1 $-1 $249 $309 $251 $317 forward $241 $-1 #
DXID-attrib $-1 -1 $-1 $-1 $250 @10 ASM ENTITY @36 1cb50198-f64e-456e-9196-b05acfce46a4 #
straight-curve $-1 -1 $-1 1.5 -0.09999999999999986677 0.75 0 0.3937007874015747699 0 I I #
edge $371 -1 $-1 $364 0 $253 1.905000000000000027 $314 $372 forward @7 unknown #
point $-1 -1 $-1 1.5 0.1000000000000001305 0.75 #
DXID-attrib $-1 -1 $-1 $-1 $257 @10 ASM ENTITY @36 bc9ca84a-c674-49b9-bb63-bf8d054f1669 #
vertex $-1 -1 $-1 $257 $373 #
ellipse-curve $-1 -1 $-1 0 0 0.75 0 0 -1 -0.3749999999999999445 -0 -0 1 I I #
coedge $-1 -1 $-1 $374 $375 $258 $323 reversed $334 $-1 #
edge $376 -1 $-1 $377 0 $326 0.6350000000000002309 $322 $378 forward @7 unknown #
coedge $-1 -1 $-1 $275 $259 $375 $379 reversed $166 $-1 #
DXID-attrib $-1 -1 $-1 $-1 $260 @10 ASM ENTITY @36 65b5288b-8b8f-4c9d-987d-f668d3b07373 #
vertex $-1 -1 $-1 $323 $380 #
straight-curve $-1 -1 $-1 1.75 -0.04999999999999960032 0.75 0 0.3937007874015747699 0 I I #
edge $381 -1 $-1 $369 0 $266 1.905000000000000027 $262 $382 forward @7 unknown #
point $-1 -1 $-1 1.75 0.05000000000000034278 0.75 #
point $-1 -1 $-1 1.5 0.05000000000000030115 0.75 #
DXID-attrib $-1 -1 $-1 $-1 $271 @10 ASM ENTITY @36 e549a608-7859-4da3-9953-d7366d462f63 #
loop $-1 -1 $-1 $-1 $383 $271 #
plane-surface $-1 -1 $-1 1.5 -0.09999999999999986677 0 1 0 0 0 0.3937007874015747699 0 forward_v I I I I #
loop $-1 -1 $-1 $-1 $384 $210 #
coedge $-1 -1 $-1 $335 $335 $302 $366 forward $274 $-1 #
edge $385 -1 $-1 $386 0 $338 0.2539999999999998925 $303 $387 forward @7 tangent #
DXID-attrib $-1 -1 $-1 $-1 $276 @10 ASM ENTITY @36 90f63dba-ecdd-43ee-8724-29345a030600 #
vertex $-1 -1 $-1 $305 $388 #
ellipse-curve $-1 -1 $-1 1.75 0.05000000000000034278 0.375 -1.74838271594512777e-16 1 0 0 0 0.375 1 F 0 F 3.141592653589793116 #
vertex $-1 -1 $-1 $278 $389 #
ellipse-curve $-1 -1 $-1 1.75 0.05000000000000034278 0.375 1.74838271594512777e-16 -1 0 0.1249999999999999861 0 0 1 I I #
point $-1 -1 $-1 1.875 -0.04999999999999962808 0.375 #
point $-1 -1 $-1 1.124999999999999778 0.1000000000000000749 0.375 #
coedge $-1 -1 $-1 $357 $348 $347 $390 forward $283 $-1 #
DXID-attrib $-1 -1 $-1 $-1 $284 @10 ASM ENTITY @36 fcf0333f-bd4e-43cf-b527-ed5f17a861de #
plane-surface $-1 -1 $-1 0.4898979485566355985 -0.1000000000000001443 0 2.812707794574886119e-16 -1 0 0.3937007874015747699 1.107365273454679516e-16 0 forward_v I I I I #
coedge $-1 -1 $-1 $286 $391 $344 $390 reversed $185 $-1 #
coedge $-1 -1 $-1 $344 $294 $289 $349 reversed $283 $-1 #
edge $392 -1 $-1 $351 0 $297 1.905000000000000027 $289 $393 forward @7 unknown #
DXID-attrib $-1 -1 $-1 $-1 $290 @10 ASM ENTITY @36 9b00c462-9099-4b68-b41f-b3343a7f719c #
vertex $-1 -1 $-1 $290 $394 #
ellipse-curve $-1 -1 $-1 0 0 0 0 0 1 -0.3742640687119282994 -0.3315515146567619142 0 1 F 0 F 2.215278036410831763 #
DXID-attrib $-1 -1 $-1 $-1 $291 @10 ASM ENTITY @36 deb1bcca-92b1-4cd1-b4a5-b34c2ff88726 #
cone-surface $-1 -1 $-1 0 0 0 0 0 1 -0.3742640687119282994 -0.3315515146567619142 0 1 I I 0 1 0.4999999999999999445 forward I I I I #
coedge $-1 -1 $-1 $395 $396 $293 $356 reversed $332 $-1 #
edge $397 -1 $-1 $359 0 $377 0.1270000000000004459 $355 $398 forward @7 unknown #
coedge $-1 -1 $-1 $294 $344 $395 $399 forward $283 $-1 #
DXID-attrib $-1 -1 $-1 $-1 $295 @10 ASM ENTITY @36 7f299668-35f7-4528-a9e4-8b17cea81394 #
vertex $-1 -1 $-1 $399 $400 #
straight-curve $-1 -1 $-1 0.4898979485566355985 -0.1000000000000001443 0.75 0.3937007874015747699 1.107365273454679516e-16 0 I I #
point $-1 -1 $-1 0.4898979485566355985 -0.1000000000000001443 0.75 #
edge $401 -1 $-1 $369 0.3810000000000004494 $364 0.5080000000000000071 $309 $402 forward @7 unknown #
DXID-attrib $-1 -1 $-1 $-1 $301 @10 ASM ENTITY @36 1f9dd418-ace0-4b12-8694-29dabdc3038e #
vertex $-1 -1 $-1 $362 $403 #
straight-curve $-1 -1 $-1 1.5 0.1000000000000001305 0 -0.3937007874015747699 -5.11091664671390508e-17 0 F 0 F 2.565659210666145551 #
edge $404 -1 $-1 $405 -3.141592653589793116 $405 3.141592653589793116 $335 $406 forward @7 unknown #
coedge $-1 -1 $-1 $391 $303 $384 $407 reversed $185 $-1 #
DXID-attrib $-1 -1 $-1 $-1 $305 @10 ASM ENTITY @36 d3162755-2f95-44e3-be21-f1f965d6e8ea #
vertex $-1 -1 $-1 $305 $408 #
straight-curve $-1 -1 $-1 1.75 0.05000000000000034278 0 -0.3937007874015747699 -6.883396519469006016e-17 0 F 0 F 0.6350000000000002309 #
DXID-attrib $-1 -1 $-1 $-1 $317 @10 ASM ENTITY @36 d667eb2d-b711-4288-8b19-cd337b170072 #
straight-curve $-1 -1 $-1 1.5 0.1000000000000001305 0 0 0 0.3937007874015747699 I I #
point $-1 -1 $-1 0.3749999999999998335 4.370956789862820656e-17 0.75 #
coedge $-1 -1 $-1 $384 $322 $396 $409 reversed $334 $-1 #
coedge $-1 -1 $-1 $322 $384 $324 $379 forward $334 $-1 #
DXID-attrib $-1 -1 $-1 $-1 $323 @10 ASM ENTITY @36 1a3ab2d1-5be0-4638-b953-525174de8ad4 #
vertex $-1 -1 $-1 $409 $410 #
straight-curve $-1 -1 $-1 1.5 -0.04999999999999969053 0.75 0.3937007874015747699 1.376679303893801203e-16 0 I I #
edge $411 -1 $-1 $386 -3.141592653589793116 $326 -0 $324 $412 forward @7 unknown #
point $-1 -1 $-1 1.75 -0.04999999999999960032 0.75 #
DXID-attrib $-1 -1 $-1 $-1 $328 @10 ASM ENTITY @36 d25ca330-5632-4fe1-a605-0d491703e962 #
straight-curve $-1 -1 $-1 1.5 0.05000000000000030115 0 0 0 0.3937007874015747699 I I #
coedge $-1 -1 $-1 $396 $395 $391 $413 forward $332 $-1 #
coedge $-1 -1 $-1 $375 $374 $367 $407 forward $334 $-1 #
DXID-attrib $-1 -1 $-1 $-1 $336 @10 ASM ENTITY @36 092973eb-4fac-418e-a40c-283efec5334e #
vertex $-1 -1 $-1 $407 $414 #
straight-curve $-1 -1 $-1 1.75 -0.04999999999999960032 0 0 0.3937007874015747699 0 F 0 F 0.2539999999999998925 #
point $-1 -1 $-1 1.75 0.05000000000000034278 0 #
point $-1 -1 $-1 1.875 0.05000000000000037054 0.375 #
edge $415 -1 $-1 $351 0 $416 2.565659210666145551 $344 $417 forward @7 unknown #
coedge $-1 -1 $-1 $347 $367 $383 $413 reversed $185 $-1 #
DXID-attrib $-1 -1 $-1 $-1 $349 @10 ASM ENTITY @36 bab935bc-718f-4ef9-ad7a-d48e1225c377 #
straight-curve $-1 -1 $-1 0.4898979485566355985 -0.1000000000000001443 0 0 0 0.3937007874015747699 I I #
point $-1 -1 $-1 0.4898979485566355985 -0.1000000000000001443 0 #
coedge $-1 -1 $-1 $383 $355 $357 $399 reversed $332 $-1 #
coedge $-1 -1 $-1 $355 $383 $374 $409 forward $332 $-1 #
DXID-attrib $-1 -1 $-1 $-1 $356 @10 ASM ENTITY @36 86a06f15-7579-4ce9-9e77-b9d321322133 #
straight-curve $-1 -1 $-1 1.5 -0.09999999999999986677 0.75 0 0.3937007874015747699 0 I I #
edge $418 -1 $-1 $416 0 $359 1.905000000000000027 $357 $419 forward @7 unknown #
point $-1 -1 $-1 1.5 -0.09999999999999986677 0.75 #
DXID-attrib $-1 -1 $-1 $-1 $362 @10 ASM ENTITY @36 4d93feb4-5d30-4f78-a128-bcf4ded82043 #
straight-curve $-1 -1 $-1 1.5 -0.09999999999999986677 0 0 0.3937007874015747699 0 F 0.3810000000000004494 F 0.5080000000000000071 #
point $-1 -1 $-1 1.5 0.1000000000000001305 0 #
DXID-attrib $-1 -1 $-1 $-1 $366 @10 ASM ENTITY @36 88f6788a-27c7-4e97-b3ad-35e0d13835b4 #
vertex $-1 -1 $-1 $366 $420 #
ellipse-curve $-1 -1 $-1 0 0 0 0 0 -1 -0.3749999999999999445 -0 -0 1 I I #
edge $421 -1 $-1 $422 0 $386 0.6350000000000002309 $384 $423 forward @7 unknown #
point $-1 -1 $-1 1.5 0.05000000000000030115 0 #
edge $424 -1 $-1 $422 0 $377 1.905000000000000027 $396 $425 forward @7 unknown #
point $-1 -1 $-1 1.5 -0.04999999999999969053 0.75 #
DXID-attrib $-1 -1 $-1 $-1 $379 @10 ASM ENTITY @36 823fbfe4-a23f-4886-bbe9-ec4e96973452 #
ellipse-curve $-1 -1 $-1 1.75 -0.04999999999999964889 0.375 1.74838271594512777e-16 -1 0 0 0 0.375 1 I I #
edge $426 -1 $-1 $416 0 $422 0.1270000000000004459 $383 $427 forward @7 unknown #
point $-1 -1 $-1 1.75 -0.04999999999999960032 0 #
DXID-attrib $-1 -1 $-1 $-1 $390 @10 ASM ENTITY @36 35c8fb24-59f1-465a-9635-a718987f04b1 #
vertex $-1 -1 $-1 $390 $428 #
straight-curve $-1 -1 $-1 0.4898979485566355985 -0.1000000000000001443 0 0.3937007874015747699 1.107365273454679516e-16 0 F 0 F 2.565659210666145551 #
DXID-attrib $-1 -1 $-1 $-1 $399 @10 ASM ENTITY @36 8cbd1ff2-11bc-46aa-a06b-4cad99f6b4d6 #
straight-curve $-1 -1 $-1 1.5 -0.09999999999999986677 0 0 0 0.3937007874015747699 I I #
point $-1 -1 $-1 0.3749999999999999445 4.592425496802574219e-17 0 #
DXID-attrib $-1 -1 $-1 $-1 $407 @10 ASM ENTITY @36 3ad16b85-5df7-49f4-9727-3100b21f6a97 #
vertex $-1 -1 $-1 $413 $429 #
straight-curve $-1 -1 $-1 1.5 -0.04999999999999969053 0 0.3937007874015747699 1.376679303893801203e-16 0 F 0 F 0.6350000000000002309 #
DXID-attrib $-1 -1 $-1 $-1 $409 @10 ASM ENTITY @36 b5af35cf-9646-4ec9-9e19-f431c108fb3f #
straight-curve $-1 -1 $-1 1.5 -0.04999999999999969053 0 0 0 0.3937007874015747699 I I #
DXID-attrib $-1 -1 $-1 $-1 $413 @10 ASM ENTITY @36 2e5602ae-56bf-49b2-9bcd-d27e1e60b9e3 #
straight-curve $-1 -1 $-1 1.5 -0.09999999999999986677 0 0 0.3937007874015747699 0 F 0 F 0.1270000000000004459 #
point $-1 -1 $-1 1.5 -0.09999999999999986677 0 #
point $-1 -1 $-1 1.5 -0.04999999999999969053 0 #
End-of-ACIS-data 