700 0 1 0           
30 Autodesk Translation Framework 20 ASM 229.3.0.65535 NT 24 Wed Feb 21 19:27:20 2024 
25.39999999999999858 9.999999999999999547e-07 1.000000000000000036e-10 
body $1 -1 $-1 $2 $-1 $3 #
rgb_color-st-attrib $-1 -1 $4 $-1 $0 0.7490196078431372584 0.7490196078431372584 0.7490196078431372584 #
lump $-1 -1 $-1 $-1 $5 $0 #
transform $-1 -1 1 0 0 0 1 0 0 0 1 0 0 0 1 no_rotate no_reflect no_shear #
DXID-attrib $-1 -1 $-1 $1 $0 @10 ASM ENTITY @103 PIEZA7-TAREA1.IPT|:|54D5AD2BDC6A0E0372AEE63D0A750EE6AB7CE605|:|DA4B9237BACCCDF19C0760CAB7AEC4A8359010B0 #
shell $-1 -1 $-1 $-1 $-1 $6 $-1 $2 #
face $7 -1 $-1 $8 $9 $5 $-1 $10 reversed single #
DXID-attrib $-1 -1 $-1 $-1 $6 @10 ASM ENTITY @36 08bbe4d9-c520-4cb2-a3df-e923d3244ad1 #
face $11 -1 $-1 $12 $13 $5 $-1 $14 forward single #
loop $-1 -1 $-1 $15 $16 $6 #
cone-surface $-1 -1 $-1 0 6 0 1 0 0 0 0.1875 0 1 I I 0 1 0.1875 forward I I I I #
DXID-attrib $-1 -1 $-1 $-1 $8 @10 ASM ENTITY @36 2bc4ce46-a362-4cb5-8fcc-e005fa745a2f #
face $17 -1 $-1 $18 $19 $5 $-1 $20 forward single #
loop $-1 -1 $-1 $21 $22 $8 #
cone-surface $-1 -1 $-1 0 6.468749999999999112 0 0 1 0 -0.3437499999999999445 0 0 1 I I -0.7071067811865447972 0.7071067811865502373 0.3437499999999999445 forward I I I I #
loop $-1 -1 $-1 $-1 $23 $6 #
coedge $-1 -1 $-1 $16 $16 $24 $25 reversed $9 $-1 #
DXID-attrib $-1 -1 $-1 $-1 $12 @10 ASM ENTITY @36 551c0e51-eb7d-4a10-8879-fabdcb2c9dbb #
face $26 -1 $-1 $27 $28 $5 $-1 $29 forward single #
loop $-1 -1 $-1 $30 $24 $12 #
cone-surface $-1 -1 $-1 0 6.5 0 0 -1 0 0.375 0 0 1 I I 0 1 0.375 forward I I I I #
loop $-1 -1 $-1 $-1 $31 $8 #
coedge $-1 -1 $-1 $22 $22 $32 $33 forward $13 $-1 #
coedge $-1 -1 $-1 $23 $23 $34 $35 reversed $15 $-1 #
coedge $-1 -1 $-1 $24 $24 $16 $25 forward $19 $-1 #
edge $-1 -1 $-1 $36 0 $36 2.929056007030726771 $24 $37 forward @7 unknown #
DXID-attrib $-1 -1 $-1 $-1 $18 @10 ASM ENTITY @36 2033ab1a-6e1b-4ff9-a6a4-8202b3d16db3 #
face $38 -1 $-1 $39 $40 $5 $-1 $41 reversed single #
loop $-1 -1 $-1 $-1 $42 $18 #
plane-surface $-1 -1 $-1 0 6.5 0 0 1 0 0 0 0.3937007874015747699 forward_v I I I I #
loop $-1 -1 $-1 $43 $34 $12 #
coedge $-1 -1 $-1 $31 $31 $42 $44 forward $21 $-1 #
coedge $-1 -1 $-1 $32 $32 $22 $33 reversed $45 $-1 #
edge $-1 -1 $-1 $46 -3.141592653589793116 $46 3.141592653589793116 $32 $47 forward @7 unknown #
coedge $-1 -1 $-1 $34 $34 $23 $35 forward $30 $-1 #
edge $-1 -1 $-1 $48 0 $48 2.929056007030726771 $34 $49 forward @7 unknown #
vertex $-1 -1 $-1 $25 $50 #
intcurve-curve $-1 -1 $-1 forward { surfintcur full nubs 3 periodic 17 
	0 3 0.1833158644198017162 2 0.3666317288396034324 2 0.5494478652986426459 2 0.7322640017576818039 2 
	0.9150801382167208509 2 1.097896274675759898 2 1.281212139095561531 2 1.464528003515363164 2 1.647843867935164797 2 
	1.83115973235496643 2 2.013975868814005921 2 2.196792005273044968 2 2.379608141732084015 2 2.562424278191123506 2 
	2.745740142610925361 2 2.929056007030726771 3 
	0.324759526419164446 6 0.1875 
	0.324759526419164446 6.024057200055092487 0.1875 
	0.3277172692411754462 6.049338487736867442 0.1826035470893921653 
	0.337724252336377484 6.095359192407717508 0.1633553830755420655 
	0.3445688376654069685 6.116148325170386535 0.149016717774568791 
	0.3569749893882184222 6.148971917356281125 0.1161931255886740899 
	0.3634246576949020646 6.163343452485858798 0.09538889214644562242 
	0.3724859940657475055 6.182618232350462151 0.04930220165416092371 
	0.375 6.1875 0.02399161895787910517 
	0.375 6.1875 -0.02399161895787918844 
	0.3724859940657475055 6.182618232350462151 -0.04930220165416048655 
	0.3634246576949021201 6.163343452485858798 -0.09538889214644524772 
	0.3569749893882183112 6.148971917356281125 -0.1161931255886741871 
	0.3445688376654068574 6.116148325170386535 -0.1490167177745688465 
	0.337724252336377484 6.095359192407717508 -0.1633553830755420933 
	0.3277172692411754462 6.049338487736867442 -0.182603547089392193 
	0.324759526419164446 6.024057200055092487 -0.1875 
	0.324759526419164446 5.975942799944907513 -0.1875 
	0.3277172692411754462 5.950661512263133446 -0.182603547089392193 
	0.337724252336377484 5.904640807592282492 -0.1633553830755420933 
	0.3445688376654068574 5.883851674829614353 -0.1490167177745688465 
	0.3569749893882183112 5.851028082643718875 -0.1161931255886741593 
	0.3634246576949020646 5.836656547514141202 -0.09538889214644565018 
	0.372485994065747561 5.817381767649538737 -0.04930220165416092371 
	0.375 5.8125 -0.02399161895787911558 
	0.375 5.8125 0.02399161895787916762 
	0.372485994065747561 5.817381767649538737 0.04930220165416072942 
	0.3634246576949020646 5.836656547514141202 0.09538889214644571957 
	0.3569749893882183112 5.851028082643719763 0.1161931255886742703 
	0.3445688376654068574 5.883851674829614353 0.1490167177745689298 
	0.3377242523363772619 5.90464080759228338 0.1633553830755425929 
	0.3277172692411752242 5.950661512263134334 0.1826035470893925261 
	0.324759526419164446 5.975942799944908401 0.1875 
	0.324759526419164446 6 0.1875 
	0.0001122640512051814739 
	
	cone 0 6 0 1 0 0 0 0.1875 0 1 I I 0 1 0.1875 forward I I I I 
	cone 0 6.5 0 0 -1 0 0.375 0 0 1 I I 0 1 0.375 forward I I I I 
	nullbs 
	nullbs 
	I I 
	0 
	0 
	0 
	} I I #
DXID-attrib $-1 -1 $-1 $-1 $27 @10 ASM ENTITY @36 ca87c157-1f00-4077-b917-f320f5e54073 #
face $51 -1 $-1 $52 $53 $5 $-1 $54 reversed single #
loop $-1 -1 $-1 $55 $56 $27 #
plane-surface $-1 -1 $-1 0 5.500000000000000888 0 0 1 0 0 0 0.3937007874015747699 forward_v I I I I #
coedge $-1 -1 $-1 $42 $42 $31 $44 reversed $28 $-1 #
loop $-1 -1 $-1 $45 $57 $12 #
edge $-1 -1 $-1 $58 -3.141592653589793116 $58 3.141592653589793116 $42 $59 forward @7 unknown #
loop $-1 -1 $-1 $-1 $32 $12 #
vertex $-1 -1 $-1 $33 $60 #
ellipse-curve $-1 -1 $-1 0 6.4375 0 0 1 0 -0.375 -0 -0 1 I I #
vertex $-1 -1 $-1 $35 $61 #
intcurve-curve $-1 -1 $-1 forward { surfintcur full nubs 3 periodic 17 
	0 3 0.1833158644198015497 2 0.3666317288396030993 2 0.5494478652986424239 2 0.7322640017576818039 2 
	0.9150801382167210729 2 1.097896274675760342 2 1.281212139095561975 2 1.464528003515363608 2 1.647843867935165241 2 
	1.831159732354966874 2 2.013975868814005921 2 2.196792005273044968 2 2.379608141732084015 2 2.562424278191123506 2 
	2.745740142610925361 2 2.929056007030726771 3 
	-0.324759526419164446 6 0.1875 
	-0.324759526419164446 5.975942799944907513 0.1875 
	-0.3277172692411754462 5.950661512263133446 0.1826035470893921375 
	-0.337724252336377484 5.904640807592282492 0.1633553830755420655 
	-0.3445688376654068574 5.883851674829614353 0.1490167177745689298 
	-0.3569749893882182556 5.851028082643718875 0.1161931255886742703 
	-0.3634246576949022867 5.836656547514141202 0.09538889214644483139 
	-0.372485994065747672 5.817381767649538737 0.04930220165416000777 
	-0.3749999999999999445 5.8125 0.02399161895787919885 
	-0.375 5.8125 -0.02399161895787914334 
	-0.3724859940657475055 5.817381767649538737 -0.04930220165416046574 
	-0.3634246576949021201 5.836656547514141202 -0.09538889214644523384 
	-0.3569749893882183112 5.851028082643718875 -0.1161931255886741871 
	-0.3445688376654068574 5.883851674829614353 -0.1490167177745688465 
	-0.337724252336377484 5.904640807592282492 -0.1633553830755420933 
	-0.3277172692411754462 5.950661512263133446 -0.182603547089392193 
	-0.324759526419164446 5.975942799944907513 -0.1875 
	-0.324759526419164446 6.024057200055092487 -0.1875 
	-0.3277172692411754462 6.049338487736867442 -0.182603547089392193 
	-0.337724252336377484 6.095359192407717508 -0.1633553830755420933 
	-0.3445688376654068574 6.116148325170386535 -0.1490167177745688465 
	-0.3569749893882183112 6.148971917356281125 -0.1161931255886741871 
	-0.3634246576949021201 6.163343452485858798 -0.09538889214644524772 
	-0.3724859940657475055 6.182618232350462151 -0.04930220165416048655 
	-0.375 6.1875 -0.02399161895787918844 
	-0.375 6.1875 0.02399161895787908089 
	-0.3724859940657477275 6.182618232350462151 0.04930220165415985512 
	-0.3634246576949023422 6.163343452485858798 0.09538889214644467873 
	-0.3569749893882184222 6.148971917356282013 0.1161931255886740899 
	-0.3445688376654069685 6.116148325170386535 0.149016717774568791 
	-0.3377242523363775395 6.095359192407717508 0.1633553830755420655 
	-0.3277172692411755017 6.049338487736867442 0.1826035470893921653 
	-0.324759526419164446 6.024057200055092487 0.1875 
	-0.324759526419164446 6 0.1875 
	0.0001122640512053854395 
	
	cone 0 6 0 1 0 0 0 0.1875 0 1 I I 0 1 0.1875 forward I I I I 
	cone 0 6.5 0 0 -1 0 0.375 0 0 1 I I 0 1 0.375 forward I I I I 
	nullbs 
	nullbs 
	I I 
	0 
	0 
	0 
	} I I #
point $-1 -1 $-1 0.324759526419164446 6 0.187499999999999889 #
DXID-attrib $-1 -1 $-1 $-1 $39 @10 ASM ENTITY @36 0b6aaab7-93f5-4a94-9a4e-e9db9c9db983 #
face $62 -1 $-1 $63 $64 $5 $-1 $65 forward single #
loop $-1 -1 $-1 $66 $67 $39 #
plane-surface $-1 -1 $-1 0 0.4999999999999999445 0 0 -1 0 0 0 -0.3937007874015747699 forward_v I I I I #
loop $-1 -1 $-1 $-1 $68 $27 #
coedge $-1 -1 $-1 $56 $56 $57 $69 forward $40 $-1 #
coedge $-1 -1 $-1 $57 $57 $56 $69 reversed $43 $-1 #
vertex $-1 -1 $-1 $44 $70 #
ellipse-curve $-1 -1 $-1 0 6.5 0 -0 -1 -0 -0.3124999999999999445 0 0 1 I I #
point $-1 -1 $-1 0.375 6.4375 -4.592425496802574219e-17 #
point $-1 -1 $-1 -0.324759526419164446 6 0.1874999999999999167 #
DXID-attrib $-1 -1 $-1 $-1 $52 @10 ASM ENTITY @36 996a4612-3e27-4ca6-bb54-1e979789bbb9 #
face $71 -1 $-1 $72 $73 $5 $-1 $74 forward single #
loop $-1 -1 $-1 $75 $76 $52 #
cone-surface $-1 -1 $-1 0 0 0 0 1 0 0.375 0 0 1 I I 0 1 0.375 forward I I I I #
loop $-1 -1 $-1 $-1 $77 $39 #
coedge $-1 -1 $-1 $67 $67 $76 $78 forward $53 $-1 #
coedge $-1 -1 $-1 $68 $68 $79 $80 reversed $55 $-1 #
edge $81 -1 $-1 $82 -6.283185307179586232 $82 -0 $57 $83 forward @7 unknown #
point $-1 -1 $-1 0.3124999999999999445 6.5 3.82702124733547831e-17 #
DXID-attrib $-1 -1 $-1 $-1 $63 @10 ASM ENTITY @36 749e72fc-922e-4e2c-b55a-72481ca816c6 #
face $84 -1 $-1 $-1 $85 $5 $-1 $86 reversed single #
loop $-1 -1 $-1 $87 $79 $63 #
cone-surface $-1 -1 $-1 0 0 0 0 1 0 -0.3125 0 0 1 I I 0 1 0.3125 forward I I I I #
loop $-1 -1 $-1 $-1 $88 $52 #
coedge $-1 -1 $-1 $76 $76 $67 $78 reversed $64 $-1 #
coedge $-1 -1 $-1 $77 $77 $89 $90 reversed $66 $-1 #
edge $91 -1 $-1 $92 -6.283185307179586232 $92 -0 $76 $93 forward @7 unknown #
coedge $-1 -1 $-1 $79 $79 $68 $80 forward $73 $-1 #
edge $-1 -1 $-1 $94 -3.141592653589793116 $94 3.141592653589793116 $79 $95 forward @7 unknown #
DXID-attrib $-1 -1 $-1 $-1 $69 @10 ASM ENTITY @36 589d3a46-4763-49c2-a03e-d2c12a1878f5 #
vertex $-1 -1 $-1 $69 $96 #
ellipse-curve $-1 -1 $-1 0 5.500000000000000888 0 0 -1 0 0.375 0 0 1 I I #
DXID-attrib $-1 -1 $-1 $-1 $72 @10 ASM ENTITY @36 69e5beab-e444-4cbd-8c0b-57e39e452c0f #
loop $-1 -1 $-1 $-1 $97 $72 #
plane-surface $-1 -1 $-1 0 0 0 0 1 0 0 0 0.3937007874015747699 forward_v I I I I #
loop $-1 -1 $-1 $-1 $89 $63 #
coedge $-1 -1 $-1 $88 $88 $97 $98 reversed $75 $-1 #
coedge $-1 -1 $-1 $89 $89 $77 $90 forward $87 $-1 #
edge $-1 -1 $-1 $99 -3.141592653589793116 $99 3.141592653589793116 $89 $100 forward @7 unknown #
DXID-attrib $-1 -1 $-1 $-1 $78 @10 ASM ENTITY @36 40eb8725-21ff-4457-99d7-9aaf807cbd26 #
vertex $-1 -1 $-1 $78 $101 #
ellipse-curve $-1 -1 $-1 0 0.4999999999999999445 0 0 1 0 0.375 0 0 1 I I #
vertex $-1 -1 $-1 $80 $102 #
ellipse-curve $-1 -1 $-1 0 5.500000000000000888 0 -0 -1 -0 -0.3125 0 0 1 I I #
point $-1 -1 $-1 0.375 5.500000000000000888 0 #
coedge $-1 -1 $-1 $97 $97 $88 $98 forward $85 $-1 #
edge $103 -1 $-1 $104 0 $104 6.283185307179586232 $97 $105 forward @7 unknown #
vertex $-1 -1 $-1 $90 $106 #
ellipse-curve $-1 -1 $-1 0 0.4999999999999999445 0 0 1 0 -0.3125 0 0 1 I I #
point $-1 -1 $-1 0.375 0.4999999999999999445 0 #
point $-1 -1 $-1 0.3125 5.500000000000000888 3.82702124733547831e-17 #
DXID-attrib $-1 -1 $-1 $-1 $98 @10 ASM ENTITY @36 b93fa200-a802-4acc-ad64-2a3ac50054b8 #
vertex $-1 -1 $-1 $98 $107 #
ellipse-curve $-1 -1 $-1 0 0 0 0 -1 0 0.375 0 0 1 I I #
point $-1 -1 $-1 0.3125 0.4999999999999999445 -3.82702124733547831e-17 #
point $-1 -1 $-1 0.375 0 0 #
End-of-ACIS-data 