700 0 1 0           
30 Autodesk Translation Framework 20 ASM 229.3.0.65535 NT 24 Wed Feb 21 19:24:41 2024 
1 9.999999999999999547e-07 1.000000000000000036e-10 
body $1 -1 $-1 $2 $-1 $3 #
rgb_color-st-attrib $-1 -1 $4 $-1 $0 0.7490196078431372584 0.7490196078431372584 0.7490196078431372584 #
lump $-1 -1 $-1 $-1 $5 $0 #
transform $-1 -1 1 0 0 0 1 0 0 0 1 0 0 0 1 no_rotate no_reflect no_shear #
DXID-attrib $-1 -1 $-1 $1 $0 @10 ASM ENTITY @103 PIEZA2-TAREA1.IPT|:|DE44756778F984E6F2E7D7ECB003297C4D9AF843|:|DA4B9237BACCCDF19C0760CAB7AEC4A8359010B0 #
shell $-1 -1 $-1 $-1 $-1 $6 $-1 $2 #
face $7 -1 $-1 $8 $9 $5 $-1 $10 forward single #
DXID-attrib $-1 -1 $-1 $-1 $6 @10 ASM ENTITY @36 050df7a7-7868-4d3b-90e7-fa851180adf7 #
face $11 -1 $-1 $12 $13 $5 $-1 $14 forward single #
loop $-1 -1 $-1 $15 $16 $6 #
plane-surface $-1 -1 $-1 11.54700538379257324 19.99999999999998224 0 0.8660254037844388186 0.499999999999999889 0 -4.999999999999999112 8.660254037844389075 0 forward_v I I I I #
DXID-attrib $-1 -1 $-1 $-1 $8 @10 ASM ENTITY @36 df2963a0-c510-4e5c-aa09-688606831896 #
face $17 -1 $-1 $18 $19 $5 $-1 $20 forward single #
loop $-1 -1 $-1 $21 $22 $8 #
cone-surface $-1 -1 $-1 -17.67949192431116856 70.62177826491068799 -45 0.8660254037844387076 0.4999999999999999445 0 0 0 -12.5 1 I I -0 -1 12.5 reversed I I I I #
loop $-1 -1 $-1 $-1 $23 $6 #
coedge $-1 -1 $-1 $24 $25 $26 $27 reversed $9 $-1 #
DXID-attrib $-1 -1 $-1 $-1 $12 @10 ASM ENTITY @36 e66ec66f-819d-48af-b57e-51540bf1946f #
face $28 -1 $-1 $29 $30 $5 $-1 $31 forward single #
loop $-1 -1 $-1 $-1 $32 $12 #
cone-surface $-1 -1 $-1 -17.67949192431116856 70.62177826491068799 -45 0.8660254037844387076 0.4999999999999999445 0 -12.5 21.65063509461097269 0 1 I I -0 1 25.00000000000000355 reversed I I I I #
loop $-1 -1 $-1 $-1 $33 $8 #
coedge $-1 -1 $-1 $22 $22 $23 $34 reversed $13 $-1 #
coedge $-1 -1 $-1 $23 $23 $22 $34 forward $15 $-1 #
coedge $-1 -1 $-1 $35 $16 $32 $36 reversed $9 $-1 #
coedge $-1 -1 $-1 $16 $37 $38 $39 reversed $9 $-1 #
coedge $-1 -1 $-1 $40 $41 $16 $27 forward $30 $-1 #
edge $42 -1 $-1 $43 1.860548028230940787 $44 3.141592653589793116 $16 $45 forward @7 unknown #
DXID-attrib $-1 -1 $-1 $-1 $18 @10 ASM ENTITY @36 fe7976e5-3874-40a2-b706-2688559d70bf #
face $46 -1 $-1 $47 $48 $5 $-1 $10 forward single #
loop $-1 -1 $-1 $-1 $26 $18 #
cone-surface $-1 -1 $-1 -0.9089820930627512396 41.57440316835507588 -54.99999999999998579 0.8660254037844387076 0.4999999999999999445 0 -4.440892098500626162e-15 7.691850745534258027e-15 -9.999999999999982236 1 I I -0 -1 9.999999999999982236 reversed I I I I #
coedge $-1 -1 $-1 $49 $50 $24 $36 forward $19 $-1 #
coedge $-1 -1 $-1 $33 $33 $51 $52 reversed $21 $-1 #
edge $-1 -1 $-1 $53 1.57079632679489678 $53 7.85398163397448279 $23 $54 forward @7 unknown #
coedge $-1 -1 $-1 $55 $24 $56 $57 forward $9 $-1 #
edge $58 -1 $-1 $59 0 $43 2.851840952153745334 $24 $60 forward @7 unknown #
coedge $-1 -1 $-1 $25 $55 $61 $62 reversed $9 $-1 #
coedge $-1 -1 $-1 $63 $64 $25 $39 forward $65 $-1 #
edge $66 -1 $-1 $44 -3.64589803375031174 $67 -1.154700538379247243 $25 $68 forward @7 unknown #
coedge $-1 -1 $-1 $69 $26 $64 $70 forward $30 $-1 #
coedge $-1 -1 $-1 $26 $69 $49 $71 reversed $30 $-1 #
DXID-attrib $-1 -1 $-1 $-1 $27 @10 ASM ENTITY @36 3712d847-4046-4973-aa4d-b737230bf758 #
vertex $-1 -1 $-1 $27 $72 #
vertex $-1 -1 $-1 $27 $73 #
ellipse-curve $-1 -1 $-1 -0.9089820930627512396 41.57440316835507588 -54.99999999999998579 0.8660254037844388186 0.499999999999999889 0 -4.440892098500625373e-15 7.691850745534258027e-15 -9.999999999999982236 1 F 1.860548028230940787 F 3.141592653589793116 #
DXID-attrib $-1 -1 $-1 $-1 $29 @10 ASM ENTITY @36 8236c1a7-9113-4386-844d-ed318881a81a #
face $74 -1 $-1 $75 $76 $5 $-1 $77 forward single #
loop $-1 -1 $-1 $78 $79 $29 #
coedge $-1 -1 $-1 $80 $32 $41 $71 forward $19 $-1 #
coedge $-1 -1 $-1 $32 $80 $81 $82 forward $19 $-1 #
coedge $-1 -1 $-1 $51 $51 $33 $52 forward $83 $-1 #
edge $-1 -1 $-1 $84 -1.570796326794896558 $84 4.712388980384689674 $51 $85 forward @7 unknown #
vertex $-1 -1 $-1 $34 $86 #
ellipse-curve $-1 -1 $-1 -17.67949192431117211 70.62177826491070221 -45 -0.8660254037844388186 -0.499999999999999889 0 -6.999001242624788238e-16 1.212262575446384467e-15 -12.5 1 I I #
coedge $-1 -1 $-1 $37 $35 $87 $88 forward $9 $-1 #
coedge $-1 -1 $-1 $81 $89 $35 $57 reversed $90 $-1 #
edge $91 -1 $-1 $59 -4.5 $92 -0.8000000000000000444 $35 $93 forward @7 unknown #
DXID-attrib $-1 -1 $-1 $-1 $36 @10 ASM ENTITY @36 93ac2aa5-3451-49af-9d84-1feee3f5a3e3 #
vertex $-1 -1 $-1 $36 $94 #
ellipse-curve $-1 -1 $-1 -17.67949192431116856 70.62177826491068799 -45 -0.8660254037844388186 -0.499999999999999889 -0 -12.49999999999999822 21.65063509461097269 0 1 F 0 F 2.851840952153745334 #
coedge $-1 -1 $-1 $95 $96 $37 $62 forward $97 $-1 #
edge $98 -1 $-1 $67 -4.5 $99 -0.8000000000000000444 $61 $100 forward @7 unknown #
coedge $-1 -1 $-1 $101 $38 $96 $102 forward $65 $-1 #
coedge $-1 -1 $-1 $38 $103 $40 $70 reversed $65 $-1 #
loop $-1 -1 $-1 $-1 $64 $104 #
DXID-attrib $-1 -1 $-1 $-1 $39 @10 ASM ENTITY @36 376f2eac-2f1c-43ef-9ced-678afa56c9ae #
vertex $-1 -1 $-1 $62 $105 #
straight-curve $-1 -1 $-1 17.32050807568880657 10.00000000000001776 -45 4.999999999999999112 -8.660254037844389075 0 I I #
coedge $-1 -1 $-1 $41 $40 $106 $107 forward $30 $-1 #
edge $-1 -1 $-1 $44 -2.770217975437739259e-16 $108 1.999999999999999556 $64 $109 forward @7 tangent #
edge $110 -1 $-1 $43 0 $111 2 $41 $112 forward @7 tangent #
point $-1 -1 $-1 -5.700556330562296381 49.87365319594238855 -52.14285714285715301 #
point $-1 -1 $-1 -0.9089820930627467988 41.57440316835506167 -45 #
DXID-attrib $-1 -1 $-1 $-1 $47 @10 ASM ENTITY @36 b793a66a-23c3-47e5-9541-3f85b6c1b5f0 #
face $113 -1 $-1 $114 $115 $5 $-1 $116 forward single #
loop $-1 -1 $-1 $117 $118 $47 #
cone-surface $-1 -1 $-1 -17.67949192431116856 70.62177826491068799 45 -0.8660254037844387076 -0.4999999999999999445 0 0 0 12.5 1 I I 0 -1 12.5 forward I I I I #
loop $-1 -1 $-1 $-1 $119 $29 #
coedge $-1 -1 $-1 $79 $79 $118 $120 forward $48 $-1 #
coedge $-1 -1 $-1 $50 $49 $121 $122 forward $19 $-1 #
coedge $-1 -1 $-1 $123 $56 $50 $82 reversed $90 $-1 #
edge $124 -1 $-1 $125 -2.000000000000000888 $59 0 $81 $126 forward @7 tangent #
loop $-1 -1 $-1 $127 $51 $128 #
vertex $-1 -1 $-1 $52 $129 #
ellipse-curve $-1 -1 $-1 -34.99999999999995026 60.62177826491070221 -45 0.8660254037844389297 0.4999999999999996114 0 -6.999001242624788238e-16 1.212262575446384467e-15 -12.5 1 I I #
point $-1 -1 $-1 -11.42949192431116501 59.79646071760520698 -45 #
coedge $-1 -1 $-1 $130 $131 $55 $88 reversed $132 $-1 #
edge $-1 -1 $-1 $92 -9.884858779111056037 $99 -1.539559317490303059 $87 $133 forward @7 unknown #
coedge $-1 -1 $-1 $56 $134 $135 $136 reversed $90 $-1 #
loop $-1 -1 $-1 $-1 $89 $137 #
DXID-attrib $-1 -1 $-1 $-1 $57 @10 ASM ENTITY @36 e354cab6-c627-41cc-a5b9-619d13d902f8 #
vertex $-1 -1 $-1 $57 $138 #
straight-curve $-1 -1 $-1 -30.17949192431117567 92.27241335952169266 0 0 0 10 I I #
point $-1 -1 $-1 -30.17949192431117567 92.27241335952169266 -45 #
coedge $-1 -1 $-1 $139 $61 $131 $140 forward $97 $-1 #
coedge $-1 -1 $-1 $61 $141 $63 $102 reversed $97 $-1 #
loop $-1 -1 $-1 $-1 $141 $142 #
DXID-attrib $-1 -1 $-1 $-1 $62 @10 ASM ENTITY @36 2c808790-098c-4f58-8ba5-c7ffc3b03de3 #
vertex $-1 -1 $-1 $88 $143 #
straight-curve $-1 -1 $-1 11.54700538379257324 19.99999999999997868 0 0 0 10 I I #
coedge $-1 -1 $-1 $144 $63 $145 $146 forward $65 $-1 #
edge $147 -1 $-1 $67 -8.345299461620742321 $148 0 $96 $149 forward @7 unknown #
coedge $-1 -1 $-1 $64 $144 $150 $151 forward $65 $-1 #
face $152 -1 $-1 $-1 $65 $5 $-1 $153 forward single #
point $-1 -1 $-1 11.54700538379256791 19.99999999999998224 -45 #
coedge $-1 -1 $-1 $150 $121 $69 $107 reversed $127 $-1 #
edge $154 -1 $-1 $108 -3.141592653589793116 $111 -1.860548028230940787 $69 $155 forward @7 unknown #
vertex $-1 -1 $-1 $70 $156 #
straight-curve $-1 -1 $-1 -0.9089820930627551254 41.57440316835507588 -45 -8.660254037844387298 -4.999999999999999112 -0 I I #
DXID-attrib $-1 -1 $-1 $-1 $71 @10 ASM ENTITY @36 22a93cd9-919b-4b9c-91bc-32c4140b43e6 #
vertex $-1 -1 $-1 $71 $157 #
straight-curve $-1 -1 $-1 -5.700556330562296381 49.87365319594238855 -52.14285714285715301 -8.660254037844387298 -5.000000000000000888 -0 I I #
DXID-attrib $-1 -1 $-1 $-1 $75 @10 ASM ENTITY @36 bd977ce0-7e93-4c67-be35-a7988485c92f #
face $158 -1 $-1 $159 $160 $5 $-1 $161 forward single #
loop $-1 -1 $-1 $-1 $162 $75 #
cone-surface $-1 -1 $-1 -17.67949192431116856 70.62177826491068799 45 -0.8660254037844387076 -0.4999999999999999445 0 -12.5 21.65063509461097269 0 1 I I 0 1 25.00000000000000355 forward I I I I #
loop $-1 -1 $-1 $-1 $163 $47 #
coedge $-1 -1 $-1 $118 $118 $79 $120 reversed $76 $-1 #
coedge $-1 -1 $-1 $164 $165 $166 $167 reversed $78 $-1 #
edge $-1 -1 $-1 $168 -1.57079632679489678 $168 4.712388980384689674 $79 $169 forward @7 unknown #
coedge $-1 -1 $-1 $106 $170 $80 $122 reversed $127 $-1 #
edge $171 -1 $-1 $111 -2.851840952153745334 $125 -0 $80 $172 forward @7 unknown #
coedge $-1 -1 $-1 $173 $81 $170 $174 reversed $90 $-1 #
DXID-attrib $-1 -1 $-1 $-1 $82 @10 ASM ENTITY @36 31a9925c-ecc7-4ef9-852e-8b9c3ca5547f #
vertex $-1 -1 $-1 $122 $175 #
straight-curve $-1 -1 $-1 -30.17949192431117567 92.27241335952169266 -45 8.660254037844389075 4.999999999999999112 0 I I #
loop $-1 -1 $-1 $176 $150 $128 #
face $177 -1 $-1 $178 $83 $5 $-1 $179 forward single #
point $-1 -1 $-1 -28.74999999999993605 49.79646071760520698 -45 #
coedge $-1 -1 $-1 $180 $87 $181 $182 reversed $132 $-1 #
coedge $-1 -1 $-1 $87 $183 $95 $140 reversed $132 $-1 #
loop $-1 -1 $-1 $-1 $183 $184 #
straight-curve $-1 -1 $-1 19.24480197124408321 6.66702520420363598 -8 4.999999999999999112 -8.660254037844389075 0 I I #
coedge $-1 -1 $-1 $89 $173 $185 $186 reversed $90 $-1 #
coedge $-1 -1 $-1 $187 $181 $89 $136 forward $188 $-1 #
edge $189 -1 $-1 $92 -0.8000000000000000444 $190 0.8000000000000000444 $89 $93 forward @7 unknown #
face $191 -1 $-1 $128 $90 $5 $-1 $192 forward single #
point $-1 -1 $-1 -30.17949192431117567 92.27241335952169266 -8 #
coedge $-1 -1 $-1 $193 $95 $194 $195 forward $97 $-1 #
edge $-1 -1 $-1 $99 -5.936976449139988787 $196 -0.7416769875192459338 $131 $197 forward @7 unknown #
coedge $-1 -1 $-1 $96 $198 $199 $200 forward $97 $-1 #
face $201 -1 $-1 $202 $97 $5 $-1 $203 forward single #
point $-1 -1 $-1 11.54700538379257324 19.99999999999997868 -8 #
coedge $-1 -1 $-1 $103 $101 $204 $205 forward $65 $-1 #
coedge $-1 -1 $-1 $199 $206 $101 $146 reversed $207 $-1 #
edge $208 -1 $-1 $148 -1.999999999999999778 $209 -0 $101 $210 forward @7 tangent #
DXID-attrib $-1 -1 $-1 $-1 $102 @10 ASM ENTITY @36 fec992b1-cdfe-4061-8664-ef1d1746e03e #
vertex $-1 -1 $-1 $200 $211 #
straight-curve $-1 -1 $-1 95 19.99999999999999645 -45 10 2.103580467710822753e-15 0 I I #
coedge $-1 -1 $-1 $212 $106 $103 $151 reversed $127 $-1 #
edge $213 -1 $-1 $214 -9.5 $108 -5.85410196624968826 $150 $215 forward @7 unknown #
DXID-attrib $-1 -1 $-1 $-1 $104 @10 ASM ENTITY @36 3e6b9530-d63c-4a18-9eba-d362afc4827b #
plane-surface $-1 -1 $-1 23.75000000000002842 46.13620667976084633 -45 0 0 -1 -10 0 0 forward_v I I I I #
DXID-attrib $-1 -1 $-1 $-1 $107 @10 ASM ENTITY @36 c62aea5e-1e69-4ff2-b388-1767ce764e83 #
ellipse-curve $-1 -1 $-1 -18.2294901687515214 31.57440316835507588 -54.99999999999998579 -0.8660254037844388186 -0.499999999999999889 -0 -4.440892098500625373e-15 7.691850745534258027e-15 -9.999999999999982236 1 I I #
point $-1 -1 $-1 -18.22949016875151784 31.57440316835506522 -45 #
point $-1 -1 $-1 -23.02106440625106742 39.87365319594238855 -52.14285714285715301 #
DXID-attrib $-1 -1 $-1 $-1 $114 @10 ASM ENTITY @36 d8fbc51c-4457-4a6d-84d2-3eff7106c222 #
face $216 -1 $-1 $217 $218 $5 $-1 $219 forward single #
loop $-1 -1 $-1 $-1 $220 $114 #
cone-surface $-1 -1 $-1 -0.9089820930627512396 41.57440316835507588 54.99999999999998579 -0.8660254037844387076 -0.4999999999999999445 0 -4.440892098500626162e-15 7.691850745534258027e-15 9.999999999999982236 1 I I 0 -1 9.999999999999982236 forward I I I I #
coedge $-1 -1 $-1 $221 $222 $223 $224 reversed $115 $-1 #
coedge $-1 -1 $-1 $163 $163 $225 $226 reversed $117 $-1 #
coedge $-1 -1 $-1 $227 $119 $228 $229 reversed $78 $-1 #
coedge $-1 -1 $-1 $119 $223 $220 $230 forward $78 $-1 #
coedge $-1 -1 $-1 $231 $232 $119 $167 forward $218 $-1 #
edge $233 -1 $-1 $234 1.154700538379247243 $235 3.64589803375031174 $119 $236 forward @7 unknown #
vertex $-1 -1 $-1 $120 $237 #
ellipse-curve $-1 -1 $-1 -17.67949192431117211 70.62177826491070221 45 -0.8660254037844388186 -0.499999999999999889 0 6.999001242624788238e-16 -1.212262575446384467e-15 -12.5 1 I I #
coedge $-1 -1 $-1 $121 $238 $123 $174 forward $127 $-1 #
DXID-attrib $-1 -1 $-1 $-1 $122 @10 ASM ENTITY @36 35c1b43d-0033-4386-a59a-dcd6b9d402eb #
ellipse-curve $-1 -1 $-1 -34.99999999999993605 60.6217782649106951 -45 0.8660254037844388186 0.499999999999999889 0 -12.49999999999999822 21.65063509461097269 0 1 I I #
coedge $-1 -1 $-1 $134 $123 $221 $239 reversed $90 $-1 #
edge $240 -1 $-1 $241 -4.5 $125 4.5 $170 $242 forward @7 unknown #
point $-1 -1 $-1 -47.49999999999995737 82.27241335952169266 -45 #
loop $-1 -1 $-1 $-1 $225 $128 #
DXID-attrib $-1 -1 $-1 $-1 $128 @10 ASM ENTITY @36 fe11528b-3655-482e-b700-baef616f0b8a #
face $243 -1 $-1 $104 $244 $5 $-1 $245 forward single #
plane-surface $-1 -1 $-1 -47.49999999999995737 82.27241335952169266 0 -0.8660254037844389297 -0.4999999999999996114 0 4.999999999999996447 -8.660254037844389075 0 forward_v I I I I #
coedge $-1 -1 $-1 $183 $130 $246 $247 reversed $132 $-1 #
coedge $-1 -1 $-1 $135 $248 $130 $182 forward $188 $-1 #
edge $-1 -1 $-1 $249 -10.40392680106023704 $92 0 $181 $250 forward @7 unknown #
coedge $-1 -1 $-1 $131 $180 $251 $252 reversed $132 $-1 #
face $253 -1 $-1 $254 $132 $5 $-1 $255 reversed single #
coedge $-1 -1 $-1 $223 $227 $134 $186 forward $78 $-1 #
edge $256 -1 $-1 $190 0.8000000000000000444 $257 4.5 $185 $93 forward @7 unknown #
coedge $-1 -1 $-1 $248 $135 $258 $259 forward $188 $-1 #
loop $-1 -1 $-1 $-1 $248 $254 #
DXID-attrib $-1 -1 $-1 $-1 $136 @10 ASM ENTITY @36 8a5ece24-0fe6-4cb8-99fb-3b806cf93204 #
vertex $-1 -1 $-1 $260 $261 #
DXID-attrib $-1 -1 $-1 $-1 $137 @10 ASM ENTITY @36 3bd720f8-a736-431f-8918-1bf6797184c7 #
plane-surface $-1 -1 $-1 -30.17949192431117567 92.27241335952169266 0 -0.499999999999999889 0.8660254037844388186 0 -8.660254037844389075 -4.999999999999999112 -0 forward_v I I I I #
coedge $-1 -1 $-1 $228 $139 $262 $263 forward $97 $-1 #
coedge $-1 -1 $-1 $251 $264 $139 $195 reversed $265 $-1 #
edge $-1 -1 $-1 $196 -2.892882664496270184 $266 2.892882664496270184 $139 $267 forward @7 unknown #
vertex $-1 -1 $-1 $252 $268 #
straight-curve $-1 -1 $-1 70.91676987519245756 19.99999999999999289 -8 10 2.103580467710822753e-15 0 I I #
coedge $-1 -1 $-1 $141 $228 $232 $269 reversed $97 $-1 #
coedge $-1 -1 $-1 $270 $145 $141 $200 reversed $207 $-1 #
edge $271 -1 $-1 $272 0 $148 3.141592653589793116 $141 $273 forward @7 unknown #
DXID-attrib $-1 -1 $-1 $-1 $142 @10 ASM ENTITY @36 9d0dcad5-99c9-46da-b484-07a83efd762b #
face $274 -1 $-1 $275 $207 $5 $-1 $276 forward single #
plane-surface $-1 -1 $-1 95 19.99999999999999645 0 -2.103580467710822802e-16 1 0 -10 -2.103580467710822753e-15 -0 forward_v I I I I #
coedge $-1 -1 $-1 $277 $278 $144 $205 reversed $279 $-1 #
edge $280 -1 $-1 $209 -9.5 $214 -0 $204 $281 forward @7 unknown #
coedge $-1 -1 $-1 $145 $270 $277 $282 reversed $207 $-1 #
loop $-1 -1 $-1 $-1 $206 $202 #
DXID-attrib $-1 -1 $-1 $-1 $146 @10 ASM ENTITY @36 2b0ac0fc-9a62-47ba-8327-6efd33fa4ecf #
vertex $-1 -1 $-1 $282 $283 #
straight-curve $-1 -1 $-1 95 0 -45 0 -10 0 I I #
point $-1 -1 $-1 95 20 -45 #
coedge $-1 -1 $-1 $284 $150 $278 $285 forward $127 $-1 #
DXID-attrib $-1 -1 $-1 $-1 $151 @10 ASM ENTITY @36 7baf0899-aea7-4e02-9009-5215f64a59f5 #
vertex $-1 -1 $-1 $285 $286 #
straight-curve $-1 -1 $-1 -47.49999999999995737 82.27241335952169266 -45 -4.999999999999996447 8.660254037844389075 0 I I #
DXID-attrib $-1 -1 $-1 $-1 $159 @10 ASM ENTITY @36 c589e477-24c8-4bf9-adcf-a86b9e51f29c #
face $287 -1 $-1 $288 $289 $5 $-1 $290 forward single #
loop $-1 -1 $-1 $-1 $231 $159 #
plane-surface $-1 -1 $-1 23.75000000000002842 46.13620667976084633 45 0 0 1 10 0 0 forward_v I I I I #
coedge $-1 -1 $-1 $291 $292 $165 $230 reversed $160 $-1 #
coedge $-1 -1 $-1 $293 $162 $173 $239 forward $115 $-1 #
coedge $-1 -1 $-1 $162 $293 $291 $294 reversed $115 $-1 #
coedge $-1 -1 $-1 $165 $185 $162 $224 forward $78 $-1 #
edge $295 -1 $-1 $257 0 $296 2.851840952153745334 $223 $297 forward @7 unknown #
coedge $-1 -1 $-1 $225 $225 $163 $226 forward $176 $-1 #
edge $-1 -1 $-1 $298 -4.712388980384689674 $298 1.57079632679489678 $225 $299 forward @7 unknown #
coedge $-1 -1 $-1 $185 $164 $300 $260 forward $78 $-1 #
coedge $-1 -1 $-1 $198 $193 $164 $229 forward $97 $-1 #
edge $301 -1 $-1 $302 0.8000000000000000444 $234 4.5 $228 $100 forward @7 unknown #
edge $303 -1 $-1 $296 1.860548028230940787 $235 3.141592653589793116 $165 $304 forward @7 unknown #
coedge $-1 -1 $-1 $305 $166 $292 $306 reversed $218 $-1 #
coedge $-1 -1 $-1 $166 $307 $198 $269 forward $218 $-1 #
DXID-attrib $-1 -1 $-1 $-1 $167 @10 ASM ENTITY @36 d7b8665d-9755-4567-ad59-30027f20a019 #
vertex $-1 -1 $-1 $167 $308 #
vertex $-1 -1 $-1 $167 $309 #
straight-curve $-1 -1 $-1 17.32050807568880657 10.00000000000001776 45 -4.999999999999999112 8.660254037844389075 0 I I #
point $-1 -1 $-1 -23.92949192431116501 81.44709581221619032 45 #
coedge $-1 -1 $-1 $170 $310 $293 $311 forward $127 $-1 #
edge $312 -1 $-1 $257 -0 $241 2.000000000000000888 $173 $313 forward @7 tangent #
DXID-attrib $-1 -1 $-1 $-1 $174 @10 ASM ENTITY @36 8628a5d2-1bdd-446b-ac0a-c28e8b2b532c #
vertex $-1 -1 $-1 $239 $314 #
straight-curve $-1 -1 $-1 -47.49999999999995737 82.27241335952169266 0 0 0 -10 I I #
DXID-attrib $-1 -1 $-1 $-1 $178 @10 ASM ENTITY @36 4be86a8e-a44c-4e99-984a-5de5f6210f4d #
loop $-1 -1 $-1 $315 $316 $178 #
cone-surface $-1 -1 $-1 95 19.99999999999999645 0 0 1 0 -17.5 0 0 1 I I 0 -1 17.5 forward I I I I #
coedge $-1 -1 $-1 $317 $318 $180 $247 forward $289 $-1 #
edge $-1 -1 $-1 $319 -0.09999999999999964473 $249 0 $246 $320 forward @7 unknown #
coedge $-1 -1 $-1 $181 $187 $317 $321 forward $188 $-1 #
vertex $-1 -1 $-1 $247 $322 #
straight-curve $-1 -1 $-1 -30.17949192431117567 92.27241335952169266 -8 -8.908126104353836894 4.54370876145575231 0 F -10.40392680106023704 F -0 #
coedge $-1 -1 $-1 $323 $194 $183 $252 forward $265 $-1 #
edge $-1 -1 $-1 $196 -8.881784197001252323e-16 $319 2.499999999999998224 $183 $324 forward @7 unknown #
DXID-attrib $-1 -1 $-1 $-1 $184 @10 ASM ENTITY @36 311c99d9-3c6a-4cde-a833-9737c6147751 #
face $325 -1 $-1 $326 $188 $5 $-1 $327 forward single #
plane-surface $-1 -1 $-1 46.83353975038491512 4.818090659864131098 -8 0 0 1 10 0 0 forward_v I I I I #
DXID-attrib $-1 -1 $-1 $-1 $186 @10 ASM ENTITY @36 4b9d79a5-6da4-4d96-9f81-e395f77d2e9a #
vertex $-1 -1 $-1 $186 $328 #
coedge $-1 -1 $-1 $300 $329 $187 $259 reversed $330 $-1 #
edge $-1 -1 $-1 $190 0 $331 10.40392680106023704 $187 $332 forward @7 unknown #
edge $-1 -1 $-1 $302 1.539559317490303059 $190 9.884858779111056037 $300 $333 forward @7 unknown #
point $-1 -1 $-1 -30.17949192431117567 92.27241335952169266 8 #
coedge $-1 -1 $-1 $334 $300 $193 $263 reversed $330 $-1 #
edge $-1 -1 $-1 $266 0.741676987519246822 $302 5.936976449139988787 $262 $335 forward @7 unknown #
coedge $-1 -1 $-1 $194 $323 $334 $336 forward $265 $-1 #
loop $-1 -1 $-1 $-1 $194 $326 #
vertex $-1 -1 $-1 $336 $337 #
ellipse-curve $-1 -1 $-1 95 19.99999999999999645 0 2.103580467710822802e-16 -1 0 32.5 0 0 1 I I #
point $-1 -1 $-1 63.5 19.99999999999998934 -8 #
edge $338 -1 $-1 $272 -0 $234 8.345299461620742321 $198 $339 forward @7 unknown #
coedge $-1 -1 $-1 $206 $199 $307 $340 reversed $207 $-1 #
DXID-attrib $-1 -1 $-1 $-1 $200 @10 ASM ENTITY @36 c9e4d403-d020-43f7-88b9-619e6be6a20b #
vertex $-1 -1 $-1 $340 $341 #
ellipse-curve $-1 -1 $-1 95 19.99999999999999645 0 -2.103580467710822802e-16 1 0 0 0 45 1 F 0 F 3.141592653589793116 #
DXID-attrib $-1 -1 $-1 $-1 $202 @10 ASM ENTITY @36 385518d8-d9d0-49b4-8880-c3e10cf7b468 #
face $342 -1 $-1 $137 $343 $5 $-1 $344 forward single #
cone-surface $-1 -1 $-1 95 19.99999999999999645 0 0 -1 0 0 0 45 1 I I 0 1 45 forward I I I I #
coedge $-1 -1 $-1 $345 $204 $206 $282 forward $279 $-1 #
coedge $-1 -1 $-1 $204 $345 $212 $285 reversed $279 $-1 #
loop $-1 -1 $-1 $-1 $278 $275 #
DXID-attrib $-1 -1 $-1 $-1 $205 @10 ASM ENTITY @36 44c72268-6bb4-4bd9-a699-7239c95756bc #
straight-curve $-1 -1 $-1 0 0 -45 -10 -0 -0 I I #
edge $346 -1 $-1 $209 -3.141592653589793116 $347 -0 $206 $348 forward @7 unknown #
point $-1 -1 $-1 95 0 -45 #
coedge $-1 -1 $-1 $310 $212 $305 $349 reversed $127 $-1 #
edge $350 -1 $-1 $214 -4.5 $351 4.5 $212 $352 forward @7 unknown #
point $-1 -1 $-1 0 0 -45 #
DXID-attrib $-1 -1 $-1 $-1 $217 @10 ASM ENTITY @36 3ee750bf-cbb9-4fa6-bafb-9ade13a34226 #
face $353 -1 $-1 $184 $330 $5 $-1 $354 forward single #
loop $-1 -1 $-1 $355 $318 $217 #
plane-surface $-1 -1 $-1 127.5 45 0 -3.343730521224000828e-16 1 0 0 0 10 forward_v I I I I #
coedge $-1 -1 $-1 $356 $220 $222 $294 forward $160 $-1 #
coedge $-1 -1 $-1 $220 $356 $231 $306 forward $160 $-1 #
coedge $-1 -1 $-1 $222 $221 $238 $311 reversed $115 $-1 #
edge $357 -1 $-1 $296 0 $358 2 $291 $359 forward @7 tangent #
DXID-attrib $-1 -1 $-1 $-1 $224 @10 ASM ENTITY @36 500c2784-ddae-4265-80b5-83179b2c0e09 #
vertex $-1 -1 $-1 $224 $360 #
ellipse-curve $-1 -1 $-1 -17.67949192431116856 70.62177826491068799 45 0.8660254037844388186 0.499999999999999889 0 -12.49999999999999822 21.65063509461097269 0 1 F 0 F 2.851840952153745334 #
vertex $-1 -1 $-1 $226 $361 #
ellipse-curve $-1 -1 $-1 -34.99999999999995026 60.62177826491070221 45 0.8660254037844389297 0.4999999999999996114 0 6.999001242624788238e-16 -1.212262575446384467e-15 -12.5 1 I I #
coedge $-1 -1 $-1 $262 $258 $227 $260 reversed $330 $-1 #
DXID-attrib $-1 -1 $-1 $-1 $229 @10 ASM ENTITY @36 d76e88a6-91bf-4ff5-abf2-0eb0f3772e96 #
vertex $-1 -1 $-1 $229 $362 #
DXID-attrib $-1 -1 $-1 $-1 $230 @10 ASM ENTITY @36 ceffe602-7a59-4cce-91c3-becf07f91b87 #
ellipse-curve $-1 -1 $-1 -0.9089820930627512396 41.57440316835507588 54.99999999999998579 -0.8660254037844388186 -0.499999999999999889 0 -4.440892098500625373e-15 7.691850745534258027e-15 9.999999999999982236 1 F 1.860548028230940787 F 3.141592653589793116 #
coedge $-1 -1 $-1 $363 $231 $284 $349 forward $218 $-1 #
edge $-1 -1 $-1 $364 -1.999999999999999556 $235 2.770217975437739259e-16 $231 $365 forward @7 tangent #
coedge $-1 -1 $-1 $232 $363 $270 $340 forward $218 $-1 #
point $-1 -1 $-1 11.54700538379256791 19.99999999999998224 45 #
point $-1 -1 $-1 -0.9089820930627467988 41.57440316835506167 45 #
coedge $-1 -1 $-1 $238 $284 $356 $366 forward $127 $-1 #
edge $367 -1 $-1 $358 -2.851840952153745334 $241 -0 $293 $368 forward @7 unknown #
DXID-attrib $-1 -1 $-1 $-1 $239 @10 ASM ENTITY @36 7aabccaf-b338-46c1-aa43-5da26fdf7f46 #
straight-curve $-1 -1 $-1 -30.17949192431117567 92.27241335952169266 45 -8.660254037844389075 -4.999999999999999112 -0 I I #
point $-1 -1 $-1 -47.49999999999995737 82.27241335952169266 45 #
loop $-1 -1 $-1 $-1 $369 $178 #
coedge $-1 -1 $-1 $316 $316 $370 $371 reversed $244 $-1 #
coedge $-1 -1 $-1 $372 $246 $248 $321 reversed $289 $-1 #
coedge $-1 -1 $-1 $246 $372 $323 $373 forward $289 $-1 #
vertex $-1 -1 $-1 $373 $374 #
straight-curve $-1 -1 $-1 62.5 44.99999999999998579 -8 -10 -2.732856676000385482e-15 0 F -17.125 F 0 #
edge $-1 -1 $-1 $331 -0.8000000000000000444 $249 0.8000000000000000444 $248 $375 forward @7 unknown #
point $-1 -1 $-1 62.5 44.99999999999998579 -8 #
coedge $-1 -1 $-1 $264 $251 $318 $373 reversed $265 $-1 #
straight-curve $-1 -1 $-1 63.5 19.99999999999999645 -8 0 10 0 I I #
DXID-attrib $-1 -1 $-1 $-1 $254 @10 ASM ENTITY @36 bbce6adf-4a84-4cf1-8eb3-847f8fd0590d #
face $376 -1 $-1 $142 $265 $5 $-1 $377 forward single #
plane-surface $-1 -1 $-1 -30.17949192431117567 92.27241335952169266 0 0.4543708761455751977 0.8908126104353836228 0 0 0 10 forward_v I I I I #
point $-1 -1 $-1 -30.17949192431117567 92.27241335952169266 45 #
coedge $-1 -1 $-1 $258 $334 $372 $378 reversed $330 $-1 #
loop $-1 -1 $-1 $-1 $334 $288 #
vertex $-1 -1 $-1 $321 $379 #
straight-curve $-1 -1 $-1 -30.17949192431117567 92.27241335952169266 8 8.908126104353836894 -4.54370876145575231 0 F 0 F 10.40392680106023704 #
straight-curve $-1 -1 $-1 19.24480197124408321 6.66702520420363598 8 -4.999999999999999112 8.660254037844389075 0 I I #
coedge $-1 -1 $-1 $329 $262 $264 $336 reversed $330 $-1 #
straight-curve $-1 -1 $-1 70.91676987519247177 19.99999999999999289 8 -10 -2.103580467710822753e-15 0 I I #
edge $-1 -1 $-1 $380 -2.499999999999998224 $266 8.881784197001252323e-16 $334 $381 forward @7 unknown #
point $-1 -1 $-1 63.5 19.99999999999999289 8 #
DXID-attrib $-1 -1 $-1 $-1 $269 @10 ASM ENTITY @36 20637e2d-07c9-4624-989b-24061867fd26 #
straight-curve $-1 -1 $-1 95 19.99999999999999645 45 -10 -2.103580467710822753e-15 -0 I I #
edge $382 -1 $-1 $347 0 $272 1.999999999999999778 $307 $383 forward @7 tangent #
point $-1 -1 $-1 95 20 45 #
DXID-attrib $-1 -1 $-1 $-1 $275 @10 ASM ENTITY @36 b759a18e-347f-4113-82eb-8cf3615ef75d #
loop $-1 -1 $-1 $279 $370 $275 #
plane-surface $-1 -1 $-1 0 0 0 0 -1 0 10 0 0 forward_v I I I I #
coedge $-1 -1 $-1 $278 $277 $363 $384 reversed $279 $-1 #
DXID-attrib $-1 -1 $-1 $-1 $282 @10 ASM ENTITY @36 4b903bf7-26fc-4c5e-9fb7-0360caca0b26 #
vertex $-1 -1 $-1 $384 $385 #
ellipse-curve $-1 -1 $-1 95 -2.220446049250313081e-15 0 2.103580467710822802e-16 -1 0 0 0 45 1 I I #
edge $386 -1 $-1 $364 5.85410196624968826 $351 9.5 $284 $387 forward @7 unknown #
DXID-attrib $-1 -1 $-1 $-1 $285 @10 ASM ENTITY @36 d3a3dc31-e4c7-458c-aaa0-9878fddafa21 #
vertex $-1 -1 $-1 $349 $388 #
straight-curve $-1 -1 $-1 0 0 0 0 0 10 I I #
DXID-attrib $-1 -1 $-1 $-1 $288 @10 ASM ENTITY @36 e740d51a-97e3-4588-b6a8-001764d461f7 #
plane-surface $-1 -1 $-1 46.83353975038492223 4.818090659864129321 8 0 0 1 10 0 0 forward_v I I I I #
loop $-1 -1 $-1 $-1 $389 $217 #
coedge $-1 -1 $-1 $292 $291 $310 $366 reversed $160 $-1 #
DXID-attrib $-1 -1 $-1 $-1 $294 @10 ASM ENTITY @36 c7e59be4-28c9-4bfd-9883-ea213f197dcc #
vertex $-1 -1 $-1 $311 $390 #
straight-curve $-1 -1 $-1 -5.700556330562296381 49.87365319594238855 52.14285714285715301 -8.660254037844387298 -5.000000000000000888 0 I I #
point $-1 -1 $-1 -5.700556330562296381 49.87365319594238855 52.14285714285715301 #
point $-1 -1 $-1 -41.24999999999993605 71.44709581221619032 45 #
point $-1 -1 $-1 11.54700538379257324 19.99999999999997868 8 #
coedge $-1 -1 $-1 $307 $305 $345 $384 forward $218 $-1 #
vertex $-1 -1 $-1 $366 $391 #
straight-curve $-1 -1 $-1 -0.9089820930627551254 41.57440316835507588 45 8.660254037844387298 4.999999999999999112 0 I I #
edge $392 -1 $-1 $364 -3.141592653589793116 $358 -1.860548028230940787 $356 $393 forward @7 unknown #
DXID-attrib $-1 -1 $-1 $-1 $311 @10 ASM ENTITY @36 9cce758b-8f2d-468b-83e6-681dea8832de #
ellipse-curve $-1 -1 $-1 -34.99999999999993605 60.6217782649106951 45 -0.8660254037844388186 -0.499999999999999889 0 -12.49999999999999822 21.65063509461097269 0 1 I I #
coedge $-1 -1 $-1 $369 $369 $389 $394 reversed $315 $-1 #
coedge $-1 -1 $-1 $370 $370 $316 $371 forward $343 $-1 #
edge $-1 -1 $-1 $395 0 $395 6.283185307179586232 $370 $396 forward @7 unknown #
coedge $-1 -1 $-1 $318 $317 $329 $378 forward $289 $-1 #
edge $397 -1 $-1 $380 -2.892882664496270184 $319 2.892882664496270184 $323 $398 forward @7 unknown #
point $-1 -1 $-1 63.5 44.99999999999998579 -8 #
straight-curve $-1 -1 $-1 62.5 44.99999999999998579 0 0 0 -10 I I #
DXID-attrib $-1 -1 $-1 $-1 $326 @10 ASM ENTITY @36 b1ba8121-2d5e-4282-bade-42cdaa9715ce #
cone-surface $-1 -1 $-1 95 19.99999999999999645 0 0 1 0 32.5 0 0 1 I I 0 1 32.5 forward I I I I #
edge $-1 -1 $-1 $331 -17.125 $380 -17.02499999999999858 $372 $399 forward @7 unknown #
point $-1 -1 $-1 62.5 44.99999999999998579 8 #
vertex $-1 -1 $-1 $373 $400 #
straight-curve $-1 -1 $-1 63.5 20 8 -0 -10 -0 I I #
DXID-attrib $-1 -1 $-1 $-1 $340 @10 ASM ENTITY @36 a304ad27-0718-4483-9ac4-06717726c9d3 #
straight-curve $-1 -1 $-1 95 0 45 0 10 0 I I #
edge $401 -1 $-1 $351 0 $347 9.5 $345 $402 forward @7 unknown #
point $-1 -1 $-1 95 0 45 #
DXID-attrib $-1 -1 $-1 $-1 $349 @10 ASM ENTITY @36 b7752a01-dc32-4e43-a117-b928b19b746e #
straight-curve $-1 -1 $-1 -47.49999999999995737 82.27241335952169266 45 4.999999999999996447 -8.660254037844389075 0 I I #
point $-1 -1 $-1 0 0 45 #
coedge $-1 -1 $-1 $389 $389 $369 $394 forward $355 $-1 #
point $-1 -1 $-1 -23.02106440625106742 39.87365319594238855 52.14285714285715301 #
point $-1 -1 $-1 -18.22949016875151784 31.57440316835506522 45 #
DXID-attrib $-1 -1 $-1 $-1 $366 @10 ASM ENTITY @36 cf08f1d4-358d-4789-820e-5ee638602d19 #
ellipse-curve $-1 -1 $-1 -18.2294901687515214 31.57440316835507588 54.99999999999998579 0.8660254037844388186 0.499999999999999889 0 -4.440892098500625373e-15 7.691850745534258027e-15 9.999999999999982236 1 I I #
edge $403 -1 $-1 $404 -6.757965380745095452 $404 -0.4747800735655092197 $369 $405 forward @7 unknown #
vertex $-1 -1 $-1 $371 $406 #
ellipse-curve $-1 -1 $-1 95 0 0 0 1 0 17.5 0 0 1 I I #
DXID-attrib $-1 -1 $-1 $-1 $373 @10 ASM ENTITY @36 ba4bd0be-8569-4599-85b0-8cde831eb9c9 #
ellipse-curve $-1 -1 $-1 95 44.99999999999999289 0 -2.103580467710822802e-16 1 0 32.5 6.836636520060174735e-15 0 1 I I #
straight-curve $-1 -1 $-1 233.75 45.00000000000003553 8 10 3.343730521224000828e-15 0 I I #
point $-1 -1 $-1 63.5 44.99999999999998579 8 #
DXID-attrib $-1 -1 $-1 $-1 $384 @10 ASM ENTITY @36 be2e1dea-15c1-40d9-a975-bca7ec32f7a9 #
straight-curve $-1 -1 $-1 0 0 45 10 0 0 I I #
DXID-attrib $-1 -1 $-1 $-1 $394 @10 ASM ENTITY @36 cddbd404-7761-4f4f-9efd-8188f6a2a572 #
vertex $-1 -1 $-1 $394 $407 #
ellipse-curve $-1 -1 $-1 95 44.99999999999999289 0 2.103580467710822802e-16 -1 0 -17.5 -3.681265818493939817e-15 -0 1 I I #
point $-1 -1 $-1 112.5 0 0 #
point $-1 -1 $-1 79.43561758372661075 44.99999999999998579 8 #
End-of-ACIS-data 